<?xml version="1.0" encoding="UTF-8"?>
<svg width="720px" height="1054px" viewBox="0 0 720 1054" version="1.1" xmlns="http://www.w3.org/2000/svg" xmlns:xlink="http://www.w3.org/1999/xlink">
    <title>CCC04D6E-4E4F-4753-929E-900CD8C0FF6F</title>
    <g id="Web-Mocks" stroke="none" stroke-width="1" fill="none" fill-rule="evenodd" opacity="0.073218936">
        <g id="Burada_Homepage_1920px_Wide_V2" transform="translate(-621.000000, -5739.000000)" fill="#444444" fill-rule="nonzero">
            <g id="noun_guyana_410389" transform="translate(621.500000, 5739.000000)">
                <path d="M718.5,943.611279 L717.43787,942.549849 L716.37574,941.488419 L713.189349,940.426989 L712.127219,939.365559 L711.065089,938.304129 L710.002959,937.242699 L704.692308,934.058409 L690.884615,934.058409 L686.636095,932.996979 L672.828402,913.891239 L671.766272,909.645519 L670.704142,906.461229 L669.642012,900.092649 L667.517751,896.908359 L666.455621,895.846928 L663.269231,894.785498 L662.207101,893.724068 L661.14497,892.662638 L661.14497,887.355488 L659.02071,884.171198 L653.710059,879.925478 L652.647929,877.802618 L653.710059,875.679758 L653.710059,874.618328 L652.647929,873.556898 L650.523669,871.434038 L649.461538,870.372608 L649.461538,868.249748 L649.461538,867.188318 L650.523669,866.126888 L650.523669,865.065458 L649.461538,864.004028 L646.275148,866.126888 L644.150888,867.188318 L643.088757,866.126888 L644.150888,860.819738 L644.150888,859.758308 L640.964497,855.512588 L639.902367,854.451158 L639.902367,852.328298 L640.964497,850.205438 L640.964497,848.082578 L639.902367,845.959718 L636.715976,848.082578 L635.653846,847.021148 L634.591716,841.713998 L633.529586,839.591138 L630.343195,835.345418 L629.281065,833.222558 L629.281065,832.161128 L630.343195,830.038268 L630.343195,828.976838 L629.281065,827.915408 L623.970414,828.976838 L622.908284,825.792548 L625.032544,820.485398 L623.970414,819.423968 L621.846154,819.423968 L618.659763,820.485398 L617.597633,820.485398 L615.473373,819.423968 L614.411243,818.362538 L614.411243,817.301108 L613.349112,816.239678 L613.349112,815.178248 L611.224852,807.748238 L612.286982,806.686808 L614.411243,804.563948 L616.535503,802.441088 L615.473373,800.318228 L610.162722,799.256798 L608.038462,798.195368 L609.100592,796.072508 L610.162722,795.011078 L610.162722,793.949648 L610.162722,792.888218 L610.162722,790.765358 L610.162722,789.703927 L612.286982,789.703927 L612.286982,788.642497 L612.286982,787.581067 L611.224852,785.458207 L611.224852,784.396777 L610.162722,781.212487 L608.038462,779.089627 L606.976331,776.966767 L609.100592,772.721047 L608.038462,773.782477 L606.976331,774.843907 L605.914201,774.843907 L604.852071,774.843907 L602.727811,773.782477 L602.727811,772.721047 L603.789941,771.659617 L603.789941,769.536757 L602.727811,766.352467 L602.727811,765.291037 L602.727811,763.168177 L603.789941,759.983887 L603.789941,757.861027 L602.727811,755.738167 L601.66568,754.676737 L601.66568,753.615307 L602.727811,751.492447 L602.727811,750.431017 L602.727811,745.123867 L602.727811,743.001007 L599.54142,735.570997 L595.292899,738.755287 L591.044379,739.816717 L586.795858,738.755287 L582.547337,736.632427 L582.547337,738.755287 L581.485207,739.816717 L577.236686,740.878147 L576.174556,741.939577 L575.112426,743.001007 L575.112426,741.939577 L575.112426,740.878147 L574.050296,740.878147 L572.988166,740.878147 L571.926036,740.878147 L570.863905,739.816717 L568.739645,738.755287 L566.615385,738.755287 L565.553254,741.939577 L564.491124,741.939577 L563.428994,741.939577 L555.994083,737.693857 L551.745562,736.632427 L550.683432,735.570997 L549.621302,734.509567 L549.621302,733.448137 L548.559172,731.325277 L548.559172,729.202417 L548.559172,728.140987 L549.621302,726.018127 L549.621302,724.956697 L549.621302,722.833837 L549.621302,721.772407 L551.745562,717.526687 L551.745562,715.403827 L549.621302,713.280967 L546.434911,711.158107 L545.372781,711.158107 L544.310651,711.158107 L543.248521,711.158107 L542.186391,710.096677 L541.12426,707.973817 L540.06213,705.850957 L540.06213,704.789527 L534.751479,701.605237 L527.316568,698.420947 L525.192308,697.359517 L524.130178,695.236657 L523.068047,692.052367 L523.068047,685.683787 L522.005917,682.499496 L518.819527,676.130916 L511.384615,665.516616 L509.260355,662.332326 L499.701183,654.902316 L496.514793,650.656596 L495.452663,645.349446 L493.328402,633.673716 L491.204142,627.305136 L491.204142,624.120846 L493.328402,620.936556 L506.073964,608.199396 L507.136095,606.076536 L508.198225,602.892246 L508.198225,599.707956 L508.198225,597.585096 L507.136095,595.462236 L506.073964,593.339376 L507.136095,591.216516 L508.198225,589.093656 L510.322485,586.970796 L511.384615,584.847936 L512.446746,580.602216 L514.571006,574.233635 L516.695266,569.987915 L518.819527,562.557905 L520.943787,559.373615 L522.005917,557.250755 L522.005917,554.066465 L520.943787,551.943605 L516.695266,546.636455 L514.571006,540.267875 L512.446746,538.145015 L510.322485,537.083585 L509.260355,534.960725 L510.322485,529.653575 L512.446746,526.469285 L514.571006,523.284995 L516.695266,521.162135 L519.881657,515.854985 L520.943787,514.793555 L523.068047,514.793555 L524.130178,514.793555 L525.192308,515.854985 L527.316568,515.854985 L530.502959,515.854985 L532.627219,514.793555 L534.751479,510.547835 L539,507.363545 L544.310651,505.240685 L549.621302,505.240685 L554.931953,507.363545 L561.304734,505.240685 L564.491124,504.179255 L567.677515,504.179255 L568.739645,504.179255 L570.863905,506.302115 L571.926036,506.302115 L574.050296,506.302115 L576.174556,505.240685 L587.857988,504.179255 L591.044379,503.117825 L593.168639,502.056395 L594.230769,500.994965 L595.292899,500.994965 L597.41716,500.994965 L598.47929,500.994965 L599.54142,500.994965 L600.60355,500.994965 L601.66568,499.933535 L596.35503,495.687815 L595.292899,494.626385 L595.292899,492.503525 L595.292899,491.442095 L597.41716,486.134945 L598.47929,481.889225 L599.54142,479.766365 L600.60355,478.704935 L602.727811,478.704935 L604.852071,479.766365 L605.914201,480.827795 L606.976331,484.012085 L609.100592,482.950655 L611.224852,481.889225 L613.349112,479.766365 L614.411243,477.643505 L613.349112,474.459215 L608.038462,468.090634 L606.976331,464.906344 L605.914201,463.844914 L604.852071,463.844914 L602.727811,463.844914 L601.66568,464.906344 L601.66568,465.967774 L602.727811,467.029204 L603.789941,469.152064 L603.789941,470.213494 L602.727811,471.274924 L601.66568,471.274924 L600.60355,471.274924 L599.54142,470.213494 L599.54142,469.152064 L599.54142,459.599194 L598.47929,459.599194 L597.41716,459.599194 L595.292899,460.660624 L594.230769,460.660624 L594.230769,459.599194 L594.230769,458.537764 L595.292899,456.414904 L602.727811,448.984894 L603.789941,446.862034 L604.852071,443.677744 L604.852071,440.493454 L604.852071,438.370594 L605.914201,435.186304 L605.914201,434.124874 L613.349112,423.510574 L615.473373,420.326284 L616.535503,415.019134 L616.535503,400.159114 L615.473373,394.851964 L615.473373,392.729104 L616.535503,390.606244 L617.597633,388.483384 L618.659763,386.360524 L619.721893,384.237664 L619.721893,378.930514 L620.784024,373.623364 L620.784024,371.500504 L620.784024,368.316213 L619.721893,366.193353 L616.535503,361.947633 L617.597633,363.009063 L617.597633,361.947633 L618.659763,357.701913 L617.597633,351.333333 L615.473373,346.026183 L613.349112,341.780463 L597.41716,325.859013 L595.292899,324.797583 L592.106509,322.674723 L591.044379,322.674723 L588.920118,322.674723 L587.857988,322.674723 L581.485207,319.490433 L579.360947,319.490433 L576.174556,318.429003 L574.050296,316.306143 L571.926036,315.244713 L569.801775,317.367573 L568.739645,319.490433 L568.739645,323.736153 L567.677515,325.859013 L566.615385,325.859013 L565.553254,319.490433 L558.118343,309.937563 L555.994083,301.446123 L553.869822,298.261833 L550.683432,295.077543 L548.559172,294.016113 L546.434911,294.016113 L541.12426,290.831823 L532.627219,284.463243 L511.384615,264.296073 L503.949704,255.804632 L500.763314,252.620342 L496.514793,250.497482 L491.204142,248.374622 L475.272189,246.251762 L474.210059,246.251762 L474.210059,248.374622 L473.147929,249.436052 L472.085799,248.374622 L471.023669,247.313192 L469.961538,247.313192 L466.775148,245.190332 L458.278107,240.944612 L452.967456,238.821752 L446.594675,238.821752 L440.221893,239.883182 L434.911243,243.067472 L430.662722,248.374622 L415.792899,274.910373 L414.730769,281.278953 L413.668639,300.384693 L411.544379,305.691843 L412.606509,306.753273 L410.482249,306.753273 L409.420118,306.753273 L407.295858,305.691843 L406.233728,305.691843 L406.233728,306.753273 L405.171598,306.753273 L404.109467,307.814703 L399.860947,312.060423 L399.860947,310.998993 L398.798817,310.998993 L408.357988,297.200403 L409.420118,292.954683 L409.420118,267.480363 L409.420118,266.418933 L410.482249,264.296073 L410.482249,263.234642 L410.482249,253.681772 L410.482249,250.497482 L413.668639,242.006042 L414.730769,236.698892 L415.792899,233.514602 L416.85503,230.330312 L418.97929,228.207452 L424.289941,223.961732 L426.414201,221.838872 L428.538462,206.978852 L427.476331,187.873112 L428.538462,181.504532 L427.476331,182.565962 L428.538462,178.320242 L427.476331,174.074522 L424.289941,169.828802 L411.544379,158.153072 L410.482249,156.030211 L409.420118,152.845921 L401.985207,143.293051 L399.860947,136.924471 L398.798817,134.801611 L396.674556,133.740181 L392.426036,131.617321 L390.301775,130.555891 L390.301775,132.678751 L390.301775,134.801611 L391.363905,137.985901 L390.301775,137.985901 L389.239645,135.863041 L380.742604,121.003021 L367.997041,108.265861 L352.065089,94.4672709 L338.257396,81.7301108 L337.195266,81.7301108 L337.195266,80.6686808 L336.133136,77.4843907 L332.946746,74.3001007 L330.822485,72.1772407 L326.573964,71.1158107 L300.02071,55.1943605 L285.150888,44.5800604 L272.405325,38.2114804 L262.846154,32.9043303 L258.597633,28.6586103 L255.411243,26.5357503 L249.038462,24.4128902 L243.727811,20.1671702 L241.60355,19.1057402 L238.41716,20.1671702 L238.41716,22.2900302 L240.54142,26.5357503 L241.60355,28.6586103 L250.100592,32.9043303 L262.846154,42.4572004 L273.467456,46.7029204 L279.840237,50.9486405 L285.150888,56.2557905 L288.337278,61.5629406 L275.591716,50.9486405 L273.467456,48.8257805 L272.405325,47.7643505 L263.908284,45.6414904 L262.846154,45.6414904 L262.846154,44.5800604 L261.784024,42.4572004 L257.535503,41.3957704 L253.286982,39.2729104 L245.852071,33.9657603 L242.66568,31.8429003 L235.230769,29.7200403 L230.982249,27.5971803 L225.671598,22.2900302 L217.174556,9.55287009 L211.863905,4.24572004 L206.553254,1.06143001 L203.366864,0 L211.863905,12.7371601 L226.733728,29.7200403 L232.044379,39.2729104 L232.044379,42.4572004 L229.920118,45.6414904 L226.733728,47.7643505 L223.547337,48.8257805 L220.360947,48.8257805 L212.926036,50.9486405 L210.801775,52.0100705 L209.739645,54.1329305 L206.553254,57.3172205 L205.491124,59.4400806 L205.491124,61.5629406 L205.491124,63.6858006 L205.491124,65.8086606 L203.366864,67.9315206 L202.304734,73.2386707 L201.242604,75.3615307 L199.118343,76.4229607 L195.931953,76.4229607 L190.621302,75.3615307 L187.434911,76.4229607 L184.248521,78.5458207 L182.12426,80.6686808 L180,82.7915408 L172.565089,84.9144008 L170.440828,87.0372608 L169.378698,89.1601208 L166.192308,91.2829809 L158.757396,95.5287009 L155.571006,98.7129909 L154.508876,101.897281 L151.322485,104.020141 L144.949704,105.081571 L132.204142,105.081571 L129.017751,106.143001 L126.893491,108.265861 L123.707101,113.573011 L120.52071,117.818731 L119.45858,118.880161 L119.45858,119.941591 L119.45858,123.125881 L119.45858,125.248741 L117.33432,129.494461 L117.33432,131.617321 L117.33432,133.740181 L116.272189,134.801611 L114.147929,134.801611 L113.085799,135.863041 L112.023669,137.985901 L109.899408,142.231621 L107.775148,145.415911 L101.402367,147.538771 L99.2781065,151.784491 L99.2781065,153.907351 L100.340237,156.030211 L103.526627,162.398792 L105.650888,163.460222 L107.775148,163.460222 L109.899408,164.521652 L110.961538,165.583082 L110.961538,166.644512 L110.961538,167.705942 L110.961538,168.767372 L112.023669,169.828802 L113.085799,170.890232 L114.147929,170.890232 L115.210059,171.951662 L116.272189,174.074522 L118.39645,178.320242 L119.45858,180.443102 L119.45858,181.504532 L119.45858,182.565962 L119.45858,183.627392 L118.39645,184.688822 L115.210059,187.873112 L113.085799,192.118832 L113.085799,196.364552 L115.210059,200.610272 L116.272189,201.671702 L126.893491,209.101712 L129.017751,209.101712 L132.204142,203.794562 L134.328402,201.671702 L137.514793,200.610272 L141.763314,200.610272 L143.887574,201.671702 L144.949704,202.733132 L146.011834,203.794562 L148.136095,203.794562 L150.260355,203.794562 L152.384615,203.794562 L154.508876,204.855992 L156.633136,206.978852 L161.943787,210.163142 L164.068047,212.286002 L165.130178,214.408862 L165.130178,216.531722 L164.068047,218.654582 L163.005917,220.777442 L161.943787,222.900302 L159.819527,225.023162 L157.695266,226.084592 L155.571006,228.207452 L154.508876,230.330312 L153.446746,237.760322 L151.322485,236.698892 L147.073964,237.760322 L129.017751,249.436052 L118.39645,251.558912 L115.210059,252.620342 L113.085799,254.743202 L108.837278,261.111782 L106.713018,263.234642 L103.526627,264.296073 L101.402367,263.234642 L96.091716,260.050352 L92.9053254,258.988922 L90.7810651,258.988922 L87.5946746,260.050352 L86.5325444,260.050352 L84.408284,258.988922 L83.3461538,257.927492 L82.2840237,256.866062 L81.2218935,255.804632 L78.035503,254.743202 L75.9112426,254.743202 L74.8491124,255.804632 L74.8491124,256.866062 L75.9112426,258.988922 L75.9112426,260.050352 L75.9112426,261.111782 L75.9112426,262.173212 L71.6627219,266.418933 L70.6005917,267.480363 L67.4142012,267.480363 L61.0414201,266.418933 L58.9171598,268.541793 L55.7307692,267.480363 L52.5443787,267.480363 L51.4822485,269.603223 L48.295858,268.541793 L45.1094675,268.541793 L41.9230769,268.541793 L40.8609467,270.664653 L36.612426,275.971803 L33.4260355,281.278953 L31.3017751,286.586103 L30.239645,291.893253 L30.239645,295.077543 L31.3017751,296.138973 L33.4260355,297.200403 L35.5502959,299.323263 L36.612426,301.446123 L37.6745562,305.691843 L38.7366864,307.814703 L38.7366864,308.876133 L38.7366864,309.937563 L38.7366864,310.998993 L38.7366864,312.060423 L37.6745562,314.183283 L36.612426,316.306143 L35.5502959,323.736153 L35.5502959,324.797583 L36.612426,329.043303 L37.6745562,330.104733 L39.7988166,332.227593 L40.8609467,333.289023 L40.8609467,334.350453 L40.8609467,335.411883 L39.7988166,340.719033 L39.7988166,342.841893 L38.7366864,344.964753 L37.6745562,344.964753 L35.5502959,344.964753 L33.4260355,344.964753 L31.3017751,347.087613 L30.239645,350.271903 L29.1775148,352.394763 L27.0532544,353.456193 L24.9289941,354.517623 L20.6804734,355.579053 L18.556213,356.640483 L17.4940828,358.763343 L15.3698225,363.009063 L8.99704142,373.623364 L6.87278107,375.746224 L1.56213018,377.869084 L0.5,379.991944 L2.62426036,385.299094 L6.87278107,390.606244 L17.4940828,402.281974 L28.1153846,413.957704 L38.7366864,425.633434 L49.3579882,437.309164 L59.9792899,448.984894 L70.6005917,460.660624 L81.2218935,472.336354 L91.8431953,484.012085 L98.2159763,482.950655 L101.402367,482.950655 L109.899408,484.012085 L112.023669,484.012085 L114.147929,485.073515 L115.210059,486.134945 L116.272189,487.196375 L118.39645,487.196375 L126.893491,486.134945 L130.079882,487.196375 L131.142012,488.257805 L132.204142,489.319235 L133.266272,490.380665 L134.328402,490.380665 L135.390533,489.319235 L137.514793,486.134945 L138.576923,485.073515 L141.763314,485.073515 L148.136095,487.196375 L151.322485,487.196375 L154.508876,485.073515 L159.819527,479.766365 L163.005917,478.704935 L169.378698,477.643505 L171.502959,478.704935 L172.565089,481.889225 L174.689349,484.012085 L181.06213,481.889225 L182.12426,484.012085 L186.372781,494.626385 L188.497041,496.749245 L191.683432,498.872105 L198.056213,502.056395 L202.304734,504.179255 L202.304734,508.424975 L200.180473,516.916415 L200.180473,522.223565 L200.180473,524.346425 L199.118343,526.469285 L198.056213,530.715005 L198.056213,539.206445 L195.931953,545.575025 L196.994083,551.943605 L196.994083,555.127895 L195.931953,557.250755 L194.869822,559.373615 L190.621302,565.742195 L189.559172,567.865055 L189.559172,568.926485 L189.559172,569.987915 L189.559172,571.049345 L188.497041,572.110775 L187.434911,572.110775 L184.248521,572.110775 L183.186391,572.110775 L178.93787,576.356495 L178.93787,579.540785 L180,581.663646 L181.06213,583.786506 L183.186391,584.847936 L185.310651,584.847936 L186.372781,584.847936 L187.434911,583.786506 L187.434911,581.663646 L188.497041,580.602216 L189.559172,580.602216 L190.621302,581.663646 L191.683432,582.725076 L192.745562,584.847936 L193.807692,584.847936 L195.931953,583.786506 L199.118343,583.786506 L202.304734,584.847936 L204.428994,584.847936 L205.491124,583.786506 L206.553254,582.725076 L207.615385,582.725076 L209.739645,582.725076 L210.801775,582.725076 L211.863905,583.786506 L213.988166,586.970796 L215.050296,588.032226 L216.112426,588.032226 L219.298817,586.970796 L221.423077,586.970796 L222.485207,586.970796 L222.485207,589.093656 L223.547337,590.155086 L224.609467,590.155086 L225.671598,590.155086 L226.733728,590.155086 L229.920118,591.216516 L230.982249,591.216516 L232.044379,590.155086 L234.168639,592.277946 L242.66568,596.523666 L243.727811,597.585096 L244.789941,598.646526 L245.852071,599.707956 L247.976331,599.707956 L250.100592,599.707956 L251.162722,599.707956 L251.162722,601.830816 L250.100592,605.015106 L244.789941,610.322256 L243.727811,613.506546 L243.727811,614.567976 L244.789941,616.690836 L244.789941,617.752266 L244.789941,618.813696 L243.727811,620.936556 L243.727811,621.997986 L243.727811,624.120846 L243.727811,625.182276 L243.727811,626.243706 L245.852071,630.489426 L247.976331,632.612286 L254.349112,634.735146 L257.535503,636.858006 L257.535503,638.980866 L256.473373,641.103726 L255.411243,644.288016 L256.473373,646.410876 L261.784024,650.656596 L263.908284,653.840886 L264.970414,654.902316 L266.032544,655.963746 L266.032544,659.148036 L267.094675,660.209466 L268.156805,660.209466 L272.405325,661.270896 L274.529586,662.332326 L275.591716,663.393756 L275.591716,664.455186 L275.591716,665.516616 L274.529586,666.578046 L273.467456,666.578046 L270.281065,667.639476 L268.156805,670.823766 L266.032544,674.008056 L264.970414,677.192346 L264.970414,680.376636 L266.032544,682.499496 L266.032544,684.622356 L262.846154,686.745217 L256.473373,688.868077 L254.349112,690.990937 L253.286982,694.175227 L253.286982,696.298087 L253.286982,697.359517 L253.286982,698.420947 L252.224852,700.543807 L251.162722,701.605237 L247.976331,702.666667 L242.66568,707.973817 L230.982249,712.219537 L227.795858,716.465257 L227.795858,720.710977 L229.920118,723.895267 L232.044379,727.079557 L233.106509,730.263847 L230.982249,736.632427 L230.982249,738.755287 L233.106509,737.693857 L232.044379,745.123867 L232.044379,746.185297 L233.106509,748.308157 L233.106509,749.369587 L232.044379,750.431017 L230.982249,750.431017 L229.920118,750.431017 L228.857988,755.738167 L224.609467,762.106747 L223.547337,763.168177 L221.423077,769.536757 L220.360947,770.598187 L219.298817,771.659617 L218.236686,772.721047 L218.236686,774.843907 L218.236686,775.905337 L219.298817,776.966767 L219.298817,778.028197 L217.174556,778.028197 L217.174556,779.089627 L218.236686,780.151057 L218.236686,781.212487 L218.236686,782.273917 L217.174556,782.273917 L216.112426,782.273917 L215.050296,783.335347 L210.801775,789.703927 L209.739645,792.888218 L208.677515,796.072508 L208.677515,804.563948 L208.677515,807.748238 L205.491124,819.423968 L204.428994,842.775428 L205.491124,845.959718 L209.739645,854.451158 L209.739645,855.512588 L208.677515,857.635448 L208.677515,858.696878 L209.739645,858.696878 L211.863905,859.758308 L212.926036,860.819738 L213.988166,862.942598 L213.988166,864.004028 L213.988166,866.126888 L215.050296,869.311178 L219.298817,878.864048 L219.298817,879.925478 L219.298817,883.109768 L219.298817,884.171198 L219.298817,885.232628 L218.236686,887.355488 L218.236686,888.416918 L219.298817,891.601208 L222.485207,893.724068 L227.795858,896.908359 L232.044379,901.154079 L234.168639,902.215509 L235.230769,902.215509 L238.41716,902.215509 L239.47929,902.215509 L242.66568,905.399799 L242.66568,910.706949 L241.60355,916.014099 L241.60355,921.321249 L242.66568,925.566969 L242.66568,926.628399 L241.60355,927.689829 L240.54142,929.812689 L240.54142,930.874119 L240.54142,932.996979 L241.60355,936.181269 L241.60355,938.304129 L241.60355,939.365559 L240.54142,941.488419 L240.54142,942.549849 L240.54142,946.795569 L240.54142,947.856999 L239.47929,948.918429 L237.35503,952.102719 L236.292899,954.225579 L236.292899,956.348439 L236.292899,959.532729 L237.35503,962.717019 L238.41716,963.778449 L240.54142,963.778449 L243.727811,962.717019 L245.852071,962.717019 L251.162722,964.839879 L253.286982,964.839879 L254.349112,964.839879 L254.349112,966.962739 L251.162722,973.331319 L249.038462,976.515609 L249.038462,977.577039 L252.224852,980.761329 L253.286982,981.822759 L254.349112,982.884189 L256.473373,982.884189 L259.659763,982.884189 L261.784024,981.822759 L263.908284,981.822759 L267.094675,982.884189 L270.281065,985.007049 L274.529586,991.375629 L276.653846,994.559919 L280.902367,997.744209 L281.964497,998.805639 L285.150888,1004.11279 L286.213018,1005.17422 L287.275148,1005.17422 L289.399408,1005.17422 L290.461538,1005.17422 L290.461538,1006.23565 L291.523669,1008.35851 L292.585799,1009.41994 L294.710059,1009.41994 L297.89645,1008.35851 L298.95858,1008.35851 L301.08284,1010.48137 L301.08284,1013.66566 L302.14497,1015.78852 L304.269231,1016.84995 L305.331361,1017.91138 L308.517751,1024.27996 L310.642012,1026.40282 L312.766272,1027.46425 L322.325444,1030.64854 L346.754438,1034.89426 L353.127219,1037.01712 L356.313609,1038.07855 L359.5,1040.20141 L361.62426,1043.3857 L362.686391,1046.56999 L363.748521,1049.75428 L366.934911,1052.93857 L370.121302,1054 L372.245562,1054 L374.369822,1054 L377.556213,1052.93857 L380.742604,1051.87714 L383.928994,1049.75428 L386.053254,1047.63142 L390.301775,1042.32427 L392.426036,1041.26284 L394.550296,1041.26284 L409.420118,1042.32427 L410.482249,1042.32427 L412.606509,1041.26284 L413.668639,1041.26284 L414.730769,1041.26284 L415.792899,1042.32427 L415.792899,1043.3857 L416.85503,1043.3857 L417.91716,1044.44713 L418.97929,1044.44713 L423.227811,1037.01712 L424.289941,1034.89426 L424.289941,1031.70997 L423.227811,1028.52568 L420.04142,1023.21853 L418.97929,1020.03424 L421.10355,1016.84995 L433.849112,1014.72709 L438.097633,1012.60423 L438.097633,1011.5428 L437.035503,1008.35851 L437.035503,1007.29708 L438.097633,1006.23565 L441.284024,1005.17422 L442.346154,1004.11279 L443.408284,1001.98993 L444.470414,999.867069 L445.532544,997.744209 L447.656805,996.682779 L448.718935,996.682779 L449.781065,998.805639 L450.843195,999.867069 L452.967456,1000.9285 L456.153846,1001.98993 L459.340237,1003.05136 L462.526627,1003.05136 L464.650888,1001.98993 L465.713018,1000.9285 L467.837278,1000.9285 L469.961538,1001.98993 L471.023669,1003.05136 L472.085799,1006.23565 L473.147929,1007.29708 L477.39645,1008.35851 L483.769231,1008.35851 L490.142012,1007.29708 L492.266272,1004.11279 L494.390533,999.867069 L495.452663,996.682779 L495.452663,994.559919 L494.390533,990.314199 L494.390533,988.191339 L495.452663,987.129909 L497.576923,987.129909 L501.825444,989.252769 L503.949704,989.252769 L506.073964,988.191339 L511.384615,985.007049 L523.068047,979.699899 L527.316568,978.638469 L532.627219,978.638469 L544.310651,980.761329 L548.559172,980.761329 L554.931953,978.638469 L559.180473,975.454179 L568.739645,963.778449 L569.801775,961.655589 L572.988166,952.102719 L574.050296,951.041289 L576.174556,949.979859 L579.360947,948.918429 L581.485207,946.795569 L583.609467,944.672709 L585.733728,942.549849 L588.920118,941.488419 L592.106509,941.488419 L597.41716,944.672709 L600.60355,945.734139 L613.349112,938.304129 L620.784024,935.119839 L625.032544,938.304129 L626.094675,942.549849 L628.218935,945.734139 L631.405325,947.856999 L635.653846,949.979859 L637.778107,949.979859 L639.902367,949.979859 L644.150888,949.979859 L647.337278,949.979859 L648.399408,951.041289 L649.461538,952.102719 L651.585799,954.225579 L653.710059,955.287009 L664.331361,957.409869 L666.455621,957.409869 L668.579882,956.348439 L674.952663,951.041289 L677.076923,951.041289 L680.263314,951.041289 L683.449704,951.041289 L685.573964,949.979859 L687.698225,948.918429 L689.822485,947.856999 L693.008876,947.856999 L695.133136,948.918429 L697.257396,951.041289 L699.381657,952.102719 L701.505917,952.102719 L705.754438,949.979859 L712.127219,947.856999 L718.5,943.611279 Z M435.973373,231.391742 L443.408284,229.268882 L451.905325,222.900302 L451.905325,221.838872 L445.532544,220.777442 L441.284024,220.777442 L440.221893,220.777442 L440.221893,220.777442 L439.159763,222.900302 L437.035503,225.023162 L435.973373,228.207452 L434.911243,231.391742 L434.911243,233.514602 L435.973373,231.391742 Z" id="Shape"></path>
            </g>
        </g>
    </g>
</svg>