<?xml version="1.0" encoding="UTF-8"?>
<svg width="104px" height="96px" viewBox="0 0 104 96" version="1.1" xmlns="http://www.w3.org/2000/svg" xmlns:xlink="http://www.w3.org/1999/xlink">
    <title>71482C3D-4209-4130-8157-DF19A0E4C70E</title>
    <defs>
        <rect id="path-1" x="0" y="0" width="104" height="96"></rect>
    </defs>
    <g id="Page-1" stroke="none" stroke-width="1" fill="none" fill-rule="evenodd">
        <g id="Sulpana_Homepage_1920px" transform="translate(-493.000000, -1002.000000)">
            <g id="icon-service-tracking" transform="translate(493.000000, 1002.000000)">
                <mask id="mask-2" fill="white">
                    <use xlink:href="#path-1"></use>
                </mask>
                <g id="Rectangle"></g>
                <path d="M43.2864,49.5999879 C49.7667513,49.5927541 55.8197835,52.8325321 59.408,58.2288 L59.408,58.2288 L63.36,64.16 L76.1408,66.72 C78.3812478,67.1722557 79.9942632,69.1383691 80,71.424 L80,71.424 L80,86.4 C80,87.2836556 79.2836556,88 78.4,88 L78.4,88 L72,88 C71.1163444,88 70.4,87.2836556 70.4,86.4 C70.4,85.5163444 71.1163444,84.8 72,84.8 L72,84.8 L76.8,84.8 L76.8,76.8 L75.2,76.8 C72.5490332,76.8 70.4,74.6509668 70.4,72 L70.4,72 L70.4,68.832 L62.0832,67.1648 C61.6672862,67.0819498 61.3012775,66.8373685 61.0656,66.4848 L61.0656,66.4848 L56.7456,60 C53.7489646,55.4964783 48.6957887,52.7932815 43.2864,52.8 L43.2864,52.8 L19.376,52.8 C10.4426079,52.8008835 3.20088349,60.0426079 3.2,68.976 L3.2,68.976 L3.2,70.4 L4.8,70.4 C7.4509668,70.4 9.6,72.5490332 9.6,75.2 C9.6,77.8509668 7.4509668,80 4.8,80 L4.8,80 L3.2,80 C3.2,82.6509668 5.3490332,84.8 8,84.8 L8,84.8 L8.144,84.8 C8.97578371,79.8791012 13.4393189,76.4162732 18.4125398,76.833627 C23.3857606,77.2509807 27.2097277,81.4092977 27.2097277,86.4 C27.2097277,91.3907023 23.3857606,95.5490193 18.4125398,95.966373 C13.4393189,96.3837268 8.97578371,92.9208988 8.144,88 L8.144,88 L8,88 C3.58391496,87.9947102 0.00528978614,84.416085 7.10542736e-15,80 L7.10542736e-15,80 L7.10542736e-15,68.976 C0.000883515946,58.2752967 8.67529667,49.6008835 19.376,49.5999879 L19.376,49.5999879 Z M57.6,76.8 C62.8997401,76.8052918 67.1947082,81.1002599 67.2,86.4 C67.2,91.7019336 62.9019336,96 57.6,96 C52.2980664,96 48,91.7019336 48,86.4 C48,81.0980664 52.2980664,76.8 57.6,76.8 Z M17.6,80 C14.0653776,80 11.2,82.8653776 11.2,86.4 C11.2,89.9346224 14.0653776,92.8 17.6,92.8 C21.1346224,92.8 24,89.9346224 24,86.4 C24,82.8653776 21.1346224,80 17.6,80 Z M57.6,80 C54.0653776,80 51.2,82.8653776 51.2,86.4 C51.2,89.9346224 54.0653776,92.8 57.6,92.8 C61.1346224,92.8 64,89.9346224 64,86.4 C64,82.8653776 61.1346224,80 57.6,80 Z M43.2,84.8 C44.0836556,84.8 44.8,85.5163444 44.8,86.4 C44.8,87.2836556 44.0836556,88 43.2,88 L43.2,88 L32,88 C31.1163444,88 30.4,87.2836556 30.4,86.4 C30.4,85.5163444 31.1163444,84.8 32,84.8 L32,84.8 Z M17.6,84.8 C18.4836556,84.8 19.2,85.5163444 19.2,86.4 C19.2,87.2836556 18.4836556,88 17.6,88 C16.7163444,88 16,87.2836556 16,86.4 C16,85.5163444 16.7163444,84.8 17.6,84.8 Z M57.6,84.8 C58.4836556,84.8 59.2,85.5163444 59.2,86.4 C59.2,87.2836556 58.4836556,88 57.6,88 C56.7163444,88 56,87.2836556 56,86.4 C56,85.5163444 56.7163444,84.8 57.6,84.8 Z M44.4624,55.9999949 C48.2078608,55.9964229 51.7062433,57.8687543 53.7808,60.9872 L53.7808,60.9872 L57.3312,66.312 C57.6587715,66.8029739 57.689443,67.4344137 57.4109983,67.9548241 C57.1325537,68.4752345 56.590219,68.8000883 56,68.8 L56,68.8 L40,68.8 L40,79.9999949 C40,80.8836556 39.2836556,81.6 38.4,81.6 C37.5163444,81.6 36.8,80.8836556 36.8,79.9999949 L36.8,79.9999949 L36.8,68.8 L25.6,68.8 C24.7163444,68.8 24,68.0836556 24,67.2 C24,66.3163444 24.7163444,65.6 25.6,65.6 L25.6,65.6 L36.8,65.6 L36.8,59.2 L27.2,59.2 L27.2,60.8 C27.2,61.6836556 26.4836556,62.4 25.6,62.4 C24.7163444,62.4 24,61.6836556 24,60.8 L24,60.8 L24,57.6 C24,56.7163444 24.7163444,55.9999949 25.6,55.9999949 L25.6,55.9999949 Z M48,32 C48.8836556,32 49.6,32.7163444 49.6,33.6 L49.6,33.6 L49.6,36.8 C49.6,37.6836556 50.3163444,38.4 51.2,38.4 L51.2,38.4 L65.6,38.4 C68.2509668,38.4 70.4,40.5490332 70.4,43.2 L70.4,43.2 L70.4,48 C70.4,48.8836556 71.1163444,49.6 72,49.6 L72,49.6 L91.2,49.6 C93.8509668,49.6 96,51.7490332 96,54.4 L96,54.4 L96,76.8 C96,79.4509668 93.8509668,81.6 91.2,81.6 L91.2,81.6 L84.8,81.6 C83.9163444,81.6 83.2,80.8836556 83.2,80 C83.2,79.1163444 83.9163444,78.4 84.8,78.4 L84.8,78.4 L91.2,78.4 C92.0836556,78.4 92.8,77.6836556 92.8,76.8 L92.8,76.8 L92.8,54.4 C92.8,53.5163444 92.0836556,52.8 91.2,52.8 L91.2,52.8 L72,52.8 C69.3490332,52.8 67.2,50.6509668 67.2,48 L67.2,48 L67.2,43.2 C67.2,42.3163444 66.4836556,41.6 65.6,41.6 L65.6,41.6 L51.2,41.6 C48.5490332,41.6 46.4,39.4509668 46.4,36.8 L46.4,36.8 L46.4,33.6 C46.4,32.7163444 47.1163444,32 48,32 Z M4.8,73.6 L3.2,73.6 L3.2,76.8 L4.8,76.8 C5.6836556,76.8 6.4,76.0836556 6.4,75.2 C6.4,74.3163444 5.6836556,73.6 4.8,73.6 L4.8,73.6 Z M28.8,72 C29.6836556,72 30.4,72.7163444 30.4,73.6 C30.4,74.4836556 29.6836556,75.2 28.8,75.2 L28.8,75.2 L25.6,75.2 C24.7163444,75.2 24,74.4836556 24,73.6 C24,72.7163444 24.7163444,72 25.6,72 L25.6,72 Z M48,72 C48.8836556,72 49.6,72.7163444 49.6,73.6 C49.6,74.4836556 48.8836556,75.2 48,75.2 L48,75.2 L44.8,75.2 C43.9163444,75.2 43.2,74.4836556 43.2,73.6 C43.2,72.7163444 43.9163444,72 44.8,72 L44.8,72 Z M73.6,69.472 L73.6,72 C73.6,72.8836556 74.3163444,73.6 75.2,73.6 L75.2,73.6 L76.8000012,73.6 L76.8000012,71.424 C76.8009162,70.6629692 76.2656555,70.0066057 75.52,69.8544 L75.52,69.8544 L73.6,69.472 Z M19.2,56 C20.0836556,56 20.8,56.7163444 20.8,57.6 L20.8,57.6 L20.8,67.2 C20.8,68.0836556 20.0836556,68.8 19.2,68.8 L19.2,68.8 L9.6,68.8 C8.7163444,68.8 8,68.0836556 8,67.2 C8.00705382,61.0173349 13.0173349,56.0070538 19.2,56 Z M44.4624,59.1999955 L40,59.1999955 L40,65.6 L53.0096,65.6 L51.1184,62.7632 C49.6371259,60.5350144 47.1380263,59.197155 44.4624,59.1999955 L44.4624,59.1999955 Z M17.6,59.36 C14.4598572,60.0060202 12.0060202,62.4598572 11.36,65.6 L11.36,65.6 L17.6,65.6 Z M24,41.6 C24.8836556,41.6 25.6,42.3163444 25.6,43.2 C25.6,44.0836556 24.8836556,44.8 24,44.8 C23.1163444,44.8 22.4,44.0836556 22.4,43.2 C22.4,42.3163444 23.1163444,41.6 24,41.6 Z M19.4752,37.0752 C22.0066067,34.6557779 25.9933933,34.6557779 28.5248,37.0752 C28.9822527,37.5327908 29.119075,38.2208586 28.8714848,38.8186473 C28.6238945,39.416436 28.0406334,39.8062618 27.3936,39.8064 C26.9692883,39.8063094 26.5623884,39.637679 26.2624,39.3376 C24.9965328,38.1282976 23.0034672,38.1282976 21.7376,39.3376 C21.1097938,39.9439555 20.1118644,39.9352838 19.4946903,39.3181097 C18.8775162,38.7009356 18.8688445,37.7030062 19.4752,37.0752 Z M24,28.7995336 C27.3948854,28.7995336 30.6507154,30.1481917 33.0512,32.5488 C33.6575555,33.1766062 33.6488838,34.1745356 33.0317097,34.7917097 C32.4145356,35.4088838 31.4166062,35.4175555 30.7888,34.8112 C28.988404,33.0104991 26.54636,31.9988502 24,31.9988502 C21.45364,31.9988502 19.011596,33.0104991 17.2112,34.8112 C16.5833938,35.4175555 15.5854644,35.4088838 14.9682903,34.7917097 C14.3511162,34.1745356 14.3424445,33.1766062 14.9488,32.5488 C17.3492846,30.1481917 20.6051146,28.7995336 24,28.7995336 Z M48,-7.10542736e-15 C54.1855892,-7.10542736e-15 59.2,5.0144108 59.2,11.2 C59.2,11.712 59.1568,12.2064 59.1104,12.7024 C59.0631153,13.2766531 58.7107141,13.7811293 58.1878029,14.023134 C57.6648917,14.2651388 57.0522447,14.2072897 56.5838744,13.8716832 C56.1155041,13.5360768 55.8637598,12.9745542 55.9248,12.4016 C55.9616,12 56,11.608 56,11.2 C56,6.781722 52.418278,3.2 48,3.2 C43.581722,3.2 40,6.781722 40,11.2 C40,18.1616 45.7472,23.4096 48,25.2016 C50.5271647,23.2082843 52.6376158,20.737393 54.2112,17.9296 C54.4693976,17.4074005 54.9910104,17.0667982 55.5729567,17.0404013 C56.1549031,17.0140044 56.7052096,17.3059847 57.0096233,17.8026644 C57.3140369,18.299344 57.3244468,18.9222256 57.0368,19.4288 C55.0316659,23.0304868 52.2490086,26.1400012 48.8912,28.5312 C48.3528085,28.8913444 47.6503915,28.8913444 47.112,28.5312 C46.6912,28.2512 36.8,21.5376 36.8,11.2 C36.8,5.0144108 41.8144108,-7.10542736e-15 48,-7.10542736e-15 Z M70.4,22.4 C71.2836556,22.4 72,23.1163444 72,24 C72,24.8836556 71.2836556,25.6 70.4,25.6 L70.4,25.6 L67.2,25.6 C66.3163444,25.6 65.6,24.8836556 65.6,24 C65.6,23.1163444 66.3163444,22.4 67.2,22.4 L67.2,22.4 Z M83.2,16 C84.0836556,16 84.8,16.7163444 84.8,17.6 C84.8,18.4836556 84.0836556,19.2 83.2,19.2 L83.2,19.2 L67.2,19.2 C66.3163444,19.2 65.6,18.4836556 65.6,17.6 C65.6,16.7163444 66.3163444,16 67.2,16 L67.2,16 Z M48,6.4 C50.6509668,6.4 52.8,8.5490332 52.8,11.2 C52.8,13.8509668 50.6509668,16 48,16 C45.3490332,16 43.2,13.8509668 43.2,11.2 C43.2,8.5490332 45.3490332,6.4 48,6.4 Z M84.8,3.2 C85.6836556,3.2 86.4,3.9163444 86.4,4.8 L86.4,4.8 L86.4,11.2 C86.4,12.0836556 85.6836556,12.8 84.8,12.8 L84.8,12.8 L67.2,12.8 C66.3163444,12.8 65.6,12.0836556 65.6,11.2 L65.6,11.2 L65.6,4.8 C65.6,3.9163444 66.3163444,3.2 67.2,3.2 L67.2,3.2 Z M48,9.6 C47.1163444,9.6 46.4,10.3163444 46.4,11.2 C46.4,12.0836556 47.1163444,12.8 48,12.8 C48.8836556,12.8 49.6,12.0836556 49.6,11.2 C49.6,10.3163444 48.8836556,9.6 48,9.6 Z M83.2,6.4 L68.8,6.4 L68.8,9.6 L83.2,9.6 L83.2,6.4 Z" id="Combined-Shape" fill="#6F94B6" fill-rule="nonzero" mask="url(#mask-2)"></path>
            </g>
        </g>
    </g>
</svg>