<?xml version="1.0" encoding="UTF-8"?>
<svg width="32px" height="32px" viewBox="0 0 32 32" version="1.1" xmlns="http://www.w3.org/2000/svg" xmlns:xlink="http://www.w3.org/1999/xlink">
    <title>41BF44B2-CB9B-47DA-8F87-A92B92D3DEAD</title>
    <g id="Page-1" stroke="none" stroke-width="1" fill="none" fill-rule="evenodd">
        <g id="Sulpana_Homepage_1920px" transform="translate(-255.000000, -3401.000000)" fill="#F1F2F2" fill-rule="nonzero">
            <path d="M271,3401 C279.836583,3401 287,3408.16342 287,3417 C287,3425.83658 279.836583,3433 271,3433 C262.163417,3433 255,3425.83658 255,3417 C255,3408.16342 262.163417,3401 271,3401 Z M266.316457,3414.148 L262.791389,3414.148 L262.791389,3425.4898 L266.316457,3425.4898 L266.316457,3414.148 Z M275.290757,3413.86605 C273.575686,3413.86605 272.426319,3414.80607 271.95554,3415.69785 L271.95554,3415.69785 L271.908077,3415.69785 L271.908077,3414.148 L268.527193,3414.148 L268.527193,3425.48954 L272.049182,3425.48954 L272.049182,3419.87893 C272.049182,3418.39964 272.331137,3416.96703 274.16448,3416.96703 C275.972424,3416.96703 275.996797,3418.65876 275.996797,3419.97412 L275.996797,3425.4898 L279.519043,3425.4898 L279.519043,3419.26885 C279.519043,3416.21507 278.860209,3413.86605 275.290757,3413.86605 Z M264.554692,3408.5102 C263.424823,3408.5102 262.510461,3409.42611 262.510204,3410.55341 C262.510204,3411.68174 263.424823,3412.59764 264.554692,3412.59764 C265.681226,3412.59764 266.597385,3411.682 266.597385,3410.55341 C266.597385,3409.42611 265.681483,3408.5102 264.554692,3408.5102 Z" id="icon-linkedin-orange"></path>
        </g>
    </g>
</svg>