<?xml version="1.0" encoding="UTF-8"?>
<svg width="32px" height="32px" viewBox="0 0 32 32" version="1.1" xmlns="http://www.w3.org/2000/svg" xmlns:xlink="http://www.w3.org/1999/xlink">
    <title>69E9D1C7-E623-46A3-93D5-2D91B49E7928</title>
    <g id="Page-1" stroke="none" stroke-width="1" fill="none" fill-rule="evenodd">
        <g id="Sulpana_Homepage_1920px" transform="translate(-297.000000, -3401.000000)" fill="#F1F2F2" fill-rule="nonzero">
            <path d="M313,3401 C321.836583,3401 329,3408.16342 329,3417 C329,3425.83658 321.836583,3433 313,3433 C304.163417,3433 297,3425.83658 297,3417 C297,3408.16342 304.163417,3401 313,3401 Z M314.917096,3408.5102 C312.612939,3408.5102 311.034669,3409.91705 311.034669,3412.50021 L311.034669,3412.50021 L311.034669,3414.72611 L308.428571,3414.72611 L308.428571,3417.74433 L311.034669,3417.74433 L311.034669,3425.4898 L314.152197,3425.4898 L314.152197,3417.74433 L317.139443,3417.74433 L317.140862,3414.72611 L314.15196,3414.72611 L314.15196,3412.79908 C314.15196,3411.92518 314.394316,3411.32957 315.647712,3411.32957 L315.647712,3411.32957 L317.246317,3411.32887 L317.246317,3408.51375 Z" id="icon-facebook-orange"></path>
        </g>
    </g>
</svg>