<?xml version="1.0" encoding="UTF-8"?>
<svg width="32px" height="32px" viewBox="0 0 32 32" version="1.1" xmlns="http://www.w3.org/2000/svg" xmlns:xlink="http://www.w3.org/1999/xlink">
    <title>6B56F4F3-7BB6-4561-A1A5-16838EFB4225</title>
    <g id="Page-1" stroke="none" stroke-width="1" fill="none" fill-rule="evenodd">
        <g id="Sulpana_Homepage_1920px" transform="translate(-213.000000, -3401.000000)" fill="#F1F2F2" fill-rule="nonzero">
            <path d="M229,3401 C237.836583,3401 245,3408.16342 245,3417 C245,3425.83658 237.836583,3433 229,3433 C220.163417,3433 213,3425.83658 213,3417 C213,3408.16342 220.163417,3401 229,3401 Z M224.869241,3408.5102 C224.290364,3408.5102 223.799708,3408.71517 223.398482,3409.12389 C222.996773,3409.53333 222.795918,3410.03873 222.795918,3410.63912 L222.795918,3410.63912 L222.795918,3419.12891 C222.795918,3420.88174 223.398482,3422.38005 224.604336,3423.62385 C225.809705,3424.86814 227.260886,3425.4898 228.959087,3425.4898 L228.959087,3425.4898 L233.036606,3425.4898 C233.603157,3425.4898 234.087528,3425.28121 234.491896,3424.86427 C234.897231,3424.44782 235.098811,3423.94677 235.098811,3423.36306 C235.098811,3422.7791 234.897231,3422.27926 234.491896,3421.86208 C234.088012,3421.44442 233.601465,3421.23535 233.036123,3421.23535 L233.036123,3421.23535 L228.957154,3421.23535 C228.391087,3421.23535 227.909132,3421.03039 227.512257,3420.62118 C227.115623,3420.21053 226.917669,3419.71311 226.917669,3419.12698 L226.917669,3419.12698 L226.917669,3417.01837 L233.036606,3417.01837 C233.601706,3417.01837 234.087528,3416.81002 234.492138,3416.39284 C234.897473,3415.97591 235.099536,3415.4751 235.099536,3414.89211 C235.099536,3414.30792 234.897473,3413.80735 234.491171,3413.39042 C234.084628,3412.973 233.598323,3412.76441 233.03008,3412.76441 L233.03008,3412.76441 L226.918152,3412.76441 L226.918152,3410.63767 C226.918152,3410.05323 226.717056,3409.55315 226.314863,3409.1367 C225.914604,3408.71855 225.431199,3408.5102 224.869241,3408.5102 Z" id="icon-twitter-orange"></path>
        </g>
    </g>
</svg>