<?xml version="1.0" encoding="UTF-8"?>
<svg width="104px" height="96px" viewBox="0 0 104 96" version="1.1" xmlns="http://www.w3.org/2000/svg" xmlns:xlink="http://www.w3.org/1999/xlink">
    <title>3B3D6725-733F-476B-A777-3BCE1390E9A3</title>
    <defs>
        <rect id="path-1" x="0" y="0" width="104" height="96"></rect>
    </defs>
    <g id="Page-1" stroke="none" stroke-width="1" fill="none" fill-rule="evenodd">
        <g id="Sulpana_Homepage_1920px" transform="translate(-908.000000, -1002.000000)">
            <g id="icon-asset" transform="translate(908.000000, 1002.000000)">
                <mask id="mask-2" fill="white">
                    <use xlink:href="#path-1"></use>
                </mask>
                <g id="Rectangle-Copy"></g>
                <path d="M56.6,35.0000406 C62.670736,35.0106988 68.0861759,38.8182601 70.1504,44.5272817 L74.78,57.4000817 L85.7784,57.4000817 C89.6929367,57.3896501 93.0363157,60.2218961 93.6696,64.0848817 L95.9782,77.9370817 C95.9921171,78.0240457 95.9988067,78.1120131 95.9982,78.2000817 L96,78.2000817 L96,84.6000817 C96,85.4837373 95.2836556,86.2000817 94.4,86.2000817 L83.0838,86.2000817 C82.2893467,91.7105143 77.5674073,95.8005016 72,95.8005016 C66.4325927,95.8005016 61.7106533,91.7105143 60.9162,86.2000817 L35.0838,86.2000817 C34.2893467,91.7105143 29.5674073,95.8005016 24,95.8005016 C18.4325927,95.8005016 13.7106533,91.7105143 12.9162,86.2000817 L1.6,86.2000817 C0.7163444,86.2000817 0,85.4837373 0,84.6000817 L0,46.2000817 C0,45.7141064 0.220635695,45.2544162 0.6,44.9506817 L8.6,38.5506817 C8.88383287,38.3236199 9.23651945,38.199968 9.6,38.2000817 L19.2,38.2000817 C19.3713282,38.2003869 19.5414953,38.2282079 19.704,38.2824817 C22.2774647,36.1533519 25.5149626,34.9920839 28.855,35.0000406 L56.6,35.0000406 Z M72,76.6000817 C67.581722,76.6000817 64,80.1818037 64,84.6000817 C64.0049599,89.0163036 67.5837781,92.5951218 72,92.6000817 C76.418278,92.6000817 80,89.0183597 80,84.6000817 C80,80.1818037 76.418278,76.6000817 72,76.6000817 Z M24,76.6000817 C19.581722,76.6000817 16,80.1818037 16,84.6000817 C16.0049599,89.0163036 19.5837781,92.5951218 24,92.6000817 C28.418278,92.6000817 32,89.0183597 32,84.6000817 C32,80.1818037 28.418278,76.6000817 24,76.6000817 Z M72,79.8000817 C74.6509668,79.8000817 76.8,81.9491149 76.8,84.6000817 C76.8,87.2510485 74.6509668,89.4000817 72,89.4000817 C69.3490332,89.4000817 67.2,87.2510485 67.2,84.6000817 C67.2029759,81.9503485 69.3502669,79.8030576 72,79.8000817 Z M24,79.8000817 C25.9414188,79.8000817 27.691673,80.9695641 28.4346218,82.7632012 C29.1775706,84.5568382 28.7669029,86.6214038 27.3941125,87.9941942 C26.0213222,89.3669846 23.9567566,89.7776522 22.1631195,89.0347034 C20.3694825,88.2917546 19.2,86.5415004 19.2,84.6000817 C19.2029759,81.9503485 21.3502669,79.8030576 24,79.8000817 Z M72,83.0000817 C71.1163444,83.0000817 70.4,83.7164261 70.4,84.6000817 C70.400992,85.483326 71.1167556,86.1990897 72,86.2000817 C72.8836556,86.2000817 73.6,85.4837373 73.6,84.6000817 C73.6,83.7164261 72.8836556,83.0000817 72,83.0000817 Z M24,83.0000817 C23.1163444,83.0000817 22.4,83.7164261 22.4,84.6000817 C22.400992,85.483326 23.1167556,86.1990897 24,86.2000817 C24.8836556,86.2000817 25.6,85.4837373 25.6,84.6000817 C25.6,83.7164261 24.8836556,83.0000817 24,83.0000817 Z M61.8828,79.8000817 L34.1172,79.8000817 C34.5990311,80.8118609 34.9249231,81.8907501 35.0838,83.0000817 L60.9162,83.0000817 C61.0750769,81.8907501 61.4009689,80.8118609 61.8828,79.8000817 Z M92.8,79.8000817 L82.1172,79.8000817 C82.5990311,80.8118609 82.9249231,81.8907501 83.0838,83.0000817 L92.8,83.0000817 L92.8,79.8000817 Z M13.8828,79.8000817 L3.2,79.8000817 L3.2,83.0000817 L12.9162,83.0000817 C13.0750769,81.8907501 13.4009689,80.8118609 13.8828,79.8000817 Z M18.6388,41.4000817 L10.1612,41.4000817 L3.2,46.9690817 L3.2,76.6000817 L16.1724,76.6000817 C18.6602149,74.1551406 22.1482061,73.0142068 25.6,73.5162817 L25.6,46.9690817 L18.6388,41.4000817 Z M81.6,60.6000817 L68.8,60.6000817 L68.8,73.8682817 C72.6990609,72.7025305 76.9235927,73.7490479 79.8276,76.6000817 L92.5112,76.6000817 L91.4446,70.2000817 L86.4,70.2000817 C83.7502669,70.1971057 81.6029759,68.0498148 81.6,65.4000817 L81.6,60.6000817 Z M43.2,60.6000817 L40,60.6000817 L40,76.6000817 L43.2,76.6000817 L43.2,60.6000817 Z M65.6,60.6000817 L46.4,60.6000817 L46.4,63.8000817 L51.2,63.8000817 C52.0836556,63.8000817 52.8,64.5164261 52.8,65.4000817 C52.8,66.2837373 52.0836556,67.0000817 51.2,67.0000817 L46.4,67.0000817 L46.4,76.6000817 L64.1724,76.6000817 C64.6149725,76.1670927 65.092453,75.7712883 65.6,75.4166817 L65.6,60.6000817 Z M36.8,60.6000817 L28.8,60.6000817 L28.8,74.4828817 C29.919,75.0169114 30.9419974,75.7322933 31.8276,76.6000817 L36.8,76.6000817 L36.8,60.6000817 Z M14.4,51.0000817 C15.2836556,51.0000817 16,51.7164261 16,52.6000817 L16,52.6000817 L16,54.4752817 C17.9161103,55.1552014 19.1973794,56.966916 19.2,59.0000817 C19.2,59.8837373 18.4836556,60.6000817 17.6,60.6000817 C16.7163444,60.6000817 16,59.8837373 16,59.0000817 C16,58.1164261 15.2836556,57.4000817 14.4,57.4000817 C13.5163444,57.4000817 12.8,58.1164261 12.8,59.0000817 C12.8,59.8837373 13.5163444,60.6000817 14.4,60.6000817 C16.7370226,60.6010216 18.7337093,62.2849726 19.1289326,64.588334 C19.5241559,66.8916954 18.2030336,69.1449341 16,69.9248817 L16,69.9248817 L16,71.8000817 C16,72.6837373 15.2836556,73.4000817 14.4,73.4000817 C13.5163444,73.4000817 12.8,72.6837373 12.8,71.8000817 L12.8,71.8000817 L12.8,69.9248817 C10.8838897,69.2449619 9.6026206,67.4332473 9.6,65.4000817 C9.6,64.5164261 10.3163444,63.8000817 11.2,63.8000817 C12.0836556,63.8000817 12.8,64.5164261 12.8,65.4000817 C12.800992,66.283326 13.5167556,66.9990897 14.4,67.0000817 C15.2836556,67.0000817 16,66.2837373 16,65.4000817 C16,64.5164261 15.2836556,63.8000817 14.4,63.8000817 C12.0629774,63.7991417 10.0662907,62.1151908 9.67106737,59.8118293 C9.27584406,57.5084679 10.5969664,55.2552292 12.8,54.4752817 L12.8,54.4752817 L12.8,52.6000817 C12.8,51.7164261 13.5163444,51.0000817 14.4,51.0000817 Z M85.7784,60.6000652 L84.8,60.6000652 L84.8,65.4000817 C84.800992,66.283326 85.5167556,66.9990897 86.4,67.0000817 L90.9112,67.0000817 L90.513,64.6110817 C90.1330117,62.2933315 88.1270847,60.5939749 85.7784,60.6000652 Z M36.8,44.6000817 L28.7618,44.6000817 C28.4619242,44.6008602 28.1627702,44.6295168 27.8682,44.6856817 L28.2,44.9506817 C28.5793643,45.2544162 28.8001216,45.7141064 28.8,46.2000817 L28.8,57.4000817 L36.8,57.4000817 L36.8,44.6000817 Z M56.467,44.6000562 L46.4,44.6000562 L46.4,57.4000817 L56,57.4000817 L56,52.6000817 C56,51.7164261 56.7163444,51.0000817 57.6,51.0000817 L62.2768,51.0000817 L60.9238,47.6174817 C60.2000441,45.790889 58.4317449,44.5936924 56.467,44.6000562 Z M63.5568,54.2000817 L59.2,54.2000817 L59.2,57.4000817 L64.8368,57.4000817 L63.5568,54.2000817 Z M56.6,38.2000563 L28.855,38.2000563 C26.525257,38.1951116 24.2527673,38.921827 22.3582,40.2776817 L24.963,42.3614817 C26.1306907,41.732859 27.4356546,41.4025988 28.7618,41.4000817 L38.4,41.4000817 C39.2836556,41.4000817 40,42.1164261 40,43.0000817 L40,57.4000817 L43.2,57.4000817 L43.2,43.0000817 C43.2,42.1164261 43.9163444,41.4000817 44.8,41.4000817 L56.467,41.4000817 C59.7415362,41.3894029 62.6886584,43.3847552 63.8948,46.4290817 L68.2832,57.4000817 L71.38,57.4000817 L67.14,45.6100817 C65.534241,41.1695781 61.3219137,38.2081601 56.6,38.2000563 Z M14.4,44.6000817 C15.2836556,44.6000817 16,45.3164261 16,46.2000817 C16,47.0837373 15.2836556,47.8000817 14.4,47.8000817 C13.5163444,47.8000817 12.8,47.0837373 12.8,46.2000817 C12.8,45.3164261 13.5163444,44.6000817 14.4,44.6000817 Z" id="Combined-Shape" fill="#6F94B6" fill-rule="nonzero" mask="url(#mask-2)"></path>
            </g>
        </g>
    </g>
</svg>