<?xml version="1.0" encoding="UTF-8"?>
<svg width="104px" height="96px" viewBox="0 0 104 96" version="1.1" xmlns="http://www.w3.org/2000/svg" xmlns:xlink="http://www.w3.org/1999/xlink">
    <title>2FE2F599-02E5-4D9D-82CF-3653C7EF735F</title>
    <defs>
        <rect id="path-1" x="0" y="0" width="104" height="96"></rect>
    </defs>
    <g id="Page-1" stroke="none" stroke-width="1" fill="none" fill-rule="evenodd">
        <g id="Sulpana_Homepage_1920px" transform="translate(-1323.000000, -1002.000000)">
            <g id="licon-leasing" transform="translate(1323.000000, 1002.000000)">
                <mask id="mask-2" fill="white">
                    <use xlink:href="#path-1"></use>
                </mask>
                <g id="Rectangle-Copy-3"></g>
                <path d="M22.2563077,18.9523664 C24.3883516,16.8201466 27.3325275,15.7606301 30.3349011,16.0456411 L30.3349011,16.0456411 L42.0402198,17.1566741 C43.6783736,17.3121027 45.1298022,18.1015532 46.1492308,19.2762345 C46.5891429,19.2391356 47.0476923,19.2190917 47.5262857,19.2190917 L47.5262857,19.2190917 C50.9926593,19.2190917 55.1540659,20.1854213 59.246022,21.9399708 C61.9981978,23.1199268 64.511956,24.5692455 66.5907253,26.1551796 C67.1591648,26.0029159 67.7448352,25.9033994 68.3415824,25.8654213 C70.9137143,25.7024323 73.4353846,26.6536411 75.2583297,28.4765862 L75.2583297,28.4765862 L87.3926593,40.6109159 C89.2156044,42.4338609 90.1673407,44.9548279 90.0034725,47.5280148 C89.8397802,50.1006741 88.5766593,52.4809818 86.5376264,54.0584763 L86.5376264,54.0584763 L82.3974945,57.2614653 C81.8376703,57.6941686 81.0330989,57.5914873 80.6002198,57.0320148 C80.1673407,56.4723664 80.270022,55.667795 80.8296703,55.23474 L80.8296703,55.23474 L84.9698022,52.031751 C86.4268571,50.9047181 87.3295385,49.203795 87.4462857,47.3653774 C87.5632088,45.5269598 86.8831209,43.7256411 85.5806154,42.4229598 L85.5806154,42.4229598 L73.4462857,30.2886301 C72.1437802,28.9861246 70.3426374,28.3055093 68.5038681,28.4229598 C66.6654505,28.5397071 64.9647033,29.4423884 63.8374945,30.8994433 L63.8374945,30.8994433 L59.5285714,36.4692016 C61.3047473,36.8792235 63.0010989,37.0951356 64.5337582,37.0951356 C64.5342857,37.0951356 64.5344615,37.0951356 64.534989,37.0951356 L64.7613187,37.0930917 L64.7613187,37.0930917 L64.9836923,37.087751 C64.9698022,36.9550038 64.9617143,36.8210257 64.9617143,36.685817 C64.9617143,35.6702565 65.3573187,34.7155312 66.0753846,33.9974653 C66.7934505,33.2793994 67.7481758,32.8839708 68.7637363,32.8839708 C69.7792967,32.8839708 70.734022,33.2793994 71.4520879,33.9974653 L71.4520879,33.9974653 L81.8721319,44.4175093 C83.3545055,45.8998829 83.3545055,48.3116631 81.8721319,49.7940367 C81.1308571,50.5351356 80.1573187,50.905773 79.1837802,50.905773 C78.2102418,50.905773 77.2367033,50.5351356 76.4954286,49.7940367 L76.4954286,49.7940367 L66.2684396,39.5670477 C65.7223297,39.6268279 65.1442198,39.6574213 64.5353407,39.6574213 L64.5353407,39.6574213 C62.4862857,39.6574213 60.1947692,39.3175532 57.8188571,38.6793115 L57.8188571,38.6793115 L50.0317802,48.7447181 C48.0854066,51.2605862 48.2821538,54.8364983 50.4697582,57.1260807 L50.4697582,57.1260807 L50.473978,57.1301246 L50.5244396,57.1833994 C50.5399121,57.199751 50.5552088,57.2162785 50.5712088,57.2322785 L50.5712088,57.2322785 L58.6373187,65.2983884 C58.6534945,65.31474 58.6703736,65.3302126 58.6870769,65.3458609 L58.6870769,65.3458609 L58.7385934,65.3945642 C58.7403516,65.3963224 58.7419341,65.3984323 58.7438681,65.4001906 C61.0336264,67.5876191 64.609011,67.7840148 67.1247033,65.837817 L67.1247033,65.837817 L73.9778022,60.5358389 C74.5374505,60.102784 75.3421978,60.205817 75.7750769,60.7652895 C76.207956,61.3249378 76.1052747,62.1295093 75.5456264,62.5625642 L75.5456264,62.5625642 L68.6925275,67.8645422 C67.0680879,69.1213334 65.1268132,69.7395312 63.1929231,69.7395312 C61.3381538,69.7397071 59.4909451,69.1696851 57.9343736,68.05074 L57.9343736,68.05074 L52.0217582,73.9633554 C51.3566154,74.6286741 50.3746374,74.9066521 49.4587692,74.6889818 C49.4018022,74.6750917 49.3425495,74.6919708 49.3008791,74.7336411 L49.3008791,74.7336411 L45.033978,79.0005422 C44.8641319,79.1705642 44.6694945,79.3138609 44.4558681,79.4260367 L44.4558681,79.4260367 L39.8793407,81.8286741 L37.6505934,86.1400587 C37.4146374,86.5963224 37.0297582,86.9708279 36.566989,87.1939488 L36.566989,87.1939488 L33.0608791,88.8850257 L29.8452308,94.0185642 C29.5074725,94.5572895 28.9523956,94.9122785 28.3222418,94.9929818 L28.3222418,94.9929818 L22.4956044,95.7386521 C22.404,95.7502565 22.3127473,95.7560587 22.2221978,95.7560587 C21.6651868,95.7560587 21.1336703,95.5376851 20.7326154,95.1366301 C20.2663297,94.6705202 20.0469011,94.0278829 20.1305934,93.373817 L20.1305934,93.373817 L20.8762637,87.5473554 C20.9567912,86.9168499 21.311956,86.3615972 21.8508571,86.0241906 L21.8508571,86.0241906 L26.9843956,82.8085422 L28.6752967,79.3022565 C28.8985934,78.8394873 29.2727473,78.454784 29.729011,78.2188279 L29.729011,78.2188279 L34.0407473,75.9899049 L36.4432088,71.413729 C36.5555604,71.2001027 36.6986813,71.0056411 36.8688791,70.8354433 L36.8688791,70.8354433 L41.135956,66.5683664 C41.1769231,66.5272235 41.193978,66.46674 41.1806154,66.4104763 C40.9627692,65.4949598 41.2407473,64.5129818 41.9060659,63.8474873 L41.9060659,63.8474873 L47.8192088,57.9343444 C45.5338462,54.75474 45.5428132,50.3589598 48.0050549,47.1765422 L48.0050549,47.1765422 L55.2061099,37.8685862 C54.4103297,37.5881466 53.6117363,37.2776411 52.8156044,36.9361906 C51.3998681,36.3292455 50.049011,35.6496851 48.7857143,34.9184323 C48.9284835,37.7616851 47.8733626,40.5193115 45.8485714,42.5442785 L45.8485714,42.5442785 L25.1610989,63.231751 C24.1478242,64.2452016 22.8004835,64.8032675 21.3673407,64.8032675 C19.9341978,64.8032675 18.5868571,64.2450257 17.5735824,63.231751 L17.5735824,63.231751 L1.56883516,47.2270038 C-0.522945055,45.1350477 -0.522945055,41.7312675 1.56883516,39.6394873 L1.56883516,39.6394873 L4.09015385,37.1183444 C4.59054945,36.6181246 5.4018022,36.6181246 5.90202198,37.1183444 C6.40241758,37.61874 6.40241758,38.4299928 5.90202198,38.9302126 L5.90202198,38.9302126 L3.38052747,41.4517071 C2.85112088,41.9811137 2.5596044,42.6849378 2.5596044,43.4335972 C2.5596044,44.1822565 2.85112088,44.8860807 3.38052747,45.4154873 L3.38052747,45.4154873 L19.3852747,61.4202345 C19.9146813,61.9496411 20.6185055,62.2411576 21.3671648,62.2411576 C22.1158242,62.2411576 22.8196484,61.9496411 23.3490549,61.4202345 L23.3490549,61.4202345 L44.0365275,40.732762 C45.6266813,39.1426082 46.4168352,36.9465642 46.2042637,34.7081466 L46.2042637,34.7081466 L46.0569231,33.1563224 C44.806989,32.2529378 43.6954286,31.3003224 42.764967,30.3223884 C42.2846154,29.8175972 41.8614066,29.3143884 41.4944615,28.8155752 C40.9105495,29.1141246 40.2698462,29.2651576 39.6286154,29.2651576 C38.5801758,29.2651576 37.5313846,28.8660367 36.7331429,28.067795 C35.1364835,26.4711356 35.1364835,23.8733334 36.7331429,22.2766741 C38.329978,20.6800148 40.9277802,20.6801906 42.5242637,22.2766741 C43.7856264,23.5380367 44.0461978,25.4226961 43.3145934,26.9465642 L43.3145934,26.9465642 L43.3821099,27.0466082 C43.412,27.0900367 43.4417143,27.1332895 43.4728352,27.1770697 C43.5357802,27.2653334 43.6013626,27.3543005 43.6692308,27.4436191 C43.6945495,27.4768499 43.7209231,27.5104323 43.7469451,27.5438389 C43.8093626,27.6241906 43.8737143,27.7047181 43.9401758,27.785773 C43.9588132,27.8084543 43.9765714,27.8309598 43.9955604,27.8536411 C44.079956,27.9550917 44.168044,28.0570697 44.2584176,28.1593994 L44.2584176,28.1593994 L44.3264615,28.2355312 C44.4219341,28.3420807 44.5195165,28.448806 44.6214945,28.5560587 C44.7380659,28.6784323 44.859033,28.8002785 44.9821099,28.9219488 L44.9821099,28.9219488 L45.1043077,29.0416851 C45.1915165,29.1262565 45.2804835,29.2106521 45.3708571,29.2946961 C45.4735385,29.3905202 45.5786813,29.485817 45.6850549,29.5809378 C45.697011,29.5916631 45.708967,29.6022126 45.7207473,29.612762 L45.7207473,29.612762 L45.0934066,23.0028279 C44.9277802,21.2590038 43.5419341,19.8731576 41.7981099,19.7075312 L41.7981099,19.7075312 L30.0927912,18.5964983 C27.854022,18.383751 25.6581538,19.1742565 24.0681758,20.7642345 L24.0681758,20.7642345 L11.8204396,33.0119708 C11.320044,33.5121906 10.5087912,33.5121906 10.0085714,33.0119708 C9.50817582,32.5115752 9.50817582,31.7003224 10.0085714,31.2001027 L10.0085714,31.2001027 Z M49.5463297,59.8309598 L43.7181099,65.6598829 C43.6766154,65.7013774 43.6597363,65.7604543 43.6734505,65.817773 C43.8912967,66.7332895 43.6131429,67.7154433 42.9476484,68.380762 L42.9476484,68.380762 L38.6995604,72.6288499 L36.2837363,77.2305202 C36.054989,77.6660367 35.7031648,78.0155752 35.2664176,78.2413334 L35.2664176,78.2413334 L30.9578462,80.4686741 L29.2702857,83.967751 C29.0744176,84.373729 28.769011,84.7146521 28.3871209,84.953773 L28.3871209,84.953773 L23.3909011,88.0834433 L22.7458022,93.1236191 L27.7861538,92.4786961 L30.916,87.4821246 C31.1552967,87.1000587 31.4962198,86.7948279 31.902022,86.5991356 L31.902022,86.5991356 L35.4009231,84.9115752 L37.6280879,80.6030038 C37.8543736,80.165729 38.2039121,79.8139049 38.6394286,79.5855093 L38.6394286,79.5855093 L43.2403956,77.1698609 L47.4888352,72.9214213 C48.1543297,72.2559268 49.1364835,71.9781246 50.0518242,72.195795 C50.1079121,72.2091576 50.1687473,72.1921027 50.2097143,72.1511356 L50.2097143,72.1511356 L56.0381099,66.32274 L49.5463297,59.8309598 Z M12.0704615,36.6161906 C13.8547253,34.8319268 16.7579341,34.8319268 18.5421978,36.6161906 L18.5421978,36.6161906 L28.1843956,46.2583884 C29.9686593,48.0426521 29.9686593,50.9460367 28.1843956,52.7303005 L28.1843956,52.7303005 L24.3688352,56.5458609 C23.4767033,57.4379928 22.3046593,57.8840587 21.1327912,57.8840587 C19.9609231,57.8840587 18.7890549,57.4379928 17.8969231,56.5458609 L17.8969231,56.5458609 L8.2549011,46.9036631 C6.47063736,45.1193994 6.47063736,42.2160148 8.2549011,40.431751 L8.2549011,40.431751 Z M15.3063297,37.8392235 C14.7906374,37.8392235 14.2749451,38.0354433 13.8823297,38.4280587 L13.8823297,38.4280587 L10.0667692,42.2436191 C9.68628571,42.6239268 9.47687912,43.129773 9.47687912,43.6676191 C9.47687912,44.2054653 9.68646154,44.7111356 10.0667692,45.0916191 L10.0667692,45.0916191 L19.7087912,54.733817 C20.494022,55.5188719 21.7717363,55.5190477 22.556967,54.733817 L22.556967,54.733817 L26.3725275,50.9184323 C27.1577582,50.1332016 27.1577582,48.8554873 26.3725275,48.0702565 L26.3725275,48.0702565 L16.7303297,38.4280587 C16.3377143,38.0354433 15.822022,37.8392235 15.3063297,37.8392235 Z M71.2314286,37.4003664 C70.7146813,37.997817 70.0221099,38.4825642 69.1732308,38.8479268 L69.1732308,38.8479268 L78.3071209,47.981817 C78.5413187,48.2160148 78.8525275,48.3448939 79.1836044,48.3448939 C79.5146813,48.3448939 79.8258901,48.2160148 80.0600879,47.981817 C80.5434286,47.4986521 80.5434286,46.7123664 80.0600879,46.2290257 L80.0600879,46.2290257 Z M23.7548571,24.931795 C25.5391209,23.1475312 28.4425055,23.1475312 30.2267692,24.931795 L30.2267692,24.931795 L39.8687912,34.5739928 C41.6530549,36.3582565 41.6530549,39.2616411 39.8687912,41.0459049 L39.8687912,41.0459049 L36.0532308,44.8612895 C35.1612747,45.7532455 33.9890549,46.1994873 32.8173626,46.1994873 C31.6453187,46.1994873 30.4736264,45.7535972 29.5813187,44.8612895 L29.5813187,44.8612895 L19.9392967,35.2192675 C18.155033,33.4350038 18.155033,30.5316191 19.9392967,28.7473554 L19.9392967,28.7473554 Z M26.9909011,26.1548279 C26.475033,26.1548279 25.9593407,26.3512235 25.5667253,26.7438389 L25.5667253,26.7438389 L21.7511648,30.5592235 C20.9659341,31.3444543 20.9659341,32.6221686 21.7511648,33.4073994 L21.7511648,33.4073994 L31.3931868,43.0494213 C31.7736703,43.429729 32.2793407,43.6393115 32.8173626,43.6393115 C33.3552088,43.6393115 33.8608791,43.429729 34.2413626,43.0494213 L34.2413626,43.0494213 L38.0569231,39.2340367 C38.4372308,38.8535532 38.6468132,38.3478829 38.6468132,37.8098609 C38.6468132,37.2720148 38.4372308,36.7663444 38.0569231,36.3858609 L38.0569231,36.3858609 L28.4149011,26.7436631 C28.0222857,26.3512235 27.5065934,26.1548279 26.9909011,26.1548279 Z M68.7637363,35.4460807 C68.4326593,35.4460807 68.1214505,35.5749598 67.8872527,35.8091576 C67.6530549,36.0431796 67.5241758,36.3543884 67.5241758,36.6854653 C67.5241758,36.697773 67.5255824,36.709729 67.5259341,36.7218609 C68.3823736,36.4676191 69.0174505,36.0894213 69.3782418,35.6099488 C69.1929231,35.503751 68.982989,35.4460807 68.7637363,35.4460807 Z M47.5275165,21.7810257 L47.4701978,21.781729 C47.5526593,22.0990917 47.6122637,22.4255972 47.6440879,22.7603664 L47.6440879,22.7603664 L48.4954286,31.7298609 C50.0832967,32.7812895 51.886022,33.749729 53.8251868,34.5812016 C54.8412747,35.0168939 55.8584176,35.3980807 56.8641319,35.7252895 L56.8641319,35.7252895 L61.8109451,29.3310917 C62.4057582,28.5622126 63.1148571,27.9041027 63.905011,27.3731137 C62.2366154,26.2339488 60.3141538,25.1856851 58.2360879,24.2946082 C54.4562198,22.6736851 50.652967,21.7810257 47.5275165,21.7810257 L47.5275165,21.7810257 Z M39.6287912,23.6393115 C39.2194725,23.6393115 38.8345934,23.798784 38.545011,24.0881906 C38.2556044,24.3775972 38.0961319,24.7624763 38.0961319,25.171795 C38.0961319,25.5811137 38.2556044,25.9659928 38.545011,26.2555752 C38.8345934,26.5449818 39.2194725,26.7044543 39.6287912,26.7044543 C39.8362637,26.7044543 40.0374066,26.6631356 40.2230769,26.5850697 C39.8123516,25.5554433 39.6732747,24.5678389 39.8174505,23.6521466 C39.7552088,23.6445862 39.6924396,23.6393115 39.6287912,23.6393115 Z" id="Combined-Shape" fill="#6F94B6" fill-rule="nonzero" mask="url(#mask-2)"></path>
            </g>
        </g>
    </g>
</svg>