<?xml version="1.0" encoding="UTF-8"?>
<svg width="223px" height="48px" viewBox="0 0 223 48" version="1.1" xmlns="http://www.w3.org/2000/svg" xmlns:xlink="http://www.w3.org/1999/xlink">
    <title>07A6A1DC-2E16-428D-A214-4A0354C87029</title>
    <defs>
        <polygon id="path-1" points="0 47.5428571 222.2584 47.5428571 222.2584 0 0 0"></polygon>
    </defs>
    <g id="Page-1" stroke="none" stroke-width="1" fill="none" fill-rule="evenodd">
        <g id="Sulpana_Homepage_1920px" transform="translate(-1657.000000, -3393.000000)">
            <g id="logo-GOIGoC-sm" transform="translate(1657.000000, 3393.000000)">
                <path d="M131.491905,38.7944762 L132.257048,38.7944762 L132.257048,41.0601905 C131.980705,41.2984 131.659295,41.4806476 131.293314,41.6079238 C130.926343,41.7347048 130.544019,41.7985905 130.144857,41.7985905 C129.582267,41.7985905 129.074152,41.6703238 128.62299,41.4128 C128.171333,41.1557714 127.816743,40.8016762 127.559219,40.3510095 C127.3012,39.8993524 127.172438,39.3922286 127.172438,38.8276571 C127.172438,38.2630857 127.3012,37.753981 127.559219,37.3003429 C127.816743,36.8462095 128.172819,36.4926095 128.626952,36.2380571 C129.081581,35.9835048 129.592667,35.8557333 130.160705,35.8557333 C130.60741,35.8557333 131.012514,35.932 131.37701,36.0845333 C131.740514,36.2365714 132.050038,36.4594286 132.305086,36.7526095 L131.810838,37.2671619 C131.364629,36.8194667 130.824819,36.5951238 130.192895,36.5951238 C129.767981,36.5951238 129.386648,36.6902095 129.04939,36.8813714 C128.712133,37.0715429 128.447676,37.337981 128.256514,37.6777143 C128.064857,38.0184381 127.969771,38.4017524 127.969771,38.8276571 C127.969771,39.2481143 128.064857,39.6289524 128.256514,39.9686857 C128.447676,40.3094095 128.712133,40.5763429 129.04939,40.7694857 C129.386648,40.963619 129.765505,41.0601905 130.184971,41.0601905 C130.684171,41.0601905 131.119981,40.9353905 131.491905,40.686781 L131.491905,38.7944762 Z" id="Fill-1" fill="#F1F2F2"></path>
                <path d="M137.006777,38.9187314 C137.272225,38.6919124 137.405939,38.3685219 137.405939,37.9475695 C137.405939,37.5271124 137.272225,37.2052076 137.006777,36.9808648 C136.74133,36.7570171 136.356034,36.6445981 135.851387,36.6445981 L134.49691,36.6445981 L134.49691,39.25896 L135.851387,39.25896 C136.356034,39.25896 136.74133,39.1460457 137.006777,38.9187314 L137.006777,38.9187314 Z M137.42971,41.7326743 L136.226282,39.9478362 C136.077215,39.9592267 135.960339,39.964179 135.875653,39.964179 L134.49691,39.964179 L134.49691,41.7326743 L133.700072,41.7326743 L133.700072,35.922541 L135.875653,35.922541 C136.598206,35.922541 137.166244,36.1023124 137.580758,36.4618552 C137.995272,36.8218933 138.202282,37.3171314 138.202282,37.9475695 C138.202282,38.39576 138.096301,38.7775886 137.883844,39.0935505 C137.671387,39.4080267 137.368301,39.6383124 136.975577,39.7819314 L138.297863,41.7326743 L137.42971,41.7326743 Z" id="Fill-3" fill="#F1F2F2"></path>
                <path d="M143.036202,40.7695848 C143.362564,40.5759467 143.620583,40.3090133 143.809269,39.9687848 C143.997459,39.6285562 144.09205,39.2482133 144.09205,38.8277562 C144.09205,38.4068038 143.997459,38.0269562 143.809269,37.6862324 C143.620583,37.3460038 143.362564,37.0790705 143.036202,36.8854324 C142.709345,36.6922895 142.341383,36.5947276 141.932316,36.5947276 C141.522754,36.5947276 141.151821,36.6922895 140.820011,36.8854324 C140.488697,37.0790705 140.227707,37.3460038 140.039021,37.6862324 C139.850335,38.0269562 139.756735,38.4068038 139.756735,38.8277562 C139.756735,39.2482133 139.850335,39.6285562 140.039021,39.9687848 C140.227707,40.3090133 140.488697,40.5759467 140.820011,40.7695848 C141.151821,40.9637181 141.522754,41.0602895 141.932316,41.0602895 C142.341383,41.0602895 142.709345,40.9637181 143.036202,40.7695848 M140.409954,41.412899 C139.958297,41.1553752 139.603211,40.8002895 139.346183,40.3466514 C139.088164,39.8925181 138.959402,39.3863848 138.959402,38.8277562 C138.959402,38.2681371 139.088164,37.762499 139.346183,37.3083657 C139.603211,36.8552229 139.958297,36.4996419 140.409954,36.2416229 C140.861116,35.9845943 141.36923,35.8558324 141.932316,35.8558324 C142.489459,35.8558324 142.994602,35.9845943 143.446259,36.2416229 C143.897916,36.4996419 144.251516,36.8537371 144.506564,37.3044038 C144.761116,37.7555657 144.888888,38.2626895 144.888888,38.8277562 C144.888888,39.3923276 144.761116,39.8994514 144.506564,40.3506133 C144.251516,40.80128 143.897916,41.1553752 143.446259,41.412899 C142.994602,41.6699276 142.489459,41.7986895 141.932316,41.7986895 C141.36923,41.7986895 140.861116,41.6699276 140.409954,41.412899" id="Fill-5" fill="#F1F2F2"></path>
                <path d="M146.602015,41.1347238 C146.187501,40.6924762 145.980491,40.0556 145.980491,39.2260762 L145.980491,35.9228381 L146.77733,35.9228381 L146.77733,39.1924 C146.77733,40.4379238 147.300796,41.0604381 148.347234,41.0604381 C148.857825,41.0604381 149.248568,40.9069143 149.519463,40.5998667 C149.789863,40.2923238 149.925558,39.8238286 149.925558,39.1924 L149.925558,35.9228381 L150.698625,35.9228381 L150.698625,39.2260762 C150.698625,40.0610476 150.491615,40.6989143 150.077596,41.139181 C149.663082,41.5789524 149.084149,41.7988381 148.339806,41.7988381 C147.595958,41.7988381 147.01653,41.5779619 146.602015,41.1347238" id="Fill-7" fill="#F1F2F2"></path>
                <path d="M155.560328,38.9148686 C155.825775,38.6905257 155.95949,38.3681257 155.95949,37.9476686 C155.95949,37.5272114 155.825775,37.2053067 155.560328,36.9809638 C155.29488,36.7571162 154.909585,36.6446971 154.404442,36.6446971 L153.049966,36.6446971 L153.049966,39.25064 L154.404442,39.25064 C154.909585,39.25064 155.29488,39.1387162 155.560328,38.9148686 M156.134309,36.4619543 C156.548823,36.8214971 156.755832,37.3167352 156.755832,37.9476686 C156.755832,38.5781067 156.548823,39.07384 156.134309,39.4338781 C155.719794,39.7929257 155.151261,39.9731924 154.429204,39.9731924 L153.049966,39.9731924 L153.049966,41.7322781 L152.253128,41.7322781 L152.253128,35.92264 L154.429204,35.92264 C155.151261,35.92264 155.719794,36.1019162 156.134309,36.4619543" id="Fill-9" fill="#F1F2F2"></path>
                <path d="M163.613741,40.7695848 C163.940598,40.5759467 164.197627,40.3090133 164.386312,39.9687848 C164.574998,39.6285562 164.669589,39.2482133 164.669589,38.8277562 C164.669589,38.4068038 164.574998,38.0269562 164.386312,37.6862324 C164.197627,37.3460038 163.940598,37.0790705 163.613741,36.8854324 C163.286884,36.6922895 162.919417,36.5947276 162.509855,36.5947276 C162.099798,36.5947276 161.73035,36.6922895 161.39755,36.8854324 C161.065741,37.0790705 160.805246,37.3460038 160.616065,37.6862324 C160.42837,38.0269562 160.334274,38.4068038 160.334274,38.8277562 C160.334274,39.2482133 160.42837,39.6285562 160.616065,39.9687848 C160.805246,40.3090133 161.065741,40.5759467 161.39755,40.7695848 C161.73035,40.9637181 162.099798,41.0602895 162.509855,41.0602895 C162.919417,41.0602895 163.286884,40.9637181 163.613741,40.7695848 M160.986998,41.412899 C160.535341,41.1553752 160.181246,40.8002895 159.923722,40.3466514 C159.665703,39.8925181 159.537436,39.3863848 159.537436,38.8277562 C159.537436,38.2681371 159.665703,37.762499 159.923722,37.3083657 C160.181246,36.8552229 160.535341,36.4996419 160.986998,36.2416229 C161.43915,35.9845943 161.946274,35.8558324 162.509855,35.8558324 C163.067989,35.8558324 163.572141,35.9845943 164.024293,36.2416229 C164.475455,36.4996419 164.829055,36.8537371 165.084103,37.3044038 C165.338655,37.7555657 165.465931,38.2626895 165.465931,38.8277562 C165.465931,39.3923276 165.338655,39.8994514 165.084103,40.3506133 C164.829055,40.80128 164.475455,41.1553752 164.024293,41.412899 C163.572141,41.6699276 163.067989,41.7986895 162.509855,41.7986895 C161.946274,41.7986895 161.43915,41.6699276 160.986998,41.412899" id="Fill-11" fill="#F1F2F2"></path>
                <polygon id="Fill-13" fill="#F1F2F2" points="167.402956 36.6446971 167.402956 38.6697257 170.201051 38.6697257 170.201051 39.3833638 167.402956 39.3833638 167.402956 41.7322781 166.606613 41.7322781 166.606613 35.92264 170.543756 35.92264 170.543756 36.6446971"></polygon>
                <path d="M174.635215,41.4128495 C174.187025,41.1553257 173.83491,40.8017257 173.579863,40.3505638 C173.324815,39.8994019 173.196549,39.3922781 173.196549,38.8277067 C173.196549,38.2631352 173.324815,37.7555162 173.579863,37.3043543 C173.83491,36.8536876 174.188015,36.4995924 174.639177,36.2420686 C175.090834,35.9845448 175.595482,35.8557829 176.153615,35.8557829 C176.58893,35.8557829 176.987596,35.9320495 177.348625,36.0845829 C177.710644,36.236621 178.019177,36.4619543 178.274225,36.7605829 L177.75571,37.2835543 C177.336244,36.8244686 176.812282,36.5946781 176.18531,36.5946781 C175.770796,36.5946781 175.395901,36.69224 175.06112,36.8853829 C174.726834,37.079021 174.464853,37.3459543 174.276168,37.6866781 C174.088472,38.0269067 173.994377,38.4072495 173.994377,38.8277067 C173.994377,39.2481638 174.088472,39.6285067 174.276168,39.9687352 C174.464853,40.3089638 174.726834,40.5763924 175.06112,40.7695352 C175.395901,40.9636686 175.770796,41.06024 176.18531,41.06024 C176.806834,41.06024 177.329806,40.8274781 177.75571,40.36344 L178.274225,40.8864114 C178.019177,41.18504 177.708663,41.411859 177.345158,41.5668686 C176.980663,41.7213829 176.581501,41.79864 176.146187,41.79864 C175.588053,41.79864 175.084891,41.6703733 174.635215,41.4128495" id="Fill-15" fill="#F1F2F2"></path>
                <path d="M182.836606,40.7695848 C183.163463,40.5759467 183.420491,40.3090133 183.609177,39.9687848 C183.797863,39.6285562 183.892453,39.2482133 183.892453,38.8277562 C183.892453,38.4068038 183.797863,38.0269562 183.609177,37.6862324 C183.420491,37.3460038 183.163463,37.0790705 182.836606,36.8854324 C182.509749,36.6922895 182.142282,36.5947276 181.73272,36.5947276 C181.322663,36.5947276 180.953215,36.6922895 180.620415,36.8854324 C180.288606,37.0790705 180.02811,37.3460038 179.83893,37.6862324 C179.651234,38.0269562 179.557139,38.4068038 179.557139,38.8277562 C179.557139,39.2482133 179.651234,39.6285562 179.83893,39.9687848 C180.02811,40.3090133 180.288606,40.5759467 180.620415,40.7695848 C180.953215,40.9637181 181.322663,41.0602895 181.73272,41.0602895 C182.142282,41.0602895 182.509749,40.9637181 182.836606,40.7695848 M180.209863,41.412899 C179.758206,41.1553752 179.40411,40.8002895 179.146587,40.3466514 C178.888568,39.8925181 178.759806,39.3863848 178.759806,38.8277562 C178.759806,38.2681371 178.888568,37.762499 179.146587,37.3083657 C179.40411,36.8552229 179.758206,36.4996419 180.209863,36.2416229 C180.662015,35.9845943 181.169139,35.8558324 181.73272,35.8558324 C182.290853,35.8558324 182.795006,35.9845943 183.247158,36.2416229 C183.69832,36.4996419 184.05192,36.8537371 184.306968,37.3044038 C184.56152,37.7555657 184.688796,38.2626895 184.688796,38.8277562 C184.688796,39.3923276 184.56152,39.8994514 184.306968,40.3506133 C184.05192,40.80128 183.69832,41.1553752 183.247158,41.412899 C182.795006,41.6699276 182.290853,41.7986895 181.73272,41.7986895 C181.169139,41.7986895 180.662015,41.6699276 180.209863,41.412899" id="Fill-17" fill="#F1F2F2"></path>
                <polygon id="Fill-19" fill="#F1F2F2" points="191.001745 41.7325257 190.99283 37.4992305 188.977211 41.0268114 188.610735 41.0268114 186.594126 37.5244876 186.594126 41.7325257 185.829478 41.7325257 185.829478 35.9228876 186.483192 35.9228876 188.809821 40.0061257 191.10525 35.9228876 191.758469 35.9228876 191.766888 41.7325257"></polygon>
                <path d="M196.667962,38.9148686 C196.93341,38.6905257 197.067124,38.3681257 197.067124,37.9476686 C197.067124,37.5272114 196.93341,37.2053067 196.667962,36.9809638 C196.402514,36.7571162 196.017219,36.6446971 195.512076,36.6446971 L194.158095,36.6446971 L194.158095,39.25064 L195.512076,39.25064 C196.017219,39.25064 196.402514,39.1387162 196.667962,38.9148686 M197.241943,36.4619543 C197.656457,36.8214971 197.863467,37.3167352 197.863467,37.9476686 C197.863467,38.5781067 197.656457,39.07384 197.241943,39.4338781 C196.827429,39.7929257 196.2584,39.9731924 195.536343,39.9731924 L194.158095,39.9731924 L194.158095,41.7322781 L193.359771,41.7322781 L193.359771,35.92264 L195.536343,35.92264 C196.2584,35.92264 196.827429,36.1019162 197.241943,36.4619543" id="Fill-21" fill="#F1F2F2"></path>
                <path d="M201.951657,39.6161257 L200.748229,36.7690019 L199.5448,39.6161257 L201.951657,39.6161257 Z M202.230476,40.28024 L199.266476,40.28024 L198.652876,41.7322781 L197.831771,41.7322781 L200.357981,35.92264 L201.146895,35.92264 L203.681029,41.7322781 L202.845067,41.7322781 L202.230476,40.28024 Z" id="Fill-23" fill="#F1F2F2"></path>
                <polygon id="Fill-25" fill="#F1F2F2" points="209.227844 35.92264 209.227844 41.7322781 208.57512 41.7322781 205.22731 37.3999352 205.22731 41.7322781 204.429977 41.7322781 204.429977 35.92264 205.084187 35.92264 208.431006 40.2554781 208.431006 35.92264"></polygon>
                <mask id="mask-2" fill="white">
                    <use xlink:href="#path-1"></use>
                </mask>
                <g id="Clip-28"></g>
                <polygon id="Fill-27" fill="#F1F2F2" mask="url(#mask-2)" points="210.822362 41.7322286 211.618705 41.7322286 211.618705 35.9225905 210.822362 35.9225905"></polygon>
                <polygon id="Fill-29" fill="#F1F2F2" mask="url(#mask-2)" points="217.261448 41.0104686 217.261448 41.7325257 213.212381 41.7325257 213.212381 35.9228876 217.149524 35.9228876 217.149524 36.6449448 214.010705 36.6449448 214.010705 38.4287924 216.807314 38.4287924 216.807314 39.1350019 214.010705 39.1350019 214.010705 41.0104686"></polygon>
                <path d="M218.88355,41.5956419 C218.492312,41.4604419 218.18576,41.2841371 217.963398,41.0687086 L218.25757,40.4209371 C218.470027,40.6205181 218.742408,40.7819657 219.074217,40.9067657 C219.407017,41.0310705 219.748236,41.0929752 220.09837,41.0929752 C220.560922,41.0929752 220.906103,41.0117562 221.134408,40.8483276 C221.363208,40.6853943 221.477112,40.46848 221.477112,40.1970895 C221.477112,39.9980038 221.414712,39.8355657 221.289912,39.711261 C221.164617,39.5869562 221.011093,39.4913752 220.82835,39.4250133 C220.644617,39.3586514 220.385608,39.2843657 220.050827,39.2011657 C219.630865,39.0961752 219.291627,38.9906895 219.034103,38.8852038 C218.776084,38.7802133 218.556693,38.6182705 218.37395,38.4003657 C218.189722,38.1809752 218.098103,37.887299 218.098103,37.5163657 C218.098103,37.2063467 218.175855,36.9270324 218.333836,36.6774324 C218.490331,36.4288229 218.728046,36.2292419 219.046979,36.07968 C219.364922,35.9311086 219.760617,35.8558324 220.234065,35.8558324 C220.563893,35.8558324 220.887284,35.9004038 221.206217,35.9890514 C221.524655,36.0772038 221.799017,36.20448 222.027817,36.37088 L221.763855,37.0349943 C221.530598,36.8799848 221.280503,36.7621181 221.015055,36.6818895 C220.749608,36.601661 220.488617,36.5615467 220.234065,36.5615467 C219.781912,36.5615467 219.443665,36.6472229 219.218331,36.8190705 C218.992503,36.9904229 218.879589,37.211299 218.879589,37.4826895 C218.879589,37.6822705 218.942484,37.8442133 219.070255,37.9685181 C219.197531,38.0933181 219.356008,38.1898895 219.545189,38.2592229 C219.733874,38.328061 219.989417,38.4018514 220.313798,38.4786133 C220.73376,38.584099 221.071512,38.6895848 221.32656,38.7945752 C221.581112,38.900061 221.800008,39.0600229 221.983246,39.2754514 C222.166979,39.4913752 222.258103,39.78208 222.258103,40.1475657 C222.258103,40.4511467 222.17837,40.7294705 222.018903,40.9815467 C221.860427,41.2331276 221.61776,41.4327086 221.293874,41.579299 C220.969989,41.7253943 220.571322,41.7986895 220.09837,41.7986895 C219.678903,41.7986895 219.273303,41.7308419 218.88355,41.5956419" id="Fill-30" fill="#F1F2F2" mask="url(#mask-2)"></path>
                <path d="M64.550621,23.5457981 L67.6057448,23.5457981 L67.6057448,29.37376 C66.8212876,29.9621029 65.913021,30.41376 64.8809448,30.727741 C63.8488686,31.0427124 62.8093638,31.2001981 61.763421,31.2001981 C60.2633448,31.2001981 58.9143162,30.88176 57.7173257,30.2458743 C56.51984,29.6094933 55.5803733,28.726979 54.899421,27.5983314 C54.2179733,26.4696838 53.8772495,25.1944457 53.8772495,23.7716267 C53.8772495,22.3488076 54.2179733,21.0730743 54.899421,19.9444267 C55.5803733,18.8152838 56.5267733,17.9332648 57.7376305,17.2968838 C58.9484876,16.6609981 60.3113829,16.3430552 61.8253257,16.3430552 C63.0916495,16.3430552 64.2410971,16.5550171 65.2731733,16.978941 C66.3052495,17.40336 67.1724114,18.018941 67.8741638,18.8256838 L65.7273067,20.795741 C64.6952305,19.7151314 63.4492114,19.1748267 61.9907352,19.1748267 C61.0686019,19.1748267 60.2494781,19.3664838 59.533859,19.7493029 C58.81824,20.1321219 58.2606019,20.6729219 57.86144,21.3702171 C57.4622781,22.0685029 57.2631924,22.8688076 57.2631924,23.7716267 C57.2631924,24.6610743 57.4622781,25.4539505 57.86144,26.151741 C58.2606019,26.8495314 58.8147733,27.3933029 59.523459,27.7830552 C60.2321448,28.1733029 61.0408686,28.3684267 61.9496305,28.3684267 C62.9123733,28.3684267 63.7795352,28.1629029 64.550621,27.7523505 L64.550621,23.5457981 Z" id="Fill-31" fill="#F1F2F2" mask="url(#mask-2)"></path>
                <path d="M80.0132914,27.7831543 C80.7016724,27.3934019 81.2414819,26.8496305 81.6337105,26.15184 C82.025939,25.4540495 82.2220533,24.6611733 82.2220533,23.7712305 C82.2220533,22.8822781 82.025939,22.0889067 81.6337105,21.3911162 C81.2414819,20.6933257 80.7016724,20.1495543 80.0132914,19.7598019 C79.3249105,19.3695543 78.55432,19.1749257 77.7010248,19.1749257 C76.8472343,19.1749257 76.0766438,19.3695543 75.3887581,19.7598019 C74.7003771,20.1495543 74.1605676,20.6933257 73.768339,21.3911162 C73.3761105,22.0889067 73.1799962,22.8822781 73.1799962,23.7712305 C73.1799962,24.6611733 73.3761105,25.4540495 73.768339,26.15184 C74.1605676,26.8496305 74.7003771,27.3934019 75.3887581,27.7831543 C76.0766438,28.1734019 76.8472343,28.3685257 77.7010248,28.3685257 C78.55432,28.3685257 79.3249105,28.1734019 80.0132914,27.7831543 M73.6445295,30.2355733 C72.4401105,29.592259 71.4971771,28.7067733 70.8162248,27.5781257 C70.1347771,26.4494781 69.7940533,25.1806781 69.7940533,23.7712305 C69.7940533,22.3627733 70.1347771,21.0934781 70.8162248,19.9648305 C71.4971771,18.8361829 72.4401105,17.9506971 73.6445295,17.3073829 C74.8484533,16.6645638 76.2009486,16.342659 77.7010248,16.342659 C79.201101,16.342659 80.5496343,16.6645638 81.7476152,17.3073829 C82.9446057,17.9506971 83.887539,18.8361829 84.57592,19.9648305 C85.2638057,21.0934781 85.6079962,22.3627733 85.6079962,23.7712305 C85.6079962,25.1806781 85.2638057,26.4494781 84.57592,27.5781257 C83.887539,28.7067733 82.9446057,29.592259 81.7476152,30.2355733 C80.5496343,30.8783924 79.201101,31.1998019 77.7010248,31.1998019 C76.2009486,31.1998019 74.8484533,30.8783924 73.6445295,30.2355733" id="Fill-32" fill="#F1F2F2" mask="url(#mask-2)"></path>
                <polygon id="Fill-33" fill="#F1F2F2" mask="url(#mask-2)" points="88.7664762 30.9538667 90.2937905 30.9538667 90.2937905 16.5889905 88.7664762 16.5889905"></polygon>
                <polygon id="Fill-34" fill="#F1F2F2" mask="url(#mask-2)" points="107.078004 16.58904 107.078004 30.9539162 105.818613 30.9539162 96.5284419 19.2979924 96.5284419 30.9539162 95.0011276 30.9539162 95.0011276 16.58904 96.2600229 16.58904 105.570994 28.2449638 105.570994 16.58904"></polygon>
                <polygon id="Fill-35" fill="#F1F2F2" mask="url(#mask-2)" points="114.5924 17.90256 109.513733 17.90256 109.513733 16.5891886 121.198381 16.5891886 121.198381 17.90256 116.12021 17.90256 116.12021 30.9540648 114.5924 30.9540648"></polygon>
                <polygon id="Fill-36" fill="#F1F2F2" mask="url(#mask-2)" points="133.982606 29.6402971 133.982606 30.9536686 123.763368 30.9536686 123.763368 16.5887924 133.672587 16.5887924 133.672587 17.902659 125.291177 17.902659 125.291177 23.0120305 132.76432 23.0120305 132.76432 24.3050971 125.291177 24.3050971 125.291177 29.6402971"></polygon>
                <path d="M147.669402,23.7714286 L149.135802,23.7714286 L149.135802,29.2502476 C148.461288,29.8385905 147.662469,30.2902476 146.74083,30.6047238 C145.818697,30.9196952 144.84803,31.077181 143.829821,31.077181 C142.384716,31.077181 141.084221,30.7622095 139.92784,30.1332571 C138.771954,29.5038095 137.863192,28.6312 137.202545,27.516419 C136.542392,26.4021333 136.212069,25.1536381 136.212069,23.7714286 C136.212069,22.3897143 136.542392,21.141219 137.202545,20.0264381 C137.863192,18.9116571 138.771954,18.0390476 139.92784,17.4100952 C141.084221,16.7806476 142.39165,16.4661714 143.850126,16.4661714 C144.951535,16.4661714 145.963307,16.6404952 146.884945,16.9891429 C147.807078,17.3382857 148.585097,17.854819 149.218011,18.5387429 L148.268145,19.5029714 C147.12563,18.3812571 145.674088,17.8201524 143.912526,17.8201524 C142.742278,17.8201524 141.685935,18.0766857 140.743497,18.5897524 C139.800564,19.102819 139.060678,19.8144762 138.524335,20.7242286 C137.987497,21.6344762 137.719078,22.6497143 137.719078,23.7714286 C137.719078,24.8936381 137.987497,25.9059048 138.524335,26.8087238 C139.060678,27.7115429 139.797097,28.4232 140.733097,28.9427048 C141.669097,29.4627048 142.721973,29.7227048 143.891726,29.7227048 C145.377935,29.7227048 146.637326,29.3532571 147.669402,28.6143619 L147.669402,23.7714286 Z" id="Fill-37" fill="#F1F2F2" mask="url(#mask-2)"></path>
                <path d="M160.938762,24.1612305 C161.695486,23.5322781 162.074343,22.6497638 162.074343,21.5141829 C162.074343,20.351859 161.695486,19.4589448 160.938762,18.8359352 C160.182038,18.2139162 159.087562,17.9024114 157.656324,17.9024114 L153.816743,17.9024114 L153.816743,25.1051543 L157.656324,25.1051543 C159.087562,25.1051543 160.182038,24.7906781 160.938762,24.1612305 L160.938762,24.1612305 Z M162.157048,30.9539162 L158.85381,26.3368114 C158.482381,26.3779162 158.097086,26.398221 157.697924,26.398221 L153.816743,26.398221 L153.816743,30.9539162 L152.288933,30.9539162 L152.288933,16.58904 L157.697924,16.58904 C159.54219,16.58904 160.987295,17.0268305 162.033238,17.9024114 C163.078686,18.7779924 163.602152,19.9824114 163.602152,21.5141829 C163.602152,22.6358971 163.3164,23.5832876 162.744895,24.3563543 C162.173886,25.129421 161.358724,25.687059 160.298914,26.0287733 L163.828971,30.9539162 L162.157048,30.9539162 Z" id="Fill-38" fill="#F1F2F2" mask="url(#mask-2)"></path>
                <path d="M177.010328,25.8854019 L173.542175,18.1690971 L170.074023,25.8854019 L177.010328,25.8854019 Z M177.567966,27.1160686 L169.516385,27.1160686 L167.782556,30.9536686 L166.192842,30.9536686 L172.798823,16.5892876 L174.305832,16.5892876 L180.912309,30.9536686 L179.30229,30.9536686 L177.567966,27.1160686 Z" id="Fill-39" fill="#F1F2F2" mask="url(#mask-2)"></path>
                <polygon id="Fill-40" fill="#F1F2F2" mask="url(#mask-2)" points="185.392133 17.90256 180.313962 17.90256 180.313962 16.5891886 191.99861 16.5891886 191.99861 17.90256 186.919943 17.90256 186.919943 30.9540648 185.392133 30.9540648"></polygon>
                <polygon id="Fill-41" fill="#F1F2F2" mask="url(#mask-2)" points="205.040606 29.6402971 205.040606 30.9536686 194.821863 30.9536686 194.821863 16.5887924 204.731082 16.5887924 204.731082 17.902659 196.349177 17.902659 196.349177 23.0120305 203.822815 23.0120305 203.822815 24.3050971 196.349177 24.3050971 196.349177 29.6402971"></polygon>
                <path d="M214.433688,29.6402971 C215.700011,29.6402971 216.807859,29.3906971 217.757726,28.8914971 C218.707592,28.3918019 219.443516,27.70144 219.966983,26.8189257 C220.489954,25.9364114 220.75144,24.9206781 220.75144,23.7712305 C220.75144,22.6222781 220.489954,21.6065448 219.966983,20.7240305 C219.443516,19.8415162 218.707592,19.1511543 217.757726,18.651459 C216.807859,18.152259 215.700011,17.902659 214.433688,17.902659 L210.160773,17.902659 L210.160773,29.6402971 L214.433688,29.6402971 Z M208.632964,16.5887924 L214.516392,16.5887924 C216.044202,16.5887924 217.39323,16.893859 218.562983,17.5020114 C219.732735,18.1111543 220.641002,18.9594971 221.288278,20.04704 C221.934564,21.1345829 222.25845,22.3761448 222.25845,23.7712305 C222.25845,25.1668114 221.934564,26.4088686 221.288278,27.4959162 C220.641002,28.583459 219.732735,29.4318019 218.562983,30.0409448 C217.39323,30.6495924 216.044202,30.9536686 214.516392,30.9536686 L208.632964,30.9536686 L208.632964,16.5887924 Z" id="Fill-42" fill="#F1F2F2" mask="url(#mask-2)"></path>
                <path d="M38.3985333,29.1068267 C37.6948,27.6706362 36.7706857,26.2790171 35.5583429,25.066179 C35.0829143,24.5907505 34.5787619,24.1628648 34.056781,23.7721219 C34.5792571,23.381379 35.0829143,22.9525029 35.5583429,22.4770743 C36.7706857,21.2642362 37.6948,19.8726171 38.3985333,18.4364267 C42.3153714,20.0192076 45.2957143,22.8247314 46.2297333,23.7716267 C45.2957143,24.7180267 42.3153714,27.5235505 38.3985333,29.1068267 L38.3985333,29.1068267 Z M39.6514857,39.6519314 C39.6118667,39.6519314 39.5697714,39.6524267 39.5252,39.6524267 C38.0771238,39.6524267 34.1142286,39.4885029 30.3415048,37.8873981 C30.8595238,36.3739505 31.1903429,34.7366933 31.1903429,33.0211886 C31.1903429,32.3491505 31.1363619,31.6894933 31.0437524,31.0437029 C31.6895429,31.1368076 32.3487048,31.1907886 33.0212381,31.1907886 C34.7362476,31.1907886 36.3735048,30.8599695 37.8869524,30.3419505 C39.5370857,34.2310552 39.6604,38.3217219 39.6514857,39.6519314 L39.6514857,39.6519314 Z M23.771181,46.2296838 C22.8242857,45.2956648 20.0182667,42.3148267 18.4354857,38.3974933 C19.8716762,37.6932648 21.2637905,36.7711314 22.4766286,35.5577981 C22.9520571,35.0823695 23.3804381,34.5787124 23.771181,34.0562362 C24.1619238,34.5787124 24.5903048,35.0823695 25.0657333,35.5577981 C26.2785714,36.7711314 27.6701905,37.69376 29.1068762,38.3974933 C27.5240952,42.3148267 24.7180762,45.2956648 23.771181,46.2296838 L23.771181,46.2296838 Z M7.89038095,39.6519314 C7.8819619,38.3217219 8.00577143,34.2310552 9.65540952,30.3419505 C11.1693524,30.8599695 12.8061143,31.1907886 14.521619,31.1907886 C15.1941524,31.1907886 15.8533143,31.1373029 16.4986095,31.0441981 C16.406,31.6894933 16.352019,32.3491505 16.352019,33.0211886 C16.352019,34.7352076 16.6818476,36.370979 17.1993714,37.8839314 C13.3117524,39.5281219 9.2235619,39.6445029 7.89038095,39.6519314 L7.89038095,39.6519314 Z M1.31312381,23.7716267 C2.24664762,22.8247314 5.22748571,20.0192076 9.14432381,18.4364267 C9.84805714,19.8726171 10.7716762,21.2642362 11.9850095,22.4770743 C12.4599429,22.9525029 12.9640952,23.381379 13.4860762,23.7721219 C12.9640952,24.1628648 12.4599429,24.5907505 11.9850095,25.066179 C10.7716762,26.2790171 9.84805714,27.6706362 9.14432381,29.1068267 C5.22748571,27.5235505 2.24664762,24.7180267 1.31312381,23.7716267 L1.31312381,23.7716267 Z M7.89038095,7.8913219 C9.22900952,7.89280762 13.315219,8.01265524 17.2003619,9.65783619 C16.6823429,11.1707886 16.352019,12.8075505 16.352019,14.5220648 C16.352019,15.1941029 16.406,15.85376 16.4986095,16.4990552 C15.8533143,16.4064457 15.1941524,16.3524648 14.521619,16.3524648 C12.8061143,16.3524648 11.1693524,16.6832838 9.65540952,17.2013029 C8.00577143,13.3121981 7.8819619,9.22153143 7.89038095,7.8913219 L7.89038095,7.8913219 Z M23.771181,1.31257905 C24.7185714,2.24560762 27.5250857,5.22396952 29.1078667,9.14377905 C27.6706857,9.84751238 26.2785714,10.7716267 25.0657333,11.98496 C24.5903048,12.4603886 24.1619238,12.964541 23.771181,13.4865219 C23.3804381,12.964541 22.9520571,12.4603886 22.4766286,11.98496 C21.2637905,10.7721219 19.8726667,9.84800762 18.435981,9.14427429 C20.0192571,5.22694095 22.824781,2.2465981 23.771181,1.31257905 L23.771181,1.31257905 Z M29.5208952,21.3900267 C30.090419,20.1930362 30.5673333,18.888579 30.863981,17.505379 C31.5677143,17.3855314 32.2877905,17.3161981 33.0212381,17.3161981 C34.5787619,17.3161981 36.0793333,17.6187886 37.4788762,18.0937219 C36.8251619,19.4194743 35.9783048,20.6947124 34.8768952,21.7961219 C34.358381,22.3146362 33.7997524,22.7747124 33.2173524,23.1872457 C32.0297714,22.4191314 30.770381,21.8342552 29.5208952,21.3900267 L29.5208952,21.3900267 Z M29.0761714,25.2687314 C28.9023429,24.9438552 28.7230667,24.6288838 28.540819,24.3233219 C28.6581905,24.2000076 28.7314857,24.1187886 28.7552571,24.092541 L29.0429905,23.7716267 L28.7552571,23.4502171 C28.7314857,23.4239695 28.6581905,23.3427505 28.540819,23.2199314 C28.7235619,22.9138743 28.9028381,22.5989029 29.0766667,22.2735314 C30.1721333,22.6528838 31.2750286,23.1426743 32.3214667,23.7716267 C31.2750286,24.400579 30.1716381,24.8903695 29.0761714,25.2687314 L29.0761714,25.2687314 Z M29.5218857,26.1547124 C30.7708762,25.7104838 32.0317524,25.1261029 33.2193333,24.3579886 C33.8012381,24.7700267 34.3588762,25.2296076 34.8768952,25.7476267 C35.9783048,26.848541 36.8251619,28.123779 37.4788762,29.4490362 C36.0793333,29.9244648 34.5787619,30.2275505 33.0212381,30.2275505 C32.2877905,30.2275505 31.5677143,30.1577219 30.863981,30.037379 C30.5673333,28.6551695 30.090419,27.3512076 29.5218857,26.1547124 L29.5218857,26.1547124 Z M26.4628,28.5823695 C26.5707619,28.22976 26.6668381,27.8796267 26.754,27.5339505 C26.9208952,27.5299886 27.0333143,27.5250362 27.067981,27.5230552 L27.4988381,27.4992838 L27.5226095,27.0684267 C27.5240952,27.0332648 27.5300381,26.9248076 27.534,26.7564267 C27.8796762,26.6687695 28.2298095,26.5721981 28.5829143,26.4647314 C29.0890476,27.5077029 29.522381,28.633379 29.8170476,29.8174933 C28.6324381,29.5223314 27.5062667,29.0889981 26.4628,28.5823695 L26.4628,28.5823695 Z M22.2725905,29.0766171 C22.5984571,28.9032838 22.9134286,28.7240076 23.2194857,28.5407695 C23.3428,28.6586362 23.424019,28.7319314 23.4502667,28.7557029 L23.771181,29.0434362 L24.0925905,28.7557029 C24.1193333,28.7319314 24.2000571,28.6586362 24.3233714,28.5412648 C24.6294286,28.7240076 24.9444,28.9032838 25.2697714,29.0766171 C24.890419,30.172579 24.4001333,31.2754743 23.771181,32.3214171 C23.1422286,31.2754743 22.6519429,30.172579 22.2725905,29.0766171 L22.2725905,29.0766171 Z M18.9599429,26.4647314 C19.3125524,26.5721981 19.663181,26.6692648 20.0093524,26.7564267 C20.012819,26.9253029 20.0182667,27.0332648 20.0202476,27.0684267 L20.044019,27.4992838 L20.4748762,27.5230552 C20.5095429,27.5250362 20.6219619,27.5299886 20.7883619,27.5339505 C20.876019,27.8796267 20.9720952,28.22976 21.0795619,28.5823695 C20.0360952,29.0889981 18.9099238,29.5223314 17.7253143,29.8179886 C18.0204762,28.633379 18.4533143,27.5077029 18.9599429,26.4647314 L18.9599429,26.4647314 Z M18.0209714,26.1547124 C17.4519429,27.3512076 16.9750286,28.6551695 16.6788762,30.037379 C15.9751429,30.1577219 15.2550667,30.2275505 14.521619,30.2275505 C12.9640952,30.2275505 11.4635238,29.9244648 10.063981,29.4490362 C10.7176952,28.123779 11.5645524,26.848541 12.6659619,25.7476267 C13.183981,25.2291124 13.741619,24.7700267 14.3230286,24.3574933 C15.5106095,25.1261029 16.7714857,25.7104838 18.0209714,26.1547124 L18.0209714,26.1547124 Z M18.4661905,22.2730362 C18.640019,22.5984076 18.8188,22.9138743 19.0015429,23.2199314 C18.8841714,23.3427505 18.8108762,23.4239695 18.7871048,23.4502171 L18.4993714,23.7716267 L18.7871048,24.092541 C18.8108762,24.1187886 18.8841714,24.2000076 19.0015429,24.3233219 C18.8192952,24.6288838 18.6405143,24.9428648 18.467181,25.267741 C17.371219,24.889379 16.2678286,24.4000838 15.2213905,23.7711314 C16.2678286,23.142179 17.3707238,22.6518933 18.4661905,22.2730362 L18.4661905,22.2730362 Z M18.0214667,21.3900267 C16.7724762,21.83376 15.5130857,22.4186362 14.326,23.1867505 C13.7431048,22.7747124 13.1844762,22.3146362 12.6659619,21.7961219 C11.5645524,20.6947124 10.7176952,19.4194743 10.063981,18.0937219 C11.4635238,17.6187886 12.9640952,17.3161981 14.521619,17.3161981 C15.2550667,17.3161981 15.9751429,17.3855314 16.6788762,17.5058743 C16.9750286,18.888579 17.4524381,20.192541 18.0214667,21.3900267 L18.0214667,21.3900267 Z M21.0795619,18.9608838 C20.9720952,19.3139886 20.876019,19.6636267 20.7883619,20.0093029 C20.6189905,20.0132648 20.5095429,20.0182171 20.4748762,20.0201981 L20.044019,20.0439695 L20.0202476,20.4748267 C20.0182667,20.5099886 20.012819,20.618941 20.0088571,20.7888076 C19.663181,20.8759695 19.3135429,20.972541 18.9604381,21.0800076 C18.4538095,20.0370362 18.0204762,18.9103695 17.7253143,17.72576 C18.9099238,18.0209219 20.0360952,18.45376 21.0795619,18.9608838 L21.0795619,18.9608838 Z M25.2697714,18.466141 C24.9444,18.6399695 24.6289333,18.8192457 24.3228762,19.0019886 C24.2000571,18.8846171 24.1193333,18.8113219 24.0925905,18.7880457 L23.771181,18.4998171 L23.4502667,18.7880457 C23.424019,18.8113219 23.3428,18.8846171 23.219981,19.0019886 C22.9129333,18.8192457 22.5969714,18.6394743 22.2711048,18.4651505 C22.6504571,17.3696838 23.1407429,16.2667886 23.7706857,15.2203505 C24.4001333,16.2667886 24.890419,17.370179 25.2697714,18.466141 L25.2697714,18.466141 Z M27.534,20.7897981 C27.5300381,20.6194362 27.5245905,20.5099886 27.5226095,20.4748267 L27.4988381,20.0439695 L27.067981,20.0201981 C27.0333143,20.0182171 26.9238667,20.0127695 26.754,20.0088076 C26.6663429,19.6626362 26.5702667,19.3125029 26.4623048,18.9589029 C27.5052762,18.4522743 28.6319429,18.0194362 29.8170476,17.7247695 C29.522381,18.9098743 29.0890476,20.0370362 28.5819238,21.0800076 C28.228819,20.9730362 27.8796762,20.87696 27.534,20.7897981 L27.534,20.7897981 Z M27.8217333,22.5043124 C27.7261524,22.4136838 27.6266095,22.3195886 27.5176571,22.2195505 C27.5240952,22.0724648 27.5280571,21.935779 27.5315238,21.8040457 C27.7271429,21.8560457 27.9247429,21.9115124 28.1228381,21.9694552 C28.0237905,22.1507124 27.9237524,22.3289981 27.8217333,22.5043124 L27.8217333,22.5043124 Z M25.3237524,27.5176076 C25.4698476,27.5240457 25.6085143,27.5280076 25.7392571,27.5314743 C25.6872571,27.7275886 25.6317905,27.9246933 25.5738476,28.1232838 C25.3925905,28.0242362 25.2138095,27.9237029 25.0384952,27.8216838 C25.129619,27.7265981 25.223219,27.62656 25.3237524,27.5176076 L25.3237524,27.5176076 Z M21.8036,27.5314743 C21.9338476,27.5280076 22.0730095,27.5240457 22.2191048,27.5176076 C22.3191429,27.62656 22.4132381,27.7261029 22.5038667,27.8216838 C22.3285524,27.9237029 22.1497714,28.023741 21.9690095,28.1232838 C21.9110667,27.9246933 21.8556,27.7275886 21.8036,27.5314743 L21.8036,27.5314743 Z M22.2191048,20.0256457 C22.0710286,20.0197029 21.9328571,20.015741 21.8011238,20.0122743 C21.8526286,19.8156648 21.9085905,19.6175695 21.9665333,19.418979 C22.148781,19.5185219 22.3280571,19.6190552 22.5038667,19.7215695 C22.4132381,19.8171505 22.3191429,19.9166933 22.2191048,20.0256457 L22.2191048,20.0256457 Z M25.7392571,20.0112838 C25.6075238,20.0147505 25.4703429,20.0187124 25.3227619,20.0246552 C25.2227238,19.9157029 25.1281333,19.8156648 25.0370095,19.7195886 C25.212819,19.6175695 25.3916,19.5170362 25.5733524,19.4179886 C25.6317905,19.616579 25.6872571,19.8146743 25.7392571,20.0112838 L25.7392571,20.0112838 Z M26.4216952,23.7716267 C26.3865333,24.1024457 26.3424571,24.4520838 26.2894667,24.8145981 C26.0705714,25.1087695 25.8551429,25.3861029 25.6461524,25.6451124 C25.3886286,25.8526171 25.112781,26.0670552 24.8205905,26.2854552 C24.4595619,26.3379505 24.1119048,26.3815314 23.7820762,26.4166933 C23.444819,26.3810362 23.0882476,26.3359695 22.7173143,26.2819886 C22.4276,26.0655695 22.1532381,25.8526171 21.8976952,25.6461029 C21.6882095,25.3870933 21.4722857,25.1092648 21.2533905,24.8145981 C21.1999048,24.4491124 21.1553333,24.0965029 21.1201714,23.7632076 C21.1548381,23.4358552 21.198419,23.0906743 21.250419,22.7321219 C21.4722857,22.4339886 21.691181,22.1526933 21.9026476,21.8907124 C22.1581905,21.6846933 22.4315619,21.471741 22.720781,21.2558171 C23.0892381,21.2023314 23.4438286,21.15776 23.7796,21.1221029 C24.1079429,21.1572648 24.4546095,21.2008457 24.8146476,21.2538362 C25.108819,21.4727314 25.3866476,21.6886552 25.6456571,21.8971505 C25.8541524,22.15616 26.0700762,22.4344838 26.2894667,22.7286552 C26.3424571,23.0916648 26.3865333,23.4408076 26.4216952,23.7716267 L26.4216952,23.7716267 Z M20.0113333,21.804541 C20.0148,21.935779 20.0187619,22.0724648 20.0252,22.2195505 C19.9162476,22.3190933 19.8167048,22.4131886 19.7211238,22.5038171 C19.6191048,22.3289981 19.5185714,22.1507124 19.420019,21.9694552 C19.6181143,21.9115124 19.8157143,21.8560457 20.0113333,21.804541 L20.0113333,21.804541 Z M19.4215048,25.5703314 C19.5200571,25.39056 19.6200952,25.2132648 19.7211238,25.038941 C19.8167048,25.1295695 19.9162476,25.2236648 20.0252,25.3232076 C20.0187619,25.4693029 20.0148,25.6049981 20.0118286,25.7347505 C19.8162095,25.683741 19.6191048,25.6287695 19.4215048,25.5703314 L19.4215048,25.5703314 Z M27.5310286,25.7367314 C27.5280571,25.6064838 27.5240952,25.4697981 27.5176571,25.3232076 C27.6261143,25.2231695 27.7261524,25.1295695 27.8212381,25.038941 C27.9232571,25.21376 28.0232952,25.3920457 28.1223429,25.5723124 C27.9242476,25.6302552 27.7271429,25.6857219 27.5310286,25.7367314 L27.5310286,25.7367314 Z M30.2271048,14.5220648 C30.2271048,15.2555124 30.1572762,15.9750933 30.0369333,16.6788267 C28.6542286,16.9754743 27.3497714,17.4523886 26.152781,18.0214171 C25.7085524,16.7724267 25.1241714,15.512541 24.3555619,14.32496 C24.7680952,13.7430552 25.2281714,13.1849219 25.747181,12.6659124 C26.8485905,11.5645029 28.1233333,10.71616 29.449581,10.0624457 C29.9245143,11.4619886 30.2271048,12.9630552 30.2271048,14.5220648 L30.2271048,14.5220648 Z M17.3157524,14.5220648 C17.3157524,12.9650362 17.6183429,11.4644648 18.0932762,10.0654171 C19.4185333,10.718141 20.6937714,11.5645029 21.7956762,12.6659124 C22.3136952,13.1844267 22.7742667,13.7430552 23.1868,14.3254552 C22.4181905,15.5130362 21.8338095,16.7729219 21.389581,18.0214171 C20.1920952,17.4523886 18.8881333,16.9754743 17.5054286,16.6788267 C17.3850857,15.9750933 17.3157524,15.2555124 17.3157524,14.5220648 L17.3157524,14.5220648 Z M17.3157524,33.0211886 C17.3157524,32.2882362 17.3850857,31.56816 17.5054286,30.8644267 C18.8881333,30.567779 20.1920952,30.0903695 21.389581,29.5218362 C21.8338095,30.7703314 22.4181905,32.0297219 23.1868,33.2173029 C22.7742667,33.8001981 22.3136952,34.3583314 21.7956762,34.8768457 C20.6937714,35.9782552 19.4185333,36.8241219 18.092781,37.4763505 C17.6178476,36.0773029 17.3157524,34.5777219 17.3157524,33.0211886 L17.3157524,33.0211886 Z M30.2271048,33.0211886 C30.2271048,34.5792076 29.924019,36.079779 29.4485905,37.4798171 C28.1228381,36.8261029 26.8480952,35.9782552 25.747181,34.8768457 C25.2281714,34.3583314 24.7685905,33.8001981 24.3560571,33.2173029 C25.1241714,32.0297219 25.7085524,30.7703314 26.152781,29.5218362 C27.3497714,30.0903695 28.6542286,30.567779 30.0369333,30.8639314 C30.1572762,31.56816 30.2271048,32.2882362 30.2271048,33.0211886 L30.2271048,33.0211886 Z M39.5242095,7.89082667 C39.568781,7.89082667 39.6118667,7.8913219 39.6514857,7.8913219 C39.6604,9.22103619 39.5370857,13.3121981 37.8869524,17.2013029 C36.3735048,16.6832838 34.7362476,16.3524648 33.0212381,16.3524648 C32.3487048,16.3524648 31.6895429,16.4064457 31.0437524,16.4990552 C31.1363619,15.85376 31.1903429,15.1941029 31.1903429,14.5220648 C31.1903429,12.80656 30.8595238,11.1693029 30.3415048,9.65536 C34.1137333,8.05475048 38.0761333,7.89082667 39.5242095,7.89082667 L39.5242095,7.89082667 Z M47.2548762,23.4502171 C47.0642095,23.2372648 43.6743048,19.5105981 38.8031429,17.5454933 C40.8578857,12.710979 40.619181,7.67886476 40.6033333,7.39410286 L40.5800571,6.96275048 L40.1492,6.93947429 C39.8654286,6.9241219 34.8323238,6.68541714 29.9978095,8.74016 C28.0322095,3.86850286 24.3055429,0.478598095 24.0925905,0.287931429 L23.771181,0.000198095238 L23.4502667,0.287931429 C23.2373143,0.478598095 19.5101524,3.86850286 17.5450476,8.74016 C12.7100381,6.6849219 7.67693333,6.9241219 7.39365714,6.93947429 L6.96230476,6.96275048 L6.93902857,7.39410286 C6.92318095,7.67886476 6.68447619,12.710979 8.73971429,17.5449981 C3.86805714,19.5105981 0.478647619,23.2372648 0.287980952,23.4502171 L-0.000247619048,23.7716267 L0.287980952,24.092541 C0.478647619,24.3054933 3.86805714,28.0326552 8.73971429,29.9982552 C6.68447619,34.8322743 6.92318095,39.8643886 6.93902857,40.1496457 L6.96230476,40.5805029 L7.39365714,40.603779 C7.45259048,40.6072457 7.71952381,40.6201219 8.1484,40.6201219 C9.77278095,40.6201219 13.7213143,40.4314362 17.5460381,38.8055695 C19.5116381,43.675741 23.2373143,47.06416 23.4502667,47.2553219 L23.771181,47.5430552 L24.0925905,47.2553219 C24.3055429,47.06416 28.031219,43.675741 29.9963238,38.8055695 C33.8210476,40.4319314 37.7700762,40.6201219 39.3939619,40.6201219 C39.8223429,40.6201219 40.0897714,40.6072457 40.1492,40.603779 L40.5800571,40.5805029 L40.6033333,40.1496457 C40.619181,39.8643886 40.8578857,34.8322743 38.8031429,29.99776 C43.6743048,28.0326552 47.0642095,24.3054933 47.2548762,24.092541 L47.5426095,23.7716267 L47.2548762,23.4502171 Z" id="Fill-43" fill="#F1F2F2" mask="url(#mask-2)"></path>
            </g>
        </g>
    </g>
</svg>