<svg xmlns="http://www.w3.org/2000/svg" style="display: none;">

	<symbol id="crate" viewBox="0 0 512 512">
		<path d="m417 122l-184 108c-2 1-5 1-8 0l-184-109c-5-3-5-10 0-13l185-107c2-1 5-1 7 0l184 107c5 3 5 11 0 14m-405 50l184 109c2 1 4 4 4 7l0 213c0 6-7 10-12 7l-184-108c-2-2-4-4-4-7l1-214c0-6 6-10 11-7m247 328l0-212c0-3 1-5 4-7l184-108c5-3 11 1 11 7l0 214c0 3-2 5-4 7l-184 106c-5 3-11-1-11-7"/>
	</symbol>

	<symbol id="box" viewBox="0 0 512 512">
		<path d="m406 0c11 0 22 6 28 15l70 100c4 6 6 13 6 20l0 340c0 20-15 35-35 35l-440 0c-19 0-35-15-35-35l0-340c0-7 2-14 7-20l69-100c7-9 17-15 28-15z m-244 139l-139 0 0 336c0 7 5 12 12 12l440 0c7 0 12-5 12-12l0-336-139 0 0 47c0 6-5 11-12 11l-162 0c-6 0-12-5-12-11z m-23 151c7 0 12 5 12 11l0 58 58 0c6 0 11 6 11 12 0 6-5 12-11 12l-58 0 0 58c0 6-5 11-12 11-6 0-11-5-11-11l0-58-58 0c-7 0-12-6-12-12 0-6 5-12 12-12l58 0 0-58c0-6 5-11 11-11z m302 139c6 0 11 5 11 12 0 6-5 11-11 11l-47 0c-6 0-11-5-11-11 0-7 5-12 11-12z m0-46c6 0 11 5 11 11 0 7-5 12-11 12l-93 0c-7 0-12-5-12-12 0-6 5-11 12-11z m0-47c6 0 11 5 11 12 0 6-5 11-11 11l-93 0c-7 0-12-5-12-11 0-7 5-12 12-12z m-135-243l-102 0-18 37 0 44 139 0 0-44z m100-70l-302 0c-3 0-7 2-9 5l-61 88 133 0 20-40c2-4 6-6 10-6l116 0c4 0 8 2 10 6l20 40 133 0-61-88c-2-3-5-5-9-5z"/>
	</symbol>

	<symbol id="target" viewBox="0 0 512 512">
		<path d="m449 123c2 0 4-1 6-2l52-52c2-2 3-6 2-9-2-2-4-4-7-4l-45 0 0-46c0-3-2-6-5-7-3-1-6 0-8 2l-53 52c-1 2-2 4-2 6l0 50-4 4c-40-38-95-62-155-62-126 0-227 102-227 228 0 125 101 227 227 227 125 0 227-102 227-227 0-60-23-115-61-156l4-4c0 0 49 0 49 0z m34-52l-37 37-31 0 38-37z m-79-5l37-37 0 30-37 38z m37 216c0 117-95 212-212 212-116 0-212-95-212-212 0-117 96-212 212-212 56 0 107 22 144 57l-39 39c-27-25-65-41-105-41-87 0-157 70-157 157 0 86 71 157 158 157 86 0 157-70 157-157 0-40-16-77-41-105l39-39c35 38 56 89 56 144z m-217 6c2 1 4 2 6 2 2 0 4-1 6-2l50-50c9 12 16 27 16 44 0 40-32 71-72 71-39 0-71-31-71-71 0-39 32-71 71-71 17 0 33 6 45 16l-50 50c-4 3-4 8-1 11z m61-72c-15-13-34-20-56-20-47 0-86 38-86 86 0 48 39 87 86 87 48 0 87-39 87-87 0-21-8-40-21-56l39-39c23 25 37 59 37 95 0 77-64 141-142 141-77 0-141-64-141-141 0-78 64-142 141-142 37 0 69 14 95 37z"/>
	</symbol>

	<symbol id="globe" viewBox="0 0 512 512">
		<path d="m256 0c-6 0-12 0-17 1-2 0-3 0-5 0-5 0-11 1-16 2 0 0-1 0-1 0-6 1-11 2-16 3-2 0-4 1-5 1-5 1-10 3-15 4-1 1-3 1-4 2-4 1-8 2-12 4-2 1-4 1-6 2-5 2-9 4-14 6-2 1-3 2-4 3-4 1-8 3-11 5-2 1-3 2-5 3-5 3-9 6-13 8-1 1-1 1-2 2l-4 3 0 0c-64 47-106 122-106 207 0 141 115 256 256 256 141 0 256-115 256-256 0-87-44-165-111-211l1 0-12-7c0 0-1-1-2-1-3-2-7-5-11-7-2-1-4-2-6-3-3-1-6-2-9-4-1-1-3-1-5-2-4-2-9-4-14-6-1 0-2 0-3-1-4-1-8-2-12-4-1 0-3 0-4-1-5-1-9-2-14-3-1 0-1 0-2-1-5-1-10-2-15-2-2-1-3-1-4-1-4 0-8-1-13-1-1 0-3 0-4 0-5-1-11-1-16-1z m0 17c5 0 9 0 14 0 1 1 2 1 3 1 4 0 7 0 10 1 1 0 3 0 4 0 3 1 7 1 10 2 1 0 2 0 4 0 3 1 6 2 9 2 1 1 3 1 4 1 4 1 8 2 12 3 0 1 0 1 1 1 4 1 8 2 12 4 2 1 3 1 5 2 2 1 4 2 7 3 2 1 4 2 6 2 2 1 3 2 5 3 1 1 3 1 4 2-33 13-53 29-76 59-3 4-4 9-4 14-2-5-5-8-9-11-8-5-18-5-31 1l-3 1c-17 2-26 3-27 21-1 10 4 19 13 24 2 1 4 2 6 3 0 0 1 1 1 2l4 5 5-1c5-1 9-1 12-1-1 4 0 8 1 11 3 5 7 8 12 10 5 1 5 3 6 5 3 9 9 16 17 19 8 3 16 1 24-5 4-3 6-2 16 2 6 3 14 7 24 9 2 0 3 0 3 1 7 7 12 16 17 25 8 13 16 26 29 32 10 6-2 35-7 49-1 3-2 6-3 8-13 10-21 22-29 33-6 9-14 20-25 29-16 14-30 23-47 29-2 1-4-1-5-2 0 0-2-2 0-5 17-30 36-72 11-93-25-21-34-50-24-76 5-11 0-23-11-28-1-1-2-6-2-10-1-7-2-16-8-24-2-3-6-6-9-7-10-5-20-7-30-8-7-1-15-2-22-5-28-11-49-57-63-90-2-5-4-10-6-14 1-1 2-1 3-2 3-2 5-4 8-5 2-1 3-2 5-3 4-2 8-4 12-6 2-1 3-2 5-2 3-2 6-3 9-4 2-1 3-1 5-2 5-2 9-3 13-5 2 0 4 0 5-1 4-1 7-2 10-3 2 0 4 0 5-1 5-1 10-2 15-2 1 0 2-1 3-1 4 0 8-1 12-1 2 0 3 0 5 0 5-1 10-1 15-1z m129 38c66 43 110 117 110 201 0 132-107 239-239 239-132 0-239-107-239-239 0-77 37-146 94-190 2 3 4 7 5 10 17 39 38 86 73 100 9 3 17 5 26 6 9 1 17 2 25 6 0 0 2 2 2 2 3 4 4 11 5 17 1 8 2 17 11 22 2 1 5 4 3 7-13 32-2 70 29 95 8 7 11 24-15 72-5 8-4 18 2 24 4 5 10 8 17 8 2 0 5 0 7-1 18-7 34-16 53-32 12-11 20-22 27-33 8-11 15-21 27-29 2-2 3-3 4-5 0-3 2-6 3-10 9-23 22-57-2-70-8-4-14-14-21-26-5-9-11-19-20-28-3-4-7-6-13-6-7-1-13-4-19-7-9-4-21-10-34 0-2 1-5 3-8 2-2-1-5-4-6-8-1-6-5-13-17-16-1 0-1-1-1-1-1-1-1-2 0-3 1-5 1-9-2-12-3-4-9-6-16-6-1-1-1-3-3-4l-5-5-6 4c-1 0-3 0-5-1-2-1-4-5-4-8 0-2 0-3 0-4 2 0 7-1 12-1l5-1 1-1c8-3 14-4 17-3 1 1 4 4 4 18l0 8 7 1c10 1 17-1 22-6 4-5 5-13 2-23 0-2 0-4 1-5 24-31 43-45 81-58z"/>
	</symbol>

	<symbol id="flag" viewBox="0 0 512 512">
		<path d="m500 40l-352 0c0 0-1 0-1 0l-5 0 8-32c2-4-1-7-5-7-5 0-9 3-10 7l-130 483c-1 5 2 8 6 8 4 0 9-3 10-8l48-180 359 0c4 0 9-4 10-8l68-255c1-4-1-8-6-8z m-363 21l107 113-167 108 42-155z m124 121c2-1 3-3 3-6 0-2 0-4-2-6l-104-109 276 120-324 98z m163 113l-313 0 341-103z m33-121l-271-118 302 0z"/>
	</symbol>

	<symbol id="rates" viewBox="0 0 512 512">
		<path d="m280 445c5 0 9 4 9 9l0 49c0 5-4 8-9 8l-49 0c-5 0-8-3-8-8l0-49c0-5 3-9 8-9z m223 0c5 0 8 4 8 9l0 49c0 5-3 8-8 8l-49 0c-5 0-9-3-9-8l0-49c0-5 4-9 9-9z m-445 0c4 0 8 4 8 9l0 49c0 5-4 8-8 8l-50 0c-4 0-8-3-8-8l0-49c0-5 4-9 8-9z m214 17l-33 0 0 33 33 0z m223 0l-33 0 0 33 33 0z m-446 0l-33 0 0 33 33 0z m118-113l12 11-68 69 13 0 0 16-33 0c-5 0-9-3-9-8l0-33 17 0 0 13z m193-8l69 68 0-13 16 0 0 33c0 4-3 8-8 8l-33 0 0-16 13 0-68-69z m-96 71l0 17-17 0 0-17z m0-24l0 16-17 0 0-16z m-8-248c63 0 115 52 115 116 0 63-52 115-115 115-64 0-116-52-116-115 0-64 52-116 116-116z m0 17c-55 0-99 44-99 99 0 54 44 99 99 99 54 0 99-45 99-99 0-55-45-99-99-99z m8 8l0 17c19 4 33 21 33 41l-17 0c0-14-11-25-24-25-14 0-25 11-25 25 0 13 11 24 25 24 22 0 41 19 41 42 0 20-14 36-33 40l0 17-17 0 0-17c-18-4-33-20-33-40l17 0c0 13 11 24 25 24 13 0 24-11 24-24 0-14-11-25-24-25-23 0-42-19-42-41 0-20 15-37 33-41l0-17z m239 58c5 0 8 3 8 8l0 49c0 5-3 9-8 9l-49 0c-5 0-9-4-9-9l0-49c0-5 4-8 9-8z m-445 0c4 0 8 3 8 8l0 49c0 5-4 9-8 9l-50 0c-4 0-8-4-8-9l0-49c0-5 4-8 8-8z m-9 16l-33 0 0 33 33 0z m446 0l-33 0 0 33 33 0z m-66 8l0 17-17 0 0-17z m-25 0l0 17-16 0 0-17z m-280 0l0 17-17 0 0-17z m-25 0l0 17-17 0 0-17z m330-173c4 0 8 4 8 8l0 33-16 0 0-13-69 69-11-12 68-68-13 0 0-17z m-314 0l0 17-13 0 69 68-12 12-68-69 0 13-17 0 0-33c0-4 4-8 8-8z m149 33l0 17-17 0 0-17z m0-25l0 17-17 0 0-17z m16-82c5 0 9 4 9 8l0 50c0 4-4 8-9 8l-49 0c-5 0-8-4-8-8l0-50c0-4 3-8 8-8z m223 0c5 0 8 4 8 8l0 50c0 4-3 8-8 8l-49 0c-5 0-9-4-9-8l0-50c0-4 4-8 9-8z m-445 0c4 0 8 4 8 8l0 50c0 4-4 8-8 8l-50 0c-4 0-8-4-8-8l0-50c0-4 4-8 8-8z m214 16l-33 0 0 33 33 0z m223 0l-33 0 0 33 33 0z m-446 0l-33 0 0 33 33 0z"/>
	</symbol>

	<symbol id="menuicon" viewBox="0 0 512 512">
		<path d="m137 375l0 137-137 0 0-137z m187 0l0 137-136 0 0-137z m188 0l0 137-137 0 0-137z m-375-187l0 136-137 0 0-136z m187 0l0 136-136 0 0-136z m188 0l0 136-137 0 0-136z m-375-188l0 137-137 0 0-137z m187 0l0 137-136 0 0-137z m188 0l0 137-137 0 0-137z"/>
	</symbol>

	<symbol id="angle-up" viewBox="0 0 512 512">
		<path d="m446 369c0 0-190-184-190-184c0 0-189 184-189 184c-9 7-18 7-26 0c-8-9-8-17 0-26c0 0 203-200 203-200c9-9 17-9 24 0c0 0 203 200 203 200c8 9 8 17 0 26c-9 7-17 7-25 0"/>
	</symbol>

</svg>
