<?xml version="1.0" encoding="UTF-8"?>
<svg width="187px" height="56px" viewBox="0 0 187 56" version="1.1" xmlns="http://www.w3.org/2000/svg" xmlns:xlink="http://www.w3.org/1999/xlink">
    <title>905110C9-260E-4506-BA6F-B548B4A2DDC9</title>
    <g id="Page-1" stroke="none" stroke-width="1" fill="none" fill-rule="evenodd">
        <g id="Sulpana_Homepage_1440px" transform="translate(-1214.000000, -3148.000000)" fill="#FFFFFF">
            <g id="Sulpana_Logo" transform="translate(1214.000000, 3148.000000)">
                <path d="M27.9115202,0 C12.4964132,0 0,12.536027 0,28 C0,43.463973 12.4964132,56 27.9115202,56 C43.3266271,56 55.8230404,43.463973 55.8230404,28 C55.8230404,20.5739383 52.8823708,13.4520287 47.6479454,8.20101013 C42.41352,2.94999153 35.3141156,0 27.9115202,0 Z M6.31110484,21.2644444 C7.46585454,19.9097921 8.4381582,18.4087961 9.20304846,16.8 C10.6451437,13.8833333 11.5290085,11.2855556 13.5991129,9.39555556 C13.7541769,9.25555556 13.8782281,9.13111111 13.9867729,9.02222222 C22.5774655,2.67104352 34.3537553,2.91689454 42.6736131,9.62111111 C44.4956151,11.4722222 45.3639735,13.9377778 46.7285367,16.6833333 C47.493427,18.2921295 48.4657307,19.7931254 49.6204803,21.1477778 C49.6204803,21.1477778 50.923018,23.1 50.3570343,24.7333333 C49.7910507,26.3666667 47.8760103,25.62 47.8760103,25.62 C47.8760103,25.62 44.5576407,24.4533333 43.3481415,23.8622222 C42.4642767,23.4344444 42.1308891,23.7144444 42.0145911,23.9011111 L38.8512855,23.1233333 L38.7504939,22.8433333 C38.0414223,21.194741 36.5786255,19.9941132 34.8273746,19.6233333 C32.6103272,19.2343504 30.3638037,19.0391733 28.1131034,19.04 L27.8107286,19.04 C25.5626091,19.0394277 23.3186822,19.2346046 21.1042105,19.6233333 C19.3529597,19.9941132 17.8901629,21.194741 17.1810913,22.8433333 L17.0802997,23.1233333 L13.8627217,23.9011111 C13.6999045,23.7455556 13.3432573,23.6133333 12.6144565,23.9711111 C11.4049573,24.5622222 8.07883446,25.7288889 8.07883446,25.7288889 C8.07883446,25.7288889 6.14053444,26.4444444 5.57455084,24.8888889 C5.00856723,23.3333333 6.31110484,21.2644444 6.31110484,21.2644444 Z M24.143465,48.6033333 C23.833337,49.9877778 20.8018357,50.4622222 15.6149449,48.02 C15.3590893,47.8955556 15.3125701,47.9188889 15.4366213,48.02 C10.3119743,44.7883173 6.6226257,39.7032112 5.13261844,33.8177778 C5.98248537,33.4703213 6.85883939,33.1920162 7.75320005,32.9855556 C9.88533007,32.48 12.3353413,31.71 12.3353413,31.71 C12.3353413,31.71 13.1106613,31.5233333 13.1106613,30.9322222 C15.9095665,30.5977778 18.0029305,32.8766667 18.0029305,32.8766667 C18.0029305,32.8766667 22.8719402,38.3211111 24.2675162,40.9422222 C24.9808106,42.2644444 24.4768526,47.2111111 24.1744778,48.6033333 L24.143465,48.6033333 Z M27.0354086,37.4966667 C24.7818118,37.4966667 23.6550134,36.4959259 23.6550134,34.4944444 L23.6550134,33.67 L26.4771782,33.67 L26.4771782,34.5566667 C26.4771782,35.1944444 26.895851,35.5133333 27.7409498,35.5133333 L28.2449078,35.5133333 C28.989215,35.5133333 29.3613686,35.1944444 29.3613686,34.5566667 L29.3613686,31.78 C29.3914944,31.5474016 29.3007933,31.3155272 29.1210194,31.1655556 C28.8722662,31.0105484 28.6132197,30.8728186 28.3456994,30.7533333 L25.6708454,29.5944444 C25.2307478,29.4196002 24.8032924,29.214291 24.3915674,28.98 C24.139875,28.8242288 23.9401378,28.5967813 23.8178306,28.3266667 C23.6881949,27.9977987 23.6274918,27.6456639 23.639507,27.2922222 L23.639507,23.94 C23.639507,22.0733333 24.7663054,21.14 27.0199022,21.14 L28.7876318,21.14 C31.0360598,21.14 32.168027,22.0733333 32.168027,23.94 L32.168027,25.4955556 L29.3923814,25.4955556 L29.3923814,24.1111111 C29.3923814,23.4577778 28.9737086,23.1311111 28.1518694,23.1311111 L27.7176902,23.1311111 C26.9113574,23.1311111 26.508191,23.4577778 26.508191,24.1111111 L26.508191,26.8177778 C26.4776722,27.0488125 26.565091,27.2797452 26.740787,27.4322222 C26.9891235,27.5879556 27.2482215,27.7257129 27.516107,27.8444444 L30.190961,28.9644444 C30.7802042,29.2211111 31.1911238,29.4233333 31.4392262,29.5633333 C31.6682587,29.6933155 31.8645331,29.8742474 32.012963,30.0922222 C32.1869253,30.4576402 32.2592519,30.8634159 32.2222994,31.2666667 L32.2222994,34.7511111 C32.2222994,36.5866667 31.0851634,37.5044444 28.8108914,37.5044444 L27.0354086,37.4966667 Z M40.3864191,48.0277778 C40.4949639,47.9188889 40.4484447,47.8955556 40.2003423,48.0277778 C35.036711,50.47 32.0052098,49.9955556 31.6718222,48.6111111 C31.3384346,47.2266667 30.8965022,42.2722222 31.5632774,40.95 C32.9588534,38.3133333 37.8278631,32.8844444 37.8278631,32.8844444 C37.8278631,32.8844444 39.9444867,30.5511111 42.7666515,30.9477778 C42.8751963,31.4377778 43.5419715,31.6088889 43.5419715,31.6088889 C43.5419715,31.6088889 45.9919827,32.3866667 48.1163595,32.8766667 C49.0186178,33.0819184 49.9027965,33.3602381 50.7602008,33.7088889 C49.2861045,39.6517168 45.5660033,44.7865575 40.3864191,48.0277778 L40.3864191,48.0277778 Z" id="Shape"></path>
                <path d="M61.4518636,45.2433333 C61.4518001,45.1045629 61.5616977,44.9908718 61.699966,44.9866666 L66.9798953,44.9866666 C67.0470617,44.9866666 67.1113716,45.0139209 67.1581293,45.0622926 C67.2048869,45.1106643 67.2300966,45.1759868 67.2279977,45.2433333 L67.2279977,45.9822222 C67.2279977,46.1196798 67.1169184,46.2311111 66.9798953,46.2311111 L62.8009204,46.2311111 L62.8009204,49.2877778 L66.3286265,49.2877778 C66.4651851,49.2957972 66.5729393,49.407271 66.5767289,49.5444444 L66.5767289,50.2677778 C66.572687,50.4035203 66.4639401,50.512612 66.3286265,50.5166667 L62.8009204,50.5166667 L62.8009204,54.0011111 C62.7968785,54.1368537 62.6881316,54.2459453 62.552818,54.25 L61.699966,54.25 C61.5629429,54.25 61.4518636,54.1385686 61.4518636,54.0011111 L61.4518636,45.2433333 Z" id="Path" fill-rule="nonzero"></path>
                <path d="M71.7326069,45.2433333 C71.7325434,45.1045629 71.8424409,44.9908718 71.9807093,44.9866667 L72.8800805,44.9866667 C73.0166392,44.9946861 73.1243934,45.1061599 73.1281829,45.2433333 L73.1281829,53.0211111 L76.6791485,53.0211111 C76.8161717,53.0211111 76.9272509,53.1325425 76.9272509,53.27 L76.9272509,54.0011111 C76.9272509,54.1385686 76.8161717,54.25 76.6791485,54.25 L71.9807093,54.25 C71.8436861,54.25 71.7326069,54.1385686 71.7326069,54.0011111 L71.7326069,45.2433333 Z" id="Path" fill-rule="nonzero"></path>
                <path d="M81.1294854,45.2433333 C81.1273864,45.1759868 81.1525961,45.1106643 81.1993538,45.0622926 C81.2461114,45.0139209 81.3104213,44.9866666 81.3775878,44.9866666 L86.6497638,44.9866666 C86.7910689,44.9866666 86.9056194,45.1015802 86.9056194,45.2433333 L86.9056194,45.9822222 C86.9056194,46.0496016 86.8784513,46.1141153 86.8302325,46.1610212 C86.7820136,46.2079271 86.7168975,46.2332167 86.6497638,46.2311111 L82.4862954,46.2311111 L82.4862954,48.93 L86.0062482,48.93 C86.1428069,48.9380195 86.2505611,49.0494932 86.2543506,49.1866667 L86.2543506,49.9255556 C86.2543506,50.0630131 86.1432714,50.1744444 86.0062482,50.1744444 L82.4862954,50.1744444 L82.4862954,53.0211111 L86.6497638,53.0211111 C86.7168975,53.0190055 86.7820136,53.0442951 86.8302325,53.091201 C86.8784513,53.1381069 86.9056194,53.2026206 86.9056194,53.27 L86.9056194,54.0011111 C86.9056194,54.0684905 86.8784513,54.1330042 86.8302325,54.1799101 C86.7820136,54.226816 86.7168975,54.2521056 86.6497638,54.25 L81.4086006,54.25 C81.2715774,54.25 81.1604982,54.1385686 81.1604982,54.0011111 L81.1294854,45.2433333 Z" id="Path" fill-rule="nonzero"></path>
                <path d="M91.7126034,45.2433333 C91.7105045,45.1759868 91.7357142,45.1106643 91.7824719,45.0622926 C91.8292295,45.0139209 91.8935394,44.9866666 91.9607058,44.9866666 L97.2328819,44.9866666 C97.374187,44.9866666 97.4887375,45.1015802 97.4887375,45.2433333 L97.4887375,45.9822222 C97.4887375,46.0496016 97.4615694,46.1141153 97.4133506,46.1610212 C97.3651317,46.2079271 97.3000155,46.2332167 97.2328819,46.2311111 L93.0384006,46.2311111 L93.0384006,48.93 L96.5583535,48.93 C96.6949121,48.9380195 96.8026664,49.0494932 96.8064559,49.1866667 L96.8064559,49.9255556 C96.8064559,50.0630131 96.6953766,50.1744444 96.5583535,50.1744444 L93.0384006,50.1744444 L93.0384006,53.0211111 L97.2018691,53.0211111 C97.2690027,53.0190055 97.3341189,53.0442951 97.3823378,53.091201 C97.4305566,53.1381069 97.4577575,53.2026206 97.4577247,53.27 L97.4577247,54.0011111 C97.4577575,54.0684905 97.4305566,54.1330042 97.3823378,54.1799101 C97.3341189,54.226816 97.2690027,54.2521056 97.2018691,54.25 L91.929693,54.25 C91.7926699,54.25 91.6815906,54.1385686 91.6815906,54.0011111 L91.7126034,45.2433333 Z" id="Path" fill-rule="nonzero"></path>
                <path d="M103.559493,46.2311111 L101.411857,46.2311111 C101.344723,46.2332167 101.279607,46.2079271 101.231388,46.1610212 C101.183169,46.1141153 101.156001,46.0496016 101.156001,45.9822222 L101.156001,45.2433333 C101.156001,45.1015802 101.270552,44.9866666 101.411857,44.9866666 L107.079446,44.9866666 C107.146612,44.9866666 107.210922,45.0139209 107.25768,45.0622926 C107.304438,45.1106643 107.329647,45.1759868 107.327548,45.2433333 L107.327548,45.9822222 C107.327548,46.1196798 107.216469,46.2311111 107.079446,46.2311111 L104.93181,46.2311111 L104.93181,54.0088889 C104.927618,54.1475956 104.814286,54.2577778 104.675954,54.2577778 L103.807596,54.2577778 C103.672282,54.2537231 103.563535,54.1446314 103.559493,54.0088889 L103.559493,46.2311111 Z" id="Path" fill-rule="nonzero"></path>
                <path d="M117.282657,45.2433333 C117.282594,45.1045629 117.392491,44.9908718 117.53076,44.9866667 L118.399118,44.9866667 C118.538712,44.9907282 118.650925,45.1032971 118.654974,45.2433333 L118.654974,53.0211111 L122.229199,53.0211111 C122.366222,53.0211111 122.477301,53.1325425 122.477301,53.27 L122.477301,54.0011111 C122.477301,54.1385686 122.366222,54.25 122.229199,54.25 L117.53076,54.25 C117.393736,54.25 117.282657,54.1385686 117.282657,54.0011111 L117.282657,45.2433333 Z" id="Path" fill-rule="nonzero"></path>
                <path d="M126.679536,45.2433333 C126.677437,45.1759868 126.702646,45.1106643 126.749404,45.0622926 C126.796162,45.0139209 126.860472,44.9866666 126.927638,44.9866666 L132.207567,44.9866666 C132.345836,44.9908718 132.455733,45.1045629 132.45567,45.2433333 L132.45567,45.9822222 C132.45567,46.1196798 132.34459,46.2311111 132.207567,46.2311111 L128.036346,46.2311111 L128.036346,48.93 L131.556299,48.93 C131.692857,48.9380195 131.800611,49.0494932 131.804401,49.1866667 L131.804401,49.9255556 C131.804401,50.0630131 131.693322,50.1744444 131.556299,50.1744444 L128.036346,50.1744444 L128.036346,53.0211111 L132.207567,53.0211111 C132.34459,53.0211111 132.45567,53.1325425 132.45567,53.27 L132.45567,54.0011111 C132.45567,54.1385686 132.34459,54.25 132.207567,54.25 L126.927638,54.25 C126.790615,54.25 126.679536,54.1385686 126.679536,54.0011111 L126.679536,45.2433333 Z" id="Path" fill-rule="nonzero"></path>
                <path d="M136.022142,53.9077778 L140.069312,45.0022222 C140.11798,44.9212462 140.200716,44.866868 140.294155,44.8544444 L140.425959,44.8544444 C140.518623,44.8689261 140.600564,44.9227817 140.650802,45.0022222 L144.674713,53.9077778 C144.714768,53.9831969 144.710521,54.0745482 144.663642,54.1459 C144.616764,54.2172517 144.534754,54.2571879 144.44987,54.25 L143.620278,54.25 C143.485751,54.2597326 143.360379,54.1811262 143.31015,54.0555556 L142.496064,52.2433333 L138.185285,52.2433333 C137.921676,52.85 137.642561,53.4411111 137.409965,54.0555556 C137.357138,54.1753134 137.238122,54.2518472 137.10759,54.25 L136.277997,54.25 C136.187966,54.2713722 136.093869,54.237186 136.038359,54.1629375 C135.982848,54.088689 135.976481,53.9884972 136.022142,53.9077778 L136.022142,53.9077778 Z M141.992106,51.1 L140.371687,47.4444444 L140.332921,47.4444444 L138.720255,51.0688889 L141.992106,51.1 Z" id="Shape" fill-rule="nonzero"></path>
                <path d="M148.210172,52.8888889 C148.334223,52.7177778 148.435015,52.5233333 148.559066,52.3522222 C148.597187,52.2725497 148.668848,52.2141705 148.754401,52.1930909 C148.839954,52.1720113 148.930421,52.1904433 149.000999,52.2433333 C149.601163,52.7502085 150.337828,53.0669231 151.117622,53.1533333 C151.479547,53.1991255 151.844289,53.093296 152.125968,52.8607631 C152.407647,52.6282302 152.581371,52.2895417 152.606237,51.9244444 C152.606237,51.1466667 151.916202,50.6255556 150.613664,50.0888889 C149.311127,49.5522222 148.210172,48.8133333 148.210172,47.2811111 C148.210172,46.2466667 148.985492,44.8311111 151.102116,44.8311111 C151.972179,44.8447194 152.818951,45.115247 153.536621,45.6088889 C153.610682,45.6547864 153.662104,45.729797 153.678325,45.8155973 C153.694546,45.9013977 153.674073,45.9900868 153.621906,46.06 L153.288518,46.5577778 C153.253699,46.6442175 153.181189,46.709793 153.091887,46.7356059 C153.002584,46.7614187 152.906409,46.7446012 152.831079,46.69 C152.297562,46.3304489 151.68622,46.1038019 151.047843,46.0288889 C149.939136,46.0288889 149.559229,46.7288889 149.559229,47.2188889 C149.559229,47.9966667 150.140719,48.44 151.23392,48.8911111 C152.78456,49.5133333 154.063838,50.2366667 154.063838,51.8544444 C154.063838,53.2311111 152.838833,54.3511111 151.125375,54.3511111 C150.087285,54.35951 149.081539,53.9891067 148.295457,53.3088889 C148.171406,53.2311111 148.086121,53.1377778 148.210172,52.8888889 Z" id="Path" fill-rule="nonzero"></path>
                <path d="M158.700252,45.2433333 C158.707936,45.1048988 158.81811,44.994375 158.956108,44.9866667 L159.824466,44.9866667 C159.961025,44.9946861 160.068779,45.1061599 160.072568,45.2433333 L160.072568,54.0011111 C160.068526,54.1368537 159.95978,54.2459453 159.824466,54.25 L158.940601,54.25 C158.803861,54.2461985 158.69274,54.1381027 158.684746,54.0011111 L158.700252,45.2433333 Z" id="Path" fill-rule="nonzero"></path>
                <path d="M165.445536,45.1111111 C165.449725,44.9767002 165.559587,44.87 165.693638,44.87 L166.027026,44.87 L171.748888,51.5122222 L171.748888,51.5122222 L171.748888,45.29 C171.746789,45.2226535 171.771998,45.1573309 171.818756,45.1089592 C171.865514,45.0605875 171.929824,45.0333004 171.99699,45.0333333 L172.896361,45.0333333 C173.03292,45.0413528 173.140674,45.1528266 173.144464,45.29 L173.144464,54.1488889 C173.14244,54.2128468 173.115156,54.2733746 173.06862,54.3171401 C173.022084,54.3609055 172.960115,54.3843186 172.896361,54.3822222 L172.55522,54.3822222 L166.825606,47.5533333 L166.825606,47.5533333 L166.825606,54.0011111 C166.825638,54.0684905 166.798437,54.1330042 166.750219,54.1799101 C166.702,54.226816 166.636884,54.2521056 166.56975,54.25 L165.740158,54.25 C165.604844,54.2459453 165.496097,54.1368537 165.492055,54.0011111 L165.445536,45.1111111 Z" id="Path" fill-rule="nonzero"></path>
                <path d="M182.556848,44.8544444 C183.740059,44.8545331 184.881116,45.2952186 185.75892,46.0911111 C185.809732,46.1382225 185.838624,46.2044792 185.838624,46.2738889 C185.838624,46.3432986 185.809732,46.4095552 185.75892,46.4566667 C185.56509,46.6666667 185.363507,46.8688889 185.161924,47.0788889 C184.96034,47.2888889 184.952587,47.1877778 184.820783,47.0788889 C184.204366,46.5208041 183.410093,46.200985 182.580108,46.1766667 C180.752898,46.2639278 179.316149,47.7754772 179.316149,49.6105556 C179.316149,51.4456339 180.752898,52.9571834 182.580108,53.0444444 C183.264353,53.0432778 183.939741,52.8891731 184.557174,52.5933333 L184.557174,51.1 L183.285649,51.1 C183.220589,51.1042494 183.1566,51.0818019 183.108357,51.0378061 C183.060115,50.9938103 183.031759,50.9320414 183.029794,50.8666667 L183.029794,50.0888889 C183.027459,50.0208137 183.053937,49.9549241 183.102683,49.9075058 C183.151428,49.8600875 183.217893,49.8355652 183.285649,49.84 L185.681388,49.84 C185.815374,49.8442024 185.921737,49.9544124 185.921737,50.0888889 C185.921737,51.1466667 185.921737,52.2355556 185.921737,53.2933333 C185.915758,53.3735839 185.879753,53.4485991 185.820946,53.5033333 C184.824403,54.0741985 183.69667,54.3744444 182.549095,54.3744444 C180.000986,54.2711378 177.988305,52.1688294 177.988305,49.6105556 C177.988305,47.0522817 180.000986,44.9499733 182.549095,44.8466667 L182.556848,44.8544444 Z" id="Path" fill-rule="nonzero"></path>
                <path d="M71.4534917,11.8766667 L71.4534917,8.55555556 C71.4534917,7 70.6781717,6.27666667 69.2360765,6.27666667 L68.4607565,6.27666667 C67.0186613,6.27666667 66.2976137,7.05444444 66.2976137,8.55555556 L66.2976137,14.8555556 C66.2283493,15.3595219 66.3653924,15.8701528 66.6775205,16.2711111 C67.1133615,16.6177432 67.5718232,16.9347468 68.0498369,17.22 L72.8800805,19.8177778 C73.653731,20.2398965 74.4019189,20.7073731 75.1207553,21.2177778 C75.5527309,21.540687 75.9054344,21.958356 76.1519309,22.4388889 C76.4637627,23.310357 76.5905258,24.2376011 76.5240845,25.1611111 L76.5240845,33.2655556 C76.5240845,37.532963 74.4824085,39.6666667 70.3990565,39.6666667 L67.2977765,39.6666667 C63.2661124,39.6666667 61.2502804,37.3333333 61.2502804,32.6666667 L61.2502804,30.7766667 L66.3208733,30.7766667 L66.3208733,32.8377778 C66.3208733,34.3233333 67.0961933,35.0622222 68.5925609,35.0622222 L69.4841789,35.0622222 C70.8254825,35.0622222 71.4922577,34.3233333 71.4922577,32.8377778 L71.4922577,26.3822222 C71.5550963,25.8677029 71.4036308,25.3499619 71.0735849,24.9511111 C70.6396798,24.6018618 70.1810314,24.2847291 69.7012685,24.0022222 L64.8942845,21.2955556 C64.076799,20.8942103 63.2981496,20.4177284 62.5683244,19.8722222 C62.0893118,19.4771704 61.7317619,18.9539781 61.5371488,18.3633333 C61.3040139,17.581709 61.1967043,16.7677719 61.2192676,15.9522222 L61.2192676,8.17444444 C61.2192676,3.83444444 63.2428528,1.66444444 67.2900233,1.66444444 L70.4610821,1.66444444 C74.5004993,1.66444444 76.5318377,3.83444444 76.5318377,8.17444444 L76.5318377,11.8844444 L71.4534917,11.8766667 Z" id="Path" fill-rule="nonzero"></path>
                <path d="M95.8915783,1.65666667 L95.8915783,32.4722222 C95.8915783,37.2737037 93.8499023,39.6744444 89.7665502,39.6744444 L85.494537,39.6744444 C81.4473666,39.6744444 79.4237814,37.2555556 79.4237814,32.4177778 L79.4237814,1.65666667 L84.5098806,1.65666667 L84.5098806,32.5733333 C84.5098806,34.2377778 85.2852006,35.0622222 86.7272958,35.0622222 L88.789647,35.0622222 C90.1619634,35.0622222 90.844245,34.2377778 90.844245,32.5733333 L90.844245,1.65666667 L95.8915783,1.65666667 Z" id="Path" fill-rule="nonzero"></path>
                <polygon id="Path" fill-rule="nonzero" points="111.351459 39.6666667 99.3184927 39.6666667 99.3184927 1.65666667 104.389086 1.65666667 104.389086 35.0622222 111.366966 35.0622222"></polygon>
                <path d="M114.204637,1.65666667 L123.446451,1.65666667 C127.524634,1.65666667 129.563726,3.82666667 129.563726,8.16666667 L129.563726,19.4444444 C129.563726,23.7533333 127.542725,25.9077778 123.500724,25.9077778 L119.27523,25.9077778 L119.27523,39.6666667 L114.204637,39.6666667 L114.204637,1.65666667 Z M119.27523,21.2955556 L122.500561,21.2955556 C123.841864,21.2955556 124.50864,20.5566667 124.50864,19.0711111 L124.50864,8.48555556 C124.50864,7 123.73332,6.26111111 122.236952,6.26111111 L119.282983,6.26111111 L119.27523,21.2955556 Z" id="Shape" fill-rule="nonzero"></path>
                <path d="M137.386705,39.6666667 L132.316112,39.6666667 L132.316112,8.16666667 C132.316112,3.82666667 134.339697,1.65666667 138.386868,1.65666667 L142.185936,1.65666667 C146.233106,1.65666667 148.256691,3.82666667 148.256691,8.16666667 L148.256691,39.6666667 L143.193852,39.6666667 L143.193852,25.7444444 L137.386705,25.7444444 L137.386705,39.6666667 Z M143.193852,21.1322222 L143.193852,8.48555556 C143.280387,7.87306771 143.074775,7.255411 142.638734,6.8179883 C142.202694,6.3805656 141.586989,6.1743017 140.976437,6.26111111 L139.60412,6.26111111 C138.993568,6.1743017 138.377863,6.3805656 137.941822,6.8179883 C137.505782,7.255411 137.30017,7.87306771 137.386705,8.48555556 L137.386705,21.14 L143.193852,21.1322222 Z" id="Shape" fill-rule="nonzero"></path>
                <polygon id="Path" fill-rule="nonzero" points="161.925583 20.0277778 161.925583 1.65666667 166.996176 1.65666667 166.996176 39.6666667 161.925583 39.6666667 161.925583 32.0988889 156.498343 14.7855556 156.498343 39.6666667 151.435503 39.6666667 151.435503 1.65666667 156.498343 1.65666667"></polygon>
                <path d="M175.222321,39.6666667 L170.151728,39.6666667 L170.151728,8.16666667 C170.151728,3.82666667 172.175314,1.65666667 176.222484,1.65666667 L180.021552,1.65666667 C184.068722,1.65666667 186.092308,3.82666667 186.092308,8.16666667 L186.092308,39.6666667 L181.037221,39.6666667 L181.037221,25.7444444 L175.222321,25.7444444 L175.222321,39.6666667 Z M181.029468,21.1322222 L181.029468,8.48555556 C181.116003,7.87306771 180.910391,7.255411 180.474351,6.8179883 C180.03831,6.3805656 179.422605,6.1743017 178.812053,6.26111111 L177.439736,6.26111111 C176.829184,6.1743017 176.213479,6.3805656 175.777439,6.8179883 C175.341398,7.255411 175.135786,7.87306771 175.222321,8.48555556 L175.222321,21.14 L181.029468,21.1322222 Z" id="Shape" fill-rule="nonzero"></path>
            </g>
        </g>
    </g>
</svg>