<?xml version="1.0" encoding="UTF-8"?>
<svg width="304px" height="70px" viewBox="0 0 304 70" version="1.1" xmlns="http://www.w3.org/2000/svg" xmlns:xlink="http://www.w3.org/1999/xlink">
    <title>FA8A0CC0-3D81-4E49-812E-A09910295FB7</title>
    <g id="Page-1" stroke="none" stroke-width="1" fill="none" fill-rule="evenodd">
        <g id="Burada_Homepage_1920px_Wide" transform="translate(-808.000000, -9480.000000)">
            <g id="logo-burada" transform="translate(808.000000, 9480.000000)">
                <path d="M53.9757263,15.7511137 L30.1520395,29.7378643 C29.8477808,29.9163017 29.4703169,29.9163017 29.1660582,29.7355766 L5.32178247,15.6641826 C4.67437481,15.2821434 4.67895013,14.3350524 5.32864545,13.9575885 L29.2049484,0.130974081 C29.5069195,-0.0451757062 29.879808,-0.0428880466 30.1840667,0.133261741 L53.9757263,14.0445196 C54.623134,14.4242711 54.6254216,15.3690745 53.9757263,15.7511137" id="Fill-1" fill="#FFE000"></path>
                <path d="M1.53044426,22.335913 L25.3587064,36.3981564 C25.6583898,36.5765938 25.8436902,36.8991538 25.8436902,37.2514534 L25.8436902,64.8955317 C25.8436902,65.6573223 25.0269957,66.1308679 24.3727251,65.7511164 L0.487271489,51.782667 C0.185300426,51.6042296 -2.13162821e-15,51.2793819 -2.13162821e-15,50.9270823 L0.0571914894,23.1869223 C0.0571914894,22.4251317 0.878461277,21.9515862 1.53044426,22.335913" id="Fill-5" fill="#009C43"></path>
                <path d="M33.4874471,64.8285033 L33.4874471,37.2805067 C33.4874471,36.9304948 33.6727476,36.6056471 33.972431,36.4272097 L57.8235697,22.4267331 C58.4778403,22.0424063 59.2968225,22.5182394 59.2968225,23.2800301 L59.2373433,51.0499297 C59.2373433,51.4022292 59.0497552,51.7270769 58.7477842,51.9032267 L34.9538369,65.684088 C34.301854,66.0615518 33.4874471,65.5880063 33.4874471,64.8285033" id="Fill-7" fill="#E83638"></path>
                <g id="Group" transform="translate(142.644366, 58.705705)" fill="#111111">
                    <polygon id="Fill-9" points="1.91846539e-14 0.116327489 1.51328681 0.116327489 1.51328681 8.93096579 7.25502638 8.93096579 7.25502638 10.1817437 1.91846539e-14 10.1817437"></polygon>
                    <path d="M15.6854237,8.51198094 C16.308239,8.17741072 16.7972262,7.71415966 17.154959,7.12480136 C17.5126917,6.53544306 17.6928449,5.87659711 17.6928449,5.14826349 C17.6928449,4.41992987 17.5126917,3.76108391 17.154959,3.17172562 C16.7972262,2.58236732 16.308239,2.11911626 15.6854237,1.78454604 C15.065182,1.44740221 14.3651581,1.28011711 13.5879258,1.28011711 C12.8106934,1.28011711 12.1055224,1.44740221 11.4749862,1.78454604 C10.84445,2.11911626 10.347742,2.58236732 9.99000919,3.17172562 C9.63227643,3.76108391 9.45212323,4.41992987 9.45212323,5.14826349 C9.45212323,5.87659711 9.63227643,6.53544306 9.99000919,7.12480136 C10.347742,7.71415966 10.84445,8.17741072 11.4749862,8.51198094 C12.1055224,8.84912477 12.8106934,9.01640987 13.5879258,9.01640987 C14.3651581,9.01640987 15.065182,8.84912477 15.6854237,8.51198094 M10.6951803,9.62893072 C9.83816579,9.18112136 9.16130451,8.56602689 8.67231728,7.77850009 C8.18075643,6.99354689 7.93883643,6.11594349 7.93883643,5.14826349 C7.93883643,4.18058349 8.18075643,3.30298009 8.67231728,2.51545328 C9.16130451,1.7330737 9.83816579,1.11540562 10.6951803,0.670169872 C11.5521947,0.222360511 12.5173011,0.00102944681 13.5879258,0.00102944681 C14.648256,0.00102944681 15.6082151,0.222360511 16.4652296,0.670169872 C17.3248177,1.11540562 17.9965317,1.73050009 18.4803717,2.51030604 C18.9642117,3.29268562 19.2087054,4.17028902 19.2087054,5.14826349 C19.2087054,6.12623796 18.9642117,7.00641498 18.4803717,7.78622094 C17.9965317,8.56860051 17.3248177,9.18112136 16.4652296,9.62893072 C15.6082151,10.0715929 14.648256,10.2954975 13.5879258,10.2954975 C12.5173011,10.2954975 11.5521947,10.0715929 10.6951803,9.62893072" id="Fill-11"></path>
                    <path d="M28.8726373,5.09138655 L30.3241573,5.09138655 L30.3241573,9.01615251 C29.7991394,9.42793123 29.1917658,9.74448613 28.4943156,9.96581719 C27.7968654,10.1845746 27.0685317,10.2952402 26.3118883,10.2952402 C25.2412637,10.2952402 24.2761573,10.0739091 23.4191428,9.62867336 C22.5595547,9.180864 21.8878407,8.56834315 21.3962798,7.78596357 C20.9072926,7.00615762 20.662799,6.1259806 20.662799,5.14800613 C20.662799,4.17003166 20.9072926,3.28985464 21.3962798,2.50232783 C21.8878407,1.71480102 22.5621283,1.10485379 23.4268637,0.66219166 C24.291599,0.219529532 25.2618526,0.000772085106 26.3427717,0.000772085106 C27.1920654,0.000772085106 27.9615769,0.13460017 28.6513062,0.397109106 C29.3436092,0.659618043 29.9329675,1.0456606 30.4168075,1.55266315 L29.4774373,2.44570826 C28.6307173,1.66847591 27.6038441,1.27985974 26.4045386,1.27985974 C25.5938492,1.27985974 24.8706628,1.44457123 24.2298322,1.77656783 C23.5864279,2.10599081 23.0845726,2.56666826 22.7216926,3.15860017 C22.3588126,3.74795847 22.1760858,4.40937804 22.1760858,5.14800613 C22.1760858,5.87633974 22.3588126,6.53775932 22.7216926,7.12711762 C23.0845726,7.7139023 23.5864279,8.17715336 24.2298322,8.51172357 C24.8706628,8.8488674 25.588702,9.01615251 26.3865232,9.01615251 C27.3361879,9.01615251 28.1648926,8.79996868 28.8726373,8.36760102 L28.8726373,5.09138655 Z" id="Fill-13"></path>
                    <polygon id="Fill-15" points="33.2205059 10.1825157 34.7337927 10.1825157 34.7337927 0.117099574 33.2205059 0.117099574"></polygon>
                    <path d="M38.6945893,9.94342672 C37.9533876,9.70922757 37.3691765,9.40554077 36.9445297,9.0323663 L37.5055782,7.90769566 C37.9096361,8.25513396 38.4269331,8.53565821 39.0574693,8.74926843 C39.6905791,8.96545226 40.3391306,9.07354417 41.0031237,9.07354417 C41.8833008,9.07354417 42.5395731,8.93199523 42.9745144,8.64889736 C43.406882,8.36837311 43.6256395,7.9900514 43.6256395,7.52165311 C43.6256395,7.17678843 43.5072531,6.89626417 43.2679067,6.68008034 C43.031134,6.46389651 42.7403152,6.29918502 42.3903033,6.18337226 C42.0402914,6.06755949 41.5487306,5.93887864 40.9130471,5.79475609 C40.1152259,5.61202928 39.4718216,5.43187609 38.9828344,5.24914928 C38.4912735,5.06642247 38.0743476,4.78847183 37.7243357,4.40757651 C37.3768974,4.02925481 37.2018914,3.51710502 37.2018914,2.87627438 C37.2018914,2.34096204 37.3511612,1.85454843 37.6497008,1.42475438 C37.9456667,0.992386723 38.3986233,0.647522043 39.0059969,0.39016034 C39.6107969,0.130225021 40.3622931,0.00154417021 41.2630591,0.00154417021 C41.888448,0.00154417021 42.5035425,0.0787526809 43.1109161,0.230596085 C43.7157161,0.385013106 44.2355867,0.60634417 44.670528,0.89201566 L44.1686727,2.04242247 C43.7260106,1.7747663 43.252465,1.57145055 42.7454625,1.43247523 C42.2410335,1.29349991 41.7468991,1.22143864 41.2630591,1.22143864 C40.403471,1.22143864 39.7600667,1.37070843 39.3302727,1.669248 C38.9030523,1.96521396 38.6868684,2.34868289 38.6868684,2.81965481 C38.6868684,3.16451949 38.8078284,3.44504374 39.052322,3.66122757 C39.2916684,3.87483779 39.5927816,4.04469651 39.953088,4.16308289 C40.3082471,4.28404289 40.7972344,4.41015013 41.4149025,4.54397821 C42.2127237,4.72670502 42.8535544,4.90943183 43.3373944,5.09215864 C43.8212344,5.27488545 44.2381603,5.55026247 44.5881723,5.92601055 C44.9356106,6.29918502 45.1106165,6.80104034 45.1106165,7.43415013 C45.1106165,7.96174162 44.9587731,8.443008 44.6550863,8.88052289 C44.3513995,9.31546417 43.8932957,9.66032885 43.2756276,9.91511694 C42.6605331,10.169905 41.9038897,10.2960123 41.0031237,10.2960123 C40.2078761,10.2960123 39.4383646,10.1776259 38.6945893,9.94342672" id="Fill-17"></path>
                    <polygon id="Fill-18" points="49.2757583 1.366848 45.6392374 1.366848 45.6392374 0.116070128 54.4101243 0.116070128 54.4101243 1.366848 50.776177 1.366848 50.776177 10.1814863 49.2757583 10.1814863"></polygon>
                    <polygon id="Fill-19" points="56.0613569 10.1825157 57.5746437 10.1825157 57.5746437 0.117099574 56.0613569 0.117099574"></polygon>
                    <path d="M62.627426,9.62790128 C61.7729852,9.18266553 61.1064184,8.56757106 60.6200048,7.78776511 C60.1361648,7.00538553 59.8942448,6.12778213 59.8942448,5.14723404 C59.8942448,4.16925957 60.1361648,3.29165617 60.6200048,2.5092766 C61.1064184,1.72947064 61.7755588,1.11437617 62.6351469,0.669140426 C63.4921614,0.223904681 64.4521205,-9.59232693e-15 65.5150243,-9.59232693e-15 C66.3411554,-9.59232693e-15 67.0977988,0.133828085 67.7849546,0.396337021 C68.4721103,0.661419574 69.058895,1.05003574 69.542735,1.56733277 L68.5596133,2.47324596 C67.761792,1.68057191 66.7658022,1.27908766 65.5742175,1.27908766 C64.7866907,1.27908766 64.0737988,1.44894638 63.4381154,1.7835166 C62.802432,2.12066043 62.3057239,2.58133787 61.9454175,3.17069617 C61.5876848,3.76005447 61.4075316,4.41890043 61.4075316,5.14723404 C61.4075316,5.87556766 61.5876848,6.53698723 61.9454175,7.12634553 C62.3057239,7.71313021 62.802432,8.17895489 63.4381154,8.51095149 C64.0737988,8.84809532 64.7866907,9.01538043 65.5742175,9.01538043 C66.7555077,9.01538043 67.7489239,8.61132255 68.5596133,7.80835404 L69.542735,8.71426723 C69.058895,9.23156426 68.4695367,9.62532766 67.7772337,9.89298383 C67.0849307,10.16064 66.3257137,10.2944681 65.4995826,10.2944681 C64.4366788,10.2944681 63.4818669,10.073137 62.627426,9.62790128" id="Fill-20"></path>
                    <path d="M72.4432014,9.94342672 C71.699426,9.70922757 71.1177886,9.40554077 70.6931418,9.0323663 L71.2541903,7.90769566 C71.6582482,8.25513396 72.1755452,8.53565821 72.8060814,8.74926843 C73.4366175,8.96545226 74.0877426,9.07354417 74.7517358,9.07354417 C75.6319129,9.07354417 76.2881852,8.93199523 76.7231265,8.64889736 C77.1580677,8.36837311 77.3742516,7.9900514 77.3742516,7.52165311 C77.3742516,7.17678843 77.2558652,6.89626417 77.0165188,6.68008034 C76.7823197,6.46389651 76.4863537,6.29918502 76.141489,6.18337226 C75.7914771,6.06755949 75.2999163,5.93887864 74.6616592,5.79475609 C73.863838,5.61202928 73.2204337,5.43187609 72.7314465,5.24914928 C72.2398856,5.06642247 71.8229597,4.78847183 71.4755214,4.40757651 C71.1255094,4.02925481 70.9505035,3.51710502 70.9505035,2.87627438 C70.9505035,2.34096204 71.0997733,1.85454843 71.3983129,1.42475438 C71.6942788,0.992386723 72.1472354,0.647522043 72.754609,0.39016034 C73.359409,0.130225021 74.1109052,0.00154417021 75.0116711,0.00154417021 C75.6370601,0.00154417021 76.2521546,0.0787526809 76.8569546,0.230596085 C77.4643282,0.385013106 77.9841988,0.60634417 78.4191401,0.89201566 L77.9172848,2.04242247 C77.4746226,1.7747663 77.0010771,1.57145055 76.4940746,1.43247523 C75.9896456,1.29349991 75.4955111,1.22143864 75.0116711,1.22143864 C74.1520831,1.22143864 73.5086788,1.37070843 73.0788848,1.669248 C72.6490907,1.96521396 72.4354805,2.34868289 72.4354805,2.81965481 C72.4354805,3.16451949 72.5564405,3.44504374 72.7983605,3.66122757 C73.0402805,3.87483779 73.3413937,4.04469651 73.6991265,4.16308289 C74.0594329,4.28404289 74.5458465,4.41015013 75.1635146,4.54397821 C75.9587622,4.72670502 76.5995929,4.90943183 77.0860065,5.09215864 C77.5698465,5.27488545 77.9867724,5.55026247 78.3367843,5.92601055 C78.6842226,6.29918502 78.8592286,6.80104034 78.8592286,7.43415013 C78.8592286,7.96174162 78.7073852,8.443008 78.4036984,8.88052289 C78.1000116,9.31546417 77.6419077,9.66032885 77.0242397,9.91511694 C76.4091452,10.169905 75.6525018,10.2960123 74.7517358,10.2960123 C73.9539146,10.2960123 73.1844031,10.1776259 72.4432014,9.94342672" id="Fill-21"></path>
                    <path d="M84.9543258,7.16108936 C84.6866696,6.91144851 84.5554151,6.59489362 84.5554151,6.21142468 C84.5554151,5.84854468 84.6892432,5.53971064 84.9620466,5.28492255 C85.23485,5.03013447 85.5591258,4.90402723 85.9323003,4.90402723 C86.3054747,4.90402723 86.6271769,5.03013447 86.8922594,5.28492255 C87.1599156,5.53971064 87.2963173,5.84854468 87.2963173,6.21142468 C87.2963173,6.59489362 87.1599156,6.91144851 86.8922594,7.16108936 C86.6271769,7.41073021 86.3054747,7.53683745 85.9323003,7.53683745 C85.5488313,7.53683745 85.221982,7.41073021 84.9543258,7.16108936" id="Fill-22"></path>
                    <path d="M101.322273,5.09138655 L102.776366,5.09138655 L102.776366,9.01615251 C102.251348,9.42793123 101.641401,9.74448613 100.943951,9.96581719 C100.246501,10.1845746 99.5181671,10.2952402 98.7615237,10.2952402 C97.6908991,10.2952402 96.7283663,10.0739091 95.8687782,9.62867336 C95.0091901,9.180864 94.3349025,8.56834315 93.8459152,7.78596357 C93.356928,7.00615762 93.1124344,6.1259806 93.1124344,5.14800613 C93.1124344,4.17003166 93.356928,3.28985464 93.8459152,2.50232783 C94.3349025,1.71480102 95.0117637,1.10485379 95.8764991,0.66219166 C96.7386608,0.219529532 97.711488,0.000772085106 98.7924071,0.000772085106 C99.6417008,0.000772085106 100.411212,0.13460017 101.103515,0.397109106 C101.793245,0.659618043 102.382603,1.0456606 102.869017,1.55266315 L101.927073,2.44570826 C101.080353,1.66847591 100.053479,1.27985974 98.854174,1.27985974 C98.0460582,1.27985974 97.3202982,1.44457123 96.6794676,1.77656783 C96.0386369,2.10599081 95.534208,2.56666826 95.171328,3.15860017 C94.808448,3.74795847 94.6257212,4.40937804 94.6257212,5.14800613 C94.6257212,5.87633974 94.808448,6.53775932 95.171328,7.12711762 C95.534208,7.7139023 96.0386369,8.17715336 96.6794676,8.51172357 C97.3202982,8.8488674 98.040911,9.01615251 98.8387323,9.01615251 C99.7858233,9.01615251 100.614528,8.79996868 101.322273,8.36760102 L101.322273,5.09138655 Z" id="Fill-23"></path>
                    <path d="M106.759811,9.14534809 C105.972284,8.37841021 105.578521,7.27690213 105.578521,5.83825021 L105.578521,0.117099574 L107.094381,0.117099574 L107.094381,5.78163064 C107.094381,7.9383217 108.090371,9.01666723 110.077203,9.01666723 C111.047457,9.01666723 111.788658,8.74901106 112.303382,8.21884596 C112.818105,7.68610723 113.075467,6.87541787 113.075467,5.78163064 L113.075467,0.117099574 L114.545002,0.117099574 L114.545002,5.83825021 C114.545002,7.2871966 114.151239,8.3912783 113.363712,9.15306894 C112.576185,9.91485957 111.474677,10.2957549 110.061761,10.2957549 C108.648846,10.2957549 107.549911,9.91228596 106.759811,9.14534809" id="Fill-24"></path>
                    <polygon id="Fill-25" points="121.558109 6.701184 121.558109 10.1807142 120.060263 10.1807142 120.060263 6.67287421 115.847252 0.115298043 117.468631 0.115298043 120.860658 5.41952272 124.270701 0.115298043 125.77112 0.115298043"></polygon>
                    <path d="M132.887943,6.51408204 L130.602571,1.58303183 L128.314625,6.51408204 L132.887943,6.51408204 Z M133.418108,7.66448885 L127.78446,7.66448885 L126.616038,10.1814863 L125.056426,10.1814863 L129.858796,0.116070128 L131.359214,0.116070128 L136.177025,10.1814863 L134.58653,10.1814863 L133.418108,7.66448885 Z" id="Fill-26"></path>
                    <polygon id="Fill-27" points="146.869632 0.116327489 146.869632 10.1817437 145.629149 10.1817437 139.267167 2.67450281 139.267167 10.1817437 137.751307 10.1817437 137.751307 0.116327489 138.99179 0.116327489 145.356345 7.62099472 145.356345 0.116327489"></polygon>
                    <path d="M156.276717,6.51408204 L153.988771,1.58303183 L151.703399,6.51408204 L156.276717,6.51408204 Z M156.806882,7.66448885 L151.173234,7.66448885 L150.004812,10.1814863 L148.4452,10.1814863 L153.24757,0.116070128 L154.747988,0.116070128 L159.563226,10.1814863 L157.972731,10.1814863 L156.806882,7.66448885 Z" id="Fill-28"></path>
                </g>
                <path d="M80.5988221,33.9261114 L80.5988221,27.6236093 L97.3353396,27.6236093 C99.3644936,27.6236093 100.181188,28.0468263 100.485447,28.3007565 C100.942979,28.6759327 101.192334,29.6230238 101.192334,30.9635923 C101.192334,31.7482595 101.077951,32.786857 100.519762,33.2695531 C100.025627,33.6973455 99.119714,33.9261114 97.8981038,33.9261114 L80.5988221,33.9261114 Z M80.5988221,46.23372 L80.5988221,39.0344553 L97.8317617,39.0344553 C100.119421,39.0344553 101.018471,39.4942748 101.35247,39.7665063 C101.643003,40.0067106 102.132562,40.7158851 102.132562,42.7885046 C102.132562,43.6944178 101.999877,44.8908638 101.377634,45.4376144 C100.837746,45.91116 99.8311762,46.1628025 98.4654434,46.1628025 L80.5988221,46.23372 Z M105.152272,35.7745404 C105.666996,35.3307344 106.035309,34.9006544 106.273226,34.4705744 C106.765072,33.5829625 106.991551,32.2057914 106.991551,30.1354595 C106.991551,27.8729642 106.312116,26.0268229 104.966972,24.6450765 C103.614965,23.2564672 101.78255,22.5541557 99.5200545,22.5541557 L74.9139881,22.5152655 L74.9139881,51.4976246 L99.5200545,51.4976246 C102.162301,51.4976246 104.271523,50.6877931 105.783666,49.0932944 C107.282083,47.5148093 108.041586,45.4078748 108.041586,42.8251072 C108.041586,40.7913778 107.689287,39.0985097 106.9824,37.7670919 C106.501991,36.9092195 105.886611,36.2412229 105.152272,35.7745404 L105.152272,35.7745404 Z" id="Fill-29" fill="#111111"></path>
                <path d="M139.690442,41.6101312 C139.690442,44.0327627 139.161992,44.9592648 138.846295,45.2955508 C138.477982,45.6913159 137.585795,46.1625737 135.428532,46.1625737 L122.231024,46.1625737 C120.636525,46.1625737 119.44923,45.9406708 118.746918,45.5334674 C118.268797,45.2246333 117.63054,44.6184035 117.63054,42.9369737 L117.63054,22.4029414 L111.833611,22.4029414 L111.833611,42.7882759 C111.833611,46.7024614 113.258823,49.319544 116.077219,50.5663184 C117.648842,51.2434657 120.380307,51.570601 124.39515,51.570601 L124.406588,51.570601 L128.15835,51.684984 L132.234959,51.5339984 L136.666156,51.4219031 C139.267225,51.4219031 141.355858,50.811098 142.89774,49.5872001 C144.615773,48.1619882 145.487371,46.073355 145.487371,43.378492 L145.487371,22.4029414 L139.690442,22.4029414 L139.690442,41.6101312 Z" id="Fill-30" fill="#111111"></path>
                <path d="M177.084982,31.7736525 C177.084982,32.8534279 176.922559,34.2649138 176.137891,34.8665683 C175.815331,35.1204985 174.934582,35.5437155 172.630909,35.5437155 L155.702228,35.614633 L155.702228,27.5117428 L171.960625,27.5117428 C174.632611,27.5117428 175.646045,27.9715623 176.000632,28.2369308 C176.895107,28.9232287 177.084982,30.5383164 177.084982,31.7736525 M181.962273,36.561724 C182.589091,35.5505785 182.881912,33.9789564 182.881912,31.6249547 C182.881912,28.3810534 182.090382,25.9995998 180.532485,24.5492236 C178.997466,23.1262994 176.632026,22.4033989 173.497932,22.4033989 L149.903011,22.4033989 L149.903011,51.4978534 L155.702228,51.4978534 L155.702228,40.6909496 L172.559992,40.6909496 C174.932295,40.6909496 175.771866,41.2010977 176.060111,41.5053564 C176.359794,41.8210534 176.858504,42.6995147 176.858504,45.0100508 L176.673204,51.4978534 L182.470133,51.4978534 L182.470133,43.6900713 C182.470133,42.0155045 182.122409,40.6406211 181.406371,39.5631334 C181.081524,39.1147521 180.678896,38.718987 180.200775,38.3758381 C181.044921,37.7787589 181.621411,37.1839674 181.962273,36.561724" id="Fill-31" fill="#111111"></path>
                <path d="M198.591956,40.4775109 L205.715728,28.4558599 L212.537529,40.4775109 L198.591956,40.4775109 Z M202.817264,22.4050003 L185.614064,51.4331126 L192.262002,51.3987977 L195.622574,45.510362 L215.456583,45.510362 L218.991017,51.4125237 L225.579476,51.4262497 L208.630207,22.4050003 L202.817264,22.4050003 Z" id="Fill-32" fill="#111111"></path>
                <path d="M257.838908,36.9499399 C257.838908,41.7700386 257.189213,43.4995092 256.802598,44.098876 C255.90126,45.4943484 253.846942,46.2012352 250.689972,46.2012352 L234.879956,46.2012352 L234.879956,27.7375348 L251.476927,27.7375348 C254.306762,27.7375348 256.093424,28.4970377 256.93757,30.0503586 C257.349349,30.8190122 257.838908,32.6399892 257.838908,36.9499399 M263.155429,30.4987399 C262.5675,27.883945 261.441972,25.9188454 259.81087,24.6606326 C257.971592,23.2377084 255.306469,22.5170956 251.888705,22.5170956 L229.156232,22.5170956 L229.156232,51.4216743 L252.826646,51.4216743 C256.928419,51.4216743 259.888651,50.0948318 261.622697,47.4823245 C263.029607,45.3914037 263.71133,42.3533918 263.71133,38.192139 C263.71133,34.758362 263.530605,32.2442241 263.155429,30.4987399" id="Fill-33" fill="#111111"></path>
                <path d="M276.68968,40.4775109 L283.813452,28.4558599 L290.637541,40.4775109 L276.68968,40.4775109 Z M286.727931,22.4050003 L280.917275,22.4050003 L263.714075,51.4331126 L270.362014,51.3987977 L273.722586,45.510362 L293.554307,45.510362 L297.088741,51.4125237 L303.679488,51.4262497 L286.727931,22.4050003 Z" id="Fill-34" fill="#111111"></path>
            </g>
        </g>
    </g>
</svg>