<?xml version="1.0" encoding="UTF-8"?>
<svg width="254px" height="58px" viewBox="0 0 254 58" version="1.1" xmlns="http://www.w3.org/2000/svg" xmlns:xlink="http://www.w3.org/1999/xlink">
    <title>23DA6871-B135-4C66-958D-3EA49D48DDF1</title>
    <g id="Page-1" stroke="none" stroke-width="1" fill="none" fill-rule="evenodd">
        <g id="Burada_Homepage_1920px_Wide" transform="translate(-60.000000, -30.000000)">
            <g id="logo-burada-header" transform="translate(60.000381, 30.000281)">
                <path d="M44.9797719,13.125928 L25.1266996,24.7815536 C24.8731506,24.9302515 24.5585974,24.9302515 24.3050485,24.7796472 L4.43481872,13.0534855 C3.89531234,12.7351195 3.89912511,11.945877 4.44053787,11.6313238 L24.337457,0.109145068 C24.5890996,-0.0376464218 24.89984,-0.0357400388 25.1533889,0.111051451 L44.9797719,11.7037663 C45.5192783,12.0202259 45.5211847,12.8075621 44.9797719,13.125928" id="Fill-1" fill="#FFE000"></path>
                <path d="M1.27537021,18.6132608 L21.1322553,30.331797 C21.3819915,30.4804949 21.5364085,30.7492949 21.5364085,31.0428778 L21.5364085,54.0796097 C21.5364085,54.7144353 20.8558298,55.1090566 20.3106043,54.792597 L0.406059574,43.1522225 C0.154417021,43.0035246 -1.77635684e-15,42.7328183 -1.77635684e-15,42.4392353 L0.0476595745,19.3224353 C0.0476595745,18.6876097 0.732051064,18.2929885 1.27537021,18.6132608" id="Fill-5" fill="#009C43"></path>
                <path d="M27.906206,54.0237527 L27.906206,31.0670889 C27.906206,30.7754123 28.060623,30.5047059 28.3103591,30.356008 L48.1863081,18.6889442 C48.7315336,18.3686719 49.4140187,18.7651995 49.4140187,19.4000251 L49.3644528,42.541608 C49.3644528,42.835191 49.2081294,43.1058974 48.9564868,43.2526889 L29.1281974,54.73674 C28.5848783,55.0512932 27.906206,54.6566719 27.906206,54.0237527" id="Fill-7" fill="#E83638"></path>
                <g id="Group" transform="translate(118.870305, 48.921421)" fill="#FFFFFF">
                    <polygon id="Fill-9" points="1.59872116e-14 0.0969395745 1.26107234 0.0969395745 1.26107234 7.44247149 6.04585532 7.44247149 6.04585532 8.48478638 1.59872116e-14 8.48478638"></polygon>
                    <path d="M13.0711864,7.09331745 C13.5901991,6.81450894 13.9976885,6.42846638 14.2957991,5.93733447 C14.5939098,5.44620255 14.7440374,4.89716426 14.7440374,4.29021957 C14.7440374,3.68327489 14.5939098,3.1342366 14.2957991,2.64310468 C13.9976885,2.15197277 13.5901991,1.76593021 13.0711864,1.4871217 C12.5543183,1.20616851 11.9709651,1.06676426 11.3232715,1.06676426 C10.6755779,1.06676426 10.0879353,1.20616851 9.56248851,1.4871217 C9.0370417,1.76593021 8.6231183,2.15197277 8.32500766,2.64310468 C8.02689702,3.1342366 7.87676936,3.68327489 7.87676936,4.29021957 C7.87676936,4.89716426 8.02689702,5.44620255 8.32500766,5.93733447 C8.6231183,6.42846638 9.0370417,6.81450894 9.56248851,7.09331745 C10.0879353,7.37427064 10.6755779,7.51367489 11.3232715,7.51367489 C11.9709651,7.51367489 12.5543183,7.37427064 13.0711864,7.09331745 M8.91265021,8.02410894 C8.19847149,7.65093447 7.63442043,7.13835574 7.22693106,6.4820834 C6.81729702,5.82795574 6.61569702,5.09661957 6.61569702,4.29021957 C6.61569702,3.48381957 6.81729702,2.7524834 7.22693106,2.09621106 C7.63442043,1.44422809 8.19847149,0.929504681 8.91265021,0.558474894 C9.62682894,0.185300426 10.4310843,0.00085787234 11.3232715,0.00085787234 C12.20688,0.00085787234 13.006846,0.185300426 13.7210247,0.558474894 C14.4373481,0.929504681 14.9971098,1.4420834 15.4003098,2.0919217 C15.8035098,2.74390468 16.0072545,3.47524085 16.0072545,4.29021957 C16.0072545,5.1051983 15.8035098,5.83867915 15.4003098,6.48851745 C14.9971098,7.14050043 14.4373481,7.65093447 13.7210247,8.02410894 C13.006846,8.39299404 12.20688,8.57958128 11.3232715,8.57958128 C10.4310843,8.57958128 9.62682894,8.39299404 8.91265021,8.02410894" id="Fill-11"></path>
                    <path d="M24.0605311,4.24282213 L25.2701311,4.24282213 L25.2701311,7.51346043 C24.8326162,7.85660936 24.3264715,8.12040511 23.745263,8.30484766 C23.1640545,8.48714553 22.5571098,8.57936681 21.9265736,8.57936681 C21.0343864,8.57936681 20.2301311,8.39492426 19.5159523,8.02389447 C18.7996289,7.65072 18.2398672,7.14028596 17.8302332,6.48830298 C17.4227438,5.83846468 17.2189991,5.10498383 17.2189991,4.29000511 C17.2189991,3.47502638 17.4227438,2.74154553 17.8302332,2.08527319 C18.2398672,1.42900085 18.8017736,0.920711489 19.5223864,0.551826383 C20.2429991,0.182941277 21.0515438,0.000643404255 21.9523098,0.000643404255 C22.6600545,0.000643404255 23.301314,0.112166809 23.8760885,0.330924255 C24.4530077,0.549681702 24.9441396,0.87138383 25.3473396,1.29388596 L24.5645311,2.03809021 C23.8589311,1.3903966 23.0032034,1.06654979 22.0037821,1.06654979 C21.3282077,1.06654979 20.7255523,1.20380936 20.1915268,1.48047319 C19.6553566,1.75499234 19.2371438,2.13889021 18.9347438,2.63216681 C18.6323438,3.12329872 18.4800715,3.6744817 18.4800715,4.29000511 C18.4800715,4.89694979 18.6323438,5.44813277 18.9347438,5.93926468 C19.2371438,6.42825191 19.6553566,6.81429447 20.1915268,7.09310298 C20.7255523,7.37405617 21.3239183,7.51346043 21.9887694,7.51346043 C22.7801566,7.51346043 23.4707438,7.33330723 24.0605311,6.97300085 L24.0605311,4.24282213 Z" id="Fill-13"></path>
                    <polygon id="Fill-15" points="27.6837549 8.48542979 28.9448272 8.48542979 28.9448272 0.0975829787 27.6837549 0.0975829787"></polygon>
                    <path d="M32.2454911,8.28618894 C31.627823,8.09102298 31.1409804,7.83795064 30.7871081,7.52697191 L31.2546485,6.58974638 C31.5913634,6.8792783 32.0224443,7.11304851 32.5478911,7.29105702 C33.0754826,7.47121021 33.6159421,7.56128681 34.1692698,7.56128681 C34.9027506,7.56128681 35.4496443,7.44332936 35.8120953,7.20741447 C36.1724017,6.97364426 36.3546996,6.65837617 36.3546996,6.26804426 C36.3546996,5.98065702 36.2560443,5.74688681 36.0565889,5.56673362 C35.8592783,5.38658043 35.6169294,5.24932085 35.3252528,5.15281021 C35.0335762,5.05629957 34.6239421,4.94906553 34.094206,4.8289634 C33.4293549,4.67669106 32.8931847,4.5265634 32.4856953,4.37429106 C32.0760613,4.22201872 31.728623,3.99039319 31.4369464,3.67298043 C31.1474145,3.35771234 31.0015762,2.93092085 31.0015762,2.39689532 C31.0015762,1.9508017 31.1259677,1.54545702 31.3747506,1.18729532 C31.6213889,0.826988936 31.9988528,0.539601702 32.5049974,0.325133617 C33.0089974,0.108520851 33.6352443,0.00128680851 34.3858826,0.00128680851 C34.90704,0.00128680851 35.4196187,0.065627234 35.9257634,0.192163404 C36.4297634,0.320844255 36.8629889,0.505286809 37.22544,0.743346383 L36.8072272,1.70201872 C36.4383421,1.47897191 36.0437209,1.30954213 35.6212187,1.19372936 C35.2008613,1.0779166 34.7890826,1.01786553 34.3858826,1.01786553 C33.6695591,1.01786553 33.1333889,1.14225702 32.7752272,1.39104 C32.4192102,1.6376783 32.239057,1.95723574 32.239057,2.34971234 C32.239057,2.63709957 32.339857,2.87086979 32.5436017,3.05102298 C32.743057,3.22903149 32.9939847,3.37058043 33.29424,3.46923574 C33.590206,3.57003574 33.9976953,3.67512511 34.5124187,3.78664851 C35.1772698,3.93892085 35.7112953,4.09119319 36.1144953,4.24346553 C36.5176953,4.39573787 36.8651336,4.62521872 37.1568102,4.93834213 C37.4463421,5.24932085 37.5921804,5.66753362 37.5921804,6.19512511 C37.5921804,6.63478468 37.4656443,7.03584 37.2125719,7.40043574 C36.9594996,7.76288681 36.5777464,8.05027404 36.063023,8.26259745 C35.5504443,8.47492085 34.9199081,8.58001021 34.1692698,8.58001021 C33.5065634,8.58001021 32.8653038,8.48135489 32.2454911,8.28618894" id="Fill-17"></path>
                    <polygon id="Fill-18" points="41.0631319 1.13904 38.0326979 1.13904 38.0326979 0.0967251064 45.3417702 0.0967251064 45.3417702 1.13904 42.3134809 1.13904 42.3134809 8.48457191 41.0631319 8.48457191"></polygon>
                    <polygon id="Fill-19" points="46.7177974 8.48542979 47.9788698 8.48542979 47.9788698 0.0975829787 46.7177974 0.0975829787"></polygon>
                    <path d="M52.1895217,8.02325106 C51.4774877,7.65222128 50.9220153,7.13964255 50.5166706,6.48980426 C50.1134706,5.83782128 49.9118706,5.10648511 49.9118706,4.2893617 C49.9118706,3.47438298 50.1134706,2.74304681 50.5166706,2.09106383 C50.9220153,1.44122553 51.4796323,0.928646809 52.1959557,0.557617021 C52.9101345,0.186587234 53.7101004,-7.99360578e-15 54.5958536,-7.99360578e-15 C55.2842962,-7.99360578e-15 55.9148323,0.111523404 56.4874621,0.330280851 C57.0600919,0.551182979 57.5490791,0.875029787 57.9522791,1.30611064 L57.1330111,2.0610383 C56.46816,1.4004766 55.6381685,1.06590638 54.6451813,1.06590638 C53.9889089,1.06590638 53.3948323,1.20745532 52.8650962,1.48626383 C52.33536,1.76721702 51.9214366,2.15111489 51.6211813,2.64224681 C51.3230706,3.13337872 51.172943,3.68241702 51.172943,4.2893617 C51.172943,4.89630638 51.3230706,5.44748936 51.6211813,5.93862128 C51.9214366,6.42760851 52.33536,6.81579574 52.8650962,7.09245957 C53.3948323,7.37341277 53.9889089,7.51281702 54.6451813,7.51281702 C55.6295898,7.51281702 56.4574366,7.17610213 57.1330111,6.5069617 L57.9522791,7.26188936 C57.5490791,7.69297021 57.0579472,8.02110638 56.4810281,8.24415319 C55.9041089,8.4672 55.2714281,8.5787234 54.5829855,8.5787234 C53.6972323,8.5787234 52.9015557,8.39428085 52.1895217,8.02325106" id="Fill-20"></path>
                    <path d="M60.3693345,8.28618894 C59.7495217,8.09102298 59.2648238,7.83795064 58.9109515,7.52697191 L59.3784919,6.58974638 C59.7152068,6.8792783 60.1462877,7.11304851 60.6717345,7.29105702 C61.1971813,7.47121021 61.7397855,7.56128681 62.2931132,7.56128681 C63.026594,7.56128681 63.5734877,7.44332936 63.9359387,7.20741447 C64.2983898,6.97364426 64.478543,6.65837617 64.478543,6.26804426 C64.478543,5.98065702 64.3798877,5.74688681 64.1804323,5.56673362 C63.9852664,5.38658043 63.7386281,5.24932085 63.4512409,5.15281021 C63.1595643,5.05629957 62.7499302,4.94906553 62.2180494,4.8289634 C61.5531983,4.67669106 61.0170281,4.5265634 60.6095387,4.37429106 C60.1999047,4.22201872 59.8524664,3.99039319 59.5629345,3.67298043 C59.2712579,3.35771234 59.1254196,2.93092085 59.1254196,2.39689532 C59.1254196,1.9508017 59.2498111,1.54545702 59.498594,1.18729532 C59.7452323,0.826988936 60.1226962,0.539601702 60.6288409,0.325133617 C61.1328409,0.108520851 61.7590877,0.00128680851 62.509726,0.00128680851 C63.0308834,0.00128680851 63.5434621,0.065627234 64.0474621,0.192163404 C64.5536068,0.320844255 64.9868323,0.505286809 65.3492834,0.743346383 L64.9310706,1.70201872 C64.5621855,1.47897191 64.1675643,1.30954213 63.7450621,1.19372936 C63.3247047,1.0779166 62.912926,1.01786553 62.509726,1.01786553 C61.7934026,1.01786553 61.2572323,1.14225702 60.8990706,1.39104 C60.5409089,1.6376783 60.3629004,1.95723574 60.3629004,2.34971234 C60.3629004,2.63709957 60.4637004,2.87086979 60.6653004,3.05102298 C60.8669004,3.22903149 61.1178281,3.37058043 61.4159387,3.46923574 C61.716194,3.57003574 62.1215387,3.67512511 62.6362621,3.78664851 C63.2989685,3.93892085 63.832994,4.09119319 64.2383387,4.24346553 C64.6415387,4.39573787 64.988977,4.62521872 65.2806536,4.93834213 C65.5701855,5.24932085 65.7160238,5.66753362 65.7160238,6.19512511 C65.7160238,6.63478468 65.5894877,7.03584 65.3364153,7.40043574 C65.083343,7.76288681 64.7015898,8.05027404 64.1868664,8.26259745 C63.6742877,8.47492085 63.0437515,8.58001021 62.2931132,8.58001021 C61.6282621,8.58001021 60.9870026,8.48135489 60.3693345,8.28618894" id="Fill-21"></path>
                    <path d="M70.7952715,5.96757447 C70.5722247,5.75954043 70.462846,5.49574468 70.462846,5.17618723 C70.462846,4.87378723 70.5743694,4.61642553 70.8017055,4.40410213 C71.0290417,4.19177872 71.2992715,4.08668936 71.6102502,4.08668936 C71.9212289,4.08668936 72.189314,4.19177872 72.4102162,4.40410213 C72.633263,4.61642553 72.7469311,4.87378723 72.7469311,5.17618723 C72.7469311,5.49574468 72.633263,5.75954043 72.4102162,5.96757447 C72.189314,6.17560851 71.9212289,6.28069787 71.6102502,6.28069787 C71.2906928,6.28069787 71.0183183,6.17560851 70.7952715,5.96757447" id="Fill-22"></path>
                    <path d="M84.4352272,4.24282213 L85.6469719,4.24282213 L85.6469719,7.51346043 C85.209457,7.85660936 84.7011677,8.12040511 84.1199591,8.30484766 C83.5387506,8.48714553 82.931806,8.57936681 82.3012698,8.57936681 C81.4090826,8.57936681 80.6069719,8.39492426 79.8906485,8.02389447 C79.1743251,7.65072 78.6124187,7.14028596 78.2049294,6.48830298 C77.79744,5.83846468 77.5936953,5.10498383 77.5936953,4.29000511 C77.5936953,3.47502638 77.79744,2.74154553 78.2049294,2.08527319 C78.6124187,1.42900085 79.1764698,0.920711489 79.8970826,0.551826383 C80.6155506,0.182941277 81.42624,0.000643404255 82.327006,0.000643404255 C83.0347506,0.000643404255 83.6760102,0.112166809 84.2529294,0.330924255 C84.8277038,0.549681702 85.3188357,0.87138383 85.7241804,1.29388596 L84.9392272,2.03809021 C84.2336272,1.3903966 83.3778996,1.06654979 82.3784783,1.06654979 C81.7050485,1.06654979 81.1002485,1.20380936 80.566223,1.48047319 C80.0321974,1.75499234 79.61184,2.13889021 79.30944,2.63216681 C79.00704,3.12329872 78.8547677,3.6744817 78.8547677,4.29000511 C78.8547677,4.89694979 79.00704,5.44813277 79.30944,5.93926468 C79.61184,6.42825191 80.0321974,6.81429447 80.566223,7.09310298 C81.1002485,7.37405617 81.7007591,7.51346043 82.3656102,7.51346043 C83.1548528,7.51346043 83.84544,7.33330723 84.4352272,6.97300085 L84.4352272,4.24282213 Z" id="Fill-23"></path>
                    <path d="M88.9665089,7.6211234 C88.3102366,6.98200851 87.9821004,6.06408511 87.9821004,4.86520851 L87.9821004,0.0975829787 L89.2453174,0.0975829787 L89.2453174,4.81802553 C89.2453174,6.61526809 90.0753089,7.51388936 91.7310026,7.51388936 C92.5395472,7.51388936 93.1572153,7.29084255 93.5861515,6.8490383 C94.0150877,6.40508936 94.2295557,5.72951489 94.2295557,4.81802553 L94.2295557,0.0975829787 L95.4541685,0.0975829787 L95.4541685,4.86520851 C95.4541685,6.07266383 95.1260323,6.99273191 94.46976,7.62755745 C93.8134877,8.26238298 92.8955643,8.57979574 91.7181345,8.57979574 C90.5407047,8.57979574 89.624926,8.2602383 88.9665089,7.6211234" id="Fill-24"></path>
                    <polygon id="Fill-25" points="101.298424 5.58432 101.298424 8.48392851 100.05022 8.48392851 100.05022 5.56072851 96.539377 0.0960817021 97.890526 0.0960817021 100.717215 4.51626894 103.558917 0.0960817021 104.809266 0.0960817021"></polygon>
                    <path d="M110.739952,5.4284017 L108.835476,1.31919319 L106.928854,5.4284017 L110.739952,5.4284017 Z M111.181757,6.38707404 L106.48705,6.38707404 L105.513365,8.48457191 L104.213689,8.48457191 L108.215663,0.0967251064 L109.466012,0.0967251064 L113.480854,8.48457191 L112.155442,8.48457191 L111.181757,6.38707404 Z" id="Fill-26"></path>
                    <polygon id="Fill-27" points="122.39136 0.0969395745 122.39136 8.48478638 121.357624 8.48478638 116.055973 2.22875234 116.055973 8.48478638 114.792756 8.48478638 114.792756 0.0969395745 115.826492 0.0969395745 121.130288 6.35082894 121.130288 0.0969395745"></polygon>
                    <path d="M130.230597,5.4284017 L128.323976,1.31919319 L126.4195,5.4284017 L130.230597,5.4284017 Z M130.672402,6.38707404 L125.977695,6.38707404 L125.00401,8.48457191 L123.704334,8.48457191 L127.706308,0.0967251064 L128.956657,0.0967251064 L132.969355,8.48457191 L131.643942,8.48457191 L130.672402,6.38707404 Z" id="Fill-28"></path>
                </g>
                <path d="M67.1656851,28.2717595 L67.1656851,23.0196744 L81.112783,23.0196744 C82.8037447,23.0196744 83.4843234,23.3723553 83.7378723,23.5839638 C84.1191489,23.8966106 84.3269447,24.6858532 84.3269447,25.8029936 C84.3269447,26.4568829 84.2316255,27.3223808 83.7664681,27.7246276 C83.3546894,28.0811212 82.5997617,28.2717595 81.5817532,28.2717595 L67.1656851,28.2717595 Z M67.1656851,38.5281 L67.1656851,32.5287127 L81.5264681,32.5287127 C83.4328511,32.5287127 84.1820596,32.9118957 84.4603915,33.1387553 C84.7025021,33.3389255 85.1104681,33.9299042 85.1104681,35.6570872 C85.1104681,36.4120149 84.9998979,37.4090532 84.4813617,37.8646787 C84.0314553,38.2593 83.1926468,38.4690021 82.0545362,38.4690021 L67.1656851,38.5281 Z M87.6268936,29.812117 C88.0558298,29.4422787 88.3627574,29.0838787 88.5610213,28.7254787 C88.9708936,27.9858021 89.1596255,26.8381595 89.1596255,25.1128829 C89.1596255,23.2274702 88.5934298,21.6890191 87.4724766,20.5375638 C86.3458043,19.3803893 84.8187915,18.7951297 82.9333787,18.7951297 L62.4283234,18.7627212 L62.4283234,42.9146872 L82.9333787,42.9146872 C85.1352511,42.9146872 86.8929362,42.2398276 88.1530553,40.9110787 C89.4017362,39.5956744 90.0346553,37.8398957 90.0346553,35.6875893 C90.0346553,33.9928149 89.7410723,32.5820915 89.152,31.4725766 C88.7516596,30.7576829 88.2388426,30.2010191 87.6268936,29.812117 L87.6268936,29.812117 Z" id="Fill-29" fill="#FFFFFF"></path>
                <path d="M116.408701,34.6751093 C116.408701,36.6939689 115.968327,37.466054 115.705246,37.7462923 C115.398318,38.0760966 114.654829,38.4688115 112.85711,38.4688115 L101.859186,38.4688115 C100.530437,38.4688115 99.5410247,38.2838923 98.9557651,37.9445561 C98.5573311,37.6871944 98.0254502,37.1820029 98.0254502,35.7808115 L98.0254502,18.6691178 L93.1946757,18.6691178 L93.1946757,35.6568966 C93.1946757,38.9187178 94.3823523,41.09962 96.7310162,42.1385987 C98.0407013,42.702888 100.316923,42.9755008 103.662625,42.9755008 L103.672157,42.9755008 L106.798625,43.07082 L110.195799,42.9449987 L113.888463,42.8515859 C116.05602,42.8515859 117.796548,42.3425817 119.08145,41.3226668 C120.513144,40.1349902 121.239476,38.3944625 121.239476,36.1487434 L121.239476,18.6691178 L116.408701,18.6691178 L116.408701,34.6751093 Z" id="Fill-30" fill="#FFFFFF"></path>
                <path d="M147.570819,26.4780438 C147.570819,27.3778566 147.435466,28.5540949 146.781576,29.0554736 C146.512776,29.2670821 145.778819,29.6197629 143.859091,29.6197629 L129.751857,29.6788608 L129.751857,22.9264523 L143.300521,22.9264523 C145.527176,22.9264523 146.371704,23.3096353 146.667193,23.5307757 C147.412589,24.1026906 147.570819,25.448597 147.570819,26.4780438 M151.635227,30.4681034 C152.157576,29.6254821 152.401593,28.315797 152.401593,26.3541289 C152.401593,23.6508778 151.741985,21.6663332 150.443738,20.4576863 C149.164555,19.2719161 147.193355,18.6694991 144.58161,18.6694991 L124.919176,18.6694991 L124.919176,42.9148778 L129.751857,42.9148778 L129.751857,33.9091246 L143.799993,33.9091246 C145.776912,33.9091246 146.476555,34.334248 146.716759,34.587797 C146.966495,34.8508778 147.382087,35.5829289 147.382087,37.5083757 L147.22767,42.9148778 L152.058444,42.9148778 L152.058444,36.4083927 C152.058444,35.0129204 151.768674,33.8671842 151.171976,32.9692778 C150.90127,32.5956268 150.565746,32.2658225 150.167312,31.9798651 C150.870768,31.4822991 151.351176,30.9866395 151.635227,30.4681034" id="Fill-31" fill="#FFFFFF"></path>
                <path d="M165.493297,33.7312591 L171.429774,23.7132166 L177.114608,33.7312591 L165.493297,33.7312591 Z M169.014386,18.6708336 L154.678386,42.8609272 L160.218335,42.8323315 L163.018812,37.9253017 L179.547152,37.9253017 L182.492514,42.8437697 L187.982897,42.855208 L173.858506,18.6708336 L169.014386,18.6708336 Z" id="Fill-32" fill="#FFFFFF"></path>
                <path d="M214.865757,30.7916166 C214.865757,34.8083655 214.324344,36.249591 214.002165,36.7490634 C213.25105,37.911957 211.539118,38.5010293 208.90831,38.5010293 L195.733297,38.5010293 L195.733297,23.1146123 L209.564106,23.1146123 C211.922301,23.1146123 213.411186,23.7475315 214.114642,25.0419655 C214.457791,25.6825102 214.865757,27.199991 214.865757,30.7916166 M219.296191,25.4156166 C218.80625,23.2366208 217.86831,21.5990378 216.509059,20.5505272 C214.976327,19.364757 212.755391,18.7642463 209.907254,18.7642463 L190.963527,18.7642463 L190.963527,42.8513953 L210.688871,42.8513953 C214.107016,42.8513953 216.573876,41.7456932 218.018914,39.5686038 C219.19134,37.8261697 219.759442,35.2944932 219.759442,31.8267825 C219.759442,28.9653017 219.608837,26.8701868 219.296191,25.4156166" id="Fill-33" fill="#FFFFFF"></path>
                <path d="M230.574734,33.7312591 L236.51121,23.7132166 L242.197951,33.7312591 L230.574734,33.7312591 Z M238.939942,18.6708336 L234.097729,18.6708336 L219.761729,42.8609272 L225.301678,42.8323315 L228.102155,37.9253017 L244.628589,37.9253017 L247.573951,42.8437697 L253.06624,42.855208 L238.939942,18.6708336 Z" id="Fill-34" fill="#FFFFFF"></path>
            </g>
        </g>
    </g>
</svg>